<svg width="98" height="98" viewBox="0 0 98 98" fill="none" xmlns="http://www.w3.org/2000/svg">
<path d="M46.7945 56.0635C53.1315 56.0635 58.2686 50.9264 58.2686 44.5894C58.2686 38.2524 53.1315 33.1152 46.7945 33.1152C40.4575 33.1152 35.3203 38.2524 35.3203 44.5894C35.3203 50.9264 40.4575 56.0635 46.7945 56.0635Z" stroke="#6C2863" stroke-width="4" stroke-linecap="round" stroke-linejoin="round"/>
<path d="M67.9875 82.4826C67.9875 72.9685 58.5142 65.21 46.795 65.21C35.0759 65.21 25.6025 72.9276 25.6025 82.4826" stroke="#6C2863" stroke-width="4" stroke-linecap="round" stroke-linejoin="round"/>
<path d="M85.7498 51.0417C85.7498 72.4792 68.3957 89.8333 46.9582 89.8333C25.5207 89.8333 8.1665 72.4792 8.1665 51.0417C8.1665 29.6042 25.5207 12.25 46.9582 12.25C52.3073 12.25 57.4115 13.3116 62.0665 15.2716C61.5357 16.905 61.2498 18.62 61.2498 20.4167C61.2498 23.4792 62.1073 26.3783 63.6182 28.8283C64.4348 30.2167 65.4965 31.4824 66.7215 32.544C69.5798 35.1574 73.3773 36.75 77.5832 36.75C79.3798 36.75 81.0948 36.4641 82.6873 35.8924C84.6473 40.5474 85.7498 45.6925 85.7498 51.0417Z" stroke="#6C2863" stroke-width="4" stroke-linecap="round" stroke-linejoin="round"/>
<path d="M93.9167 20.4168C93.9167 21.7235 93.7533 22.9893 93.4267 24.2143C93.0592 25.8476 92.4058 27.4402 91.5483 28.8285C89.5883 32.136 86.4442 34.7084 82.6875 35.8926C81.095 36.4642 79.38 36.7502 77.5833 36.7502C73.3775 36.7502 69.58 35.1575 66.7217 32.5442C65.4967 31.4825 64.435 30.2168 63.6183 28.8285C62.1075 26.3785 61.25 23.4793 61.25 20.4168C61.25 18.6202 61.5358 16.9051 62.0667 15.2718C62.8425 12.9035 64.1492 10.7803 65.8642 9.02442C68.845 5.96192 73.01 4.0835 77.5833 4.0835C82.4017 4.0835 86.7708 6.16607 89.7108 9.5144C92.3242 12.4136 93.9167 16.2518 93.9167 20.4168Z" stroke="#6C2863" stroke-width="4" stroke-miterlimit="10" stroke-linecap="round" stroke-linejoin="round"/>
<path d="M83.6664 20.335H71.498" stroke="#6C2863" stroke-width="4" stroke-miterlimit="10" stroke-linecap="round" stroke-linejoin="round"/>
<path d="M77.5835 14.3735V26.5827" stroke="#6C2863" stroke-width="4" stroke-miterlimit="10" stroke-linecap="round" stroke-linejoin="round"/>
</svg>
