<svg width="36" height="36" viewBox="0 0 36 36" fill="none" xmlns="http://www.w3.org/2000/svg">
<g id="gallery-add">
<g id="vuesax/outline/gallery-add">
<g id="gallery-add_2">
<path id="Vector" d="M13.5 16.125C11.22 16.125 9.375 14.28 9.375 12C9.375 9.72 11.22 7.875 13.5 7.875C15.78 7.875 17.625 9.72 17.625 12C17.625 14.28 15.78 16.125 13.5 16.125ZM13.5 10.125C12.465 10.125 11.625 10.965 11.625 12C11.625 13.035 12.465 13.875 13.5 13.875C14.535 13.875 15.375 13.035 15.375 12C15.375 10.965 14.535 10.125 13.5 10.125Z" fill="#6C2863"/>
<path id="Vector_2" d="M22.5 34.125H13.5C5.355 34.125 1.875 30.645 1.875 22.5V13.5C1.875 5.355 5.355 1.875 13.5 1.875H19.5C20.115 1.875 20.625 2.385 20.625 3C20.625 3.615 20.115 4.125 19.5 4.125H13.5C6.585 4.125 4.125 6.585 4.125 13.5V22.5C4.125 29.415 6.585 31.875 13.5 31.875H22.5C29.415 31.875 31.875 29.415 31.875 22.5V15C31.875 14.385 32.385 13.875 33 13.875C33.615 13.875 34.125 14.385 34.125 15V22.5C34.125 30.645 30.645 34.125 22.5 34.125Z" fill="#6C2863"/>
<path id="Vector_3" d="M31.875 8.625H23.625C23.01 8.625 22.5 8.115 22.5 7.5C22.5 6.885 23.01 6.375 23.625 6.375H31.875C32.49 6.375 33 6.885 33 7.5C33 8.115 32.49 8.625 31.875 8.625Z" fill="#6C2863"/>
<path id="Vector_4" d="M27.75 12.75C27.135 12.75 26.625 12.24 26.625 11.625V3.375C26.625 2.76 27.135 2.25 27.75 2.25C28.365 2.25 28.875 2.76 28.875 3.375V11.625C28.875 12.24 28.365 12.75 27.75 12.75Z" fill="#6C2863"/>
<path id="Vector_5" d="M4.00495 29.5498C3.64495 29.5498 3.28495 29.3698 3.07495 29.0548C2.72995 28.5448 2.86495 27.8398 3.37495 27.4948L10.77 22.5298C12.39 21.4498 14.625 21.5698 16.095 22.8148L16.59 23.2498C17.34 23.8948 18.615 23.8948 19.35 23.2498L25.59 17.8948C27.195 16.5298 29.685 16.5298 31.29 17.8948L33.735 19.9948C34.2 20.3998 34.26 21.1048 33.855 21.5848C33.45 22.0498 32.745 22.1098 32.265 21.7048L29.82 19.6048C29.07 18.9598 27.795 18.9598 27.06 19.6048L20.82 24.9598C19.23 26.3248 16.725 26.3248 15.12 24.9598L14.625 24.5248C13.935 23.9398 12.795 23.8798 12.03 24.4048L4.64995 29.3698C4.43995 29.4898 4.21495 29.5498 4.00495 29.5498Z" fill="#6C2863"/>
</g>
</g>
</g>
</svg>
