<svg width="430" height="40" viewBox="0 0 430 40" fill="none" xmlns="http://www.w3.org/2000/svg">
<path d="M420 5C420 2.23858 422.239 0 425 0L430 0V10H420V5Z" fill="#6C2863"/>
<rect x="420" y="20" width="10" height="10" fill="#6C2863"/>
<rect x="420" y="10" width="10" height="10" fill="#6C2863"/>
<rect x="420" y="30" width="10" height="10" fill="#6C2863"/>
<rect x="380" width="10" height="10" fill="#6C2863"/>
<rect x="390" width="10" height="10" fill="#6C2863"/>
<rect x="400" width="10" height="10" fill="#6C2863"/>
<rect x="390" y="10" width="10" height="10" fill="#6C2863"/>
<rect x="390" y="20" width="10" height="10" fill="#6C2863"/>
<path d="M390 30H400V35C400 37.7614 397.761 40 395 40H390V30Z" fill="#6C2863"/>
<path d="M340 30H350V40H345C342.239 40 340 37.7614 340 35V30Z" fill="#6C2863"/>
<rect x="340" y="20" width="10" height="10" fill="#6C2863"/>
<rect x="340" y="10" width="10" height="10" fill="#6C2863"/>
<rect x="340" width="10" height="10" fill="#6C2863"/>
<rect x="355" y="10" width="10" height="10" fill="#6C2863"/>
<rect x="360" y="30" width="10" height="10" fill="#6C2863"/>
<rect x="350" y="20" width="10" height="10" fill="#6C2863"/>
<path d="M360 0L365 0C367.761 0 370 2.23858 370 5V10H360V0Z" fill="#6C2863"/>
<rect x="310" width="10" height="10" fill="#6C2863"/>
<rect x="310" y="20" width="10" height="10" fill="#6C2863"/>
<path d="M320 30H330V35C330 37.7614 327.761 40 325 40H320V30Z" fill="#6C2863"/>
<rect x="320" y="10" width="10" height="10" fill="#6C2863"/>
<path d="M300 15C300 12.2386 302.239 10 305 10H310V20H300V15Z" fill="#6C2863"/>
<rect x="300" y="20" width="10" height="10" fill="#6C2863"/>
<rect x="300" y="30" width="10" height="10" fill="#6C2863"/>
<rect x="320" y="20" width="10" height="10" fill="#6C2863"/>
<path d="M280 30H290V35C290 37.7614 287.761 40 285 40H280V30Z" fill="#6C2863"/>
<rect x="260" y="20" width="10" height="10" fill="#6C2863"/>
<rect x="260" y="10" width="10" height="10" fill="#6C2863"/>
<path d="M260 5C260 2.23858 262.239 0 265 0H270V10H260V5Z" fill="#6C2863"/>
<rect x="270" width="10" height="10" fill="#6C2863"/>
<rect x="270" y="30" width="10" height="10" fill="#6C2863"/>
<rect x="270" y="15" width="10" height="10" fill="#6C2863"/>
<rect x="280" y="22.5" width="10" height="10" fill="#6C2863"/>
<rect x="280" y="7.5" width="10" height="10" fill="#6C2863"/>
<rect x="10" width="10" height="10" fill="#6C2863"/>
<path d="M0 15C0 12.2386 2.23858 10 5 10H10V20H0V15Z" fill="#6C2863"/>
<rect y="20" width="10" height="10" fill="#6C2863"/>
<rect y="30" width="10" height="10" fill="#6C2863"/>
<rect x="20" y="20" width="10" height="10" fill="#6C2863"/>
<rect x="10" y="20" width="10" height="10" fill="#6C2863"/>
<path d="M20 30H30V35C30 37.7614 27.7614 40 25 40H20V30Z" fill="#6C2863"/>
<rect x="20" y="10" width="10" height="10" fill="#6C2863"/>
<path d="M40 5C40 2.23858 42.2386 0 45 0H50V10H40V5Z" fill="#6C2863"/>
<rect x="40" y="10" width="10" height="10" fill="#6C2863"/>
<rect x="40" y="20" width="10" height="10" fill="#6C2863"/>
<rect x="40" y="30" width="10" height="10" fill="#6C2863"/>
<rect x="45" y="10" width="10" height="10" fill="#6C2863"/>
<rect x="60" width="10" height="10" fill="#6C2863"/>
<rect x="60" y="10" width="10" height="10" fill="#6C2863"/>
<rect x="60" y="20" width="10" height="10" fill="#6C2863"/>
<rect x="55" y="20" width="10" height="10" fill="#6C2863"/>
<path d="M60 30H70V35C70 37.7614 67.7614 40 65 40H60V30Z" fill="#6C2863"/>
<rect x="160" width="10" height="10" fill="#6C2863"/>
<rect x="160" y="10" width="10" height="10" fill="#6C2863"/>
<path d="M160 20H170V30H165C162.239 30 160 27.7614 160 25V20Z" fill="#6C2863"/>
<rect x="170" y="14" width="10" height="10" fill="#6C2863"/>
<rect x="170" width="10" height="10" fill="#6C2863"/>
<path d="M180 0H185C187.761 0 190 2.23858 190 5V10H180V0Z" fill="#6C2863"/>
<rect x="170" y="30" width="10" height="10" fill="#6C2863"/>
<rect x="180" y="30" width="10" height="10" fill="#6C2863"/>
<rect x="200" y="30" width="10" height="10" fill="#6C2863"/>
<rect x="200" y="20" width="10" height="10" fill="#6C2863"/>
<rect x="200" y="10" width="10" height="10" fill="#6C2863"/>
<rect x="200" width="10" height="10" fill="#6C2863"/>
<rect x="202" y="5" width="10" height="10" fill="#6C2863"/>
<rect x="220" width="10" height="10" fill="#6C2863"/>
<rect x="220" y="10" width="10" height="10" fill="#6C2863"/>
<rect x="220" y="10" width="10" height="10" fill="#6C2863"/>
<rect x="218" y="5" width="10" height="10" fill="#6C2863"/>
<rect x="216" y="10" width="10" height="10" fill="#6C2863"/>
<rect x="215" y="15" width="2" height="10" fill="#6C2863"/>
<rect x="213" y="15" width="2" height="10" fill="#6C2863"/>
<rect x="204" y="10" width="10" height="10" fill="#6C2863"/>
<rect x="220" y="20" width="10" height="10" fill="#6C2863"/>
<rect x="220" y="30" width="10" height="10" fill="#6C2863"/>
<rect x="80" width="10" height="10" fill="#6C2863"/>
<rect x="90" width="10" height="10" fill="#6C2863"/>
<rect x="100" width="10" height="10" fill="#6C2863"/>
<rect x="90" y="10" width="10" height="10" fill="#6C2863"/>
<rect x="90" y="20" width="10" height="10" fill="#6C2863"/>
<path d="M90 30H100V35C100 37.7614 97.7614 40 95 40H90V30Z" fill="#6C2863"/>
<rect x="120" width="10" height="10" fill="#6C2863"/>
<rect x="120" y="10" width="10" height="10" fill="#6C2863"/>
<rect x="120" y="20" width="10" height="10" fill="#6C2863"/>
<rect x="120" y="30" width="10" height="10" fill="#6C2863"/>
<rect x="130" y="15" width="10" height="10" fill="#6C2863"/>
<rect x="140" width="10" height="10" fill="#6C2863"/>
<rect x="140" y="10" width="10" height="10" fill="#6C2863"/>
<rect x="140" y="20" width="10" height="10" fill="#6C2863"/>
<path d="M140 30H150V35C150 37.7614 147.761 40 145 40H140V30Z" fill="#6C2863"/>
</svg>
