<svg width="732" height="164" viewBox="0 0 732 164" fill="none" xmlns="http://www.w3.org/2000/svg">
<path d="M371.741 121.496C371.741 118.791 373.934 116.598 376.64 116.598H383.497V128.354H371.741V121.496Z" fill="#6C2863"/>
<rect x="383.498" y="116.598" width="11.7562" height="11.7562" fill="#6C2863"/>
<rect x="395.253" y="128.354" width="11.7562" height="11.7562" fill="#6C2863"/>
<rect x="395.253" y="140.11" width="11.7562" height="11.7562" fill="#6C2863"/>
<path d="M395.253 151.867H407.009V158.724C407.009 161.43 404.816 163.623 402.111 163.623H395.253V151.867Z" fill="#6C2863"/>
<rect x="383.498" y="151.867" width="11.7562" height="11.7562" fill="#6C2863"/>
<rect x="371.741" y="151.867" width="11.7562" height="11.7562" fill="#6C2863"/>
<rect x="383.498" y="134.232" width="11.7562" height="11.7562" fill="#6C2863"/>
<rect x="348.229" y="126.395" width="11.7562" height="11.7562" fill="#6C2863"/>
<rect x="336.473" y="114.639" width="11.7562" height="11.7562" fill="#6C2863"/>
<rect x="324.717" y="151.867" width="11.7562" height="11.7562" fill="#6C2863"/>
<path d="M324.717 145.009C324.717 142.304 326.91 140.11 329.615 140.11H336.473V151.867H324.717V145.009Z" fill="#6C2863"/>
<path d="M324.717 119.537C324.717 116.832 326.91 114.639 329.615 114.639H336.473V126.395H324.717V119.537Z" fill="#6C2863"/>
<rect x="336.473" y="151.867" width="11.7562" height="11.7562" fill="#6C2863"/>
<rect x="348.229" y="151.867" width="11.7562" height="11.7562" fill="#6C2863"/>
<rect x="301.203" y="151.867" width="11.7562" height="11.7562" fill="#6C2863"/>
<rect x="277.691" y="116.598" width="11.7562" height="11.7562" fill="#6C2863"/>
<rect x="277.691" y="128.354" width="11.7562" height="11.7562" fill="#6C2863"/>
<path d="M289.448 116.598H296.306C299.011 116.598 301.204 118.791 301.204 121.496V128.354H289.448V116.598Z" fill="#6C2863"/>
<rect x="301.203" y="128.354" width="11.7562" height="11.7562" fill="#6C2863"/>
<rect x="301.203" y="140.11" width="11.7562" height="11.7562" fill="#6C2863"/>
<rect x="289.448" y="151.867" width="11.7562" height="11.7562" fill="#6C2863"/>
<path d="M277.691 140.11H289.448V151.867H282.59C279.885 151.867 277.691 149.674 277.691 146.968V140.11Z" fill="#6C2863"/>
<rect x="254.178" y="126.395" width="11.7562" height="11.7562" fill="#6C2863"/>
<rect x="242.423" y="114.639" width="11.7562" height="11.7562" fill="#6C2863"/>
<rect x="230.666" y="151.867" width="11.7562" height="11.7562" fill="#6C2863"/>
<path d="M230.666 145.009C230.666 142.304 232.859 140.11 235.564 140.11H242.422V151.867H230.666V145.009Z" fill="#6C2863"/>
<path d="M230.666 119.537C230.666 116.832 232.859 114.639 235.564 114.639H242.422V126.395H230.666V119.537Z" fill="#6C2863"/>
<rect x="242.423" y="151.867" width="11.7562" height="11.7562" fill="#6C2863"/>
<rect x="254.178" y="151.867" width="11.7562" height="11.7562" fill="#6C2863"/>
<path d="M188.098 120.517C188.098 117.811 190.291 115.618 192.996 115.618H199.854V127.375H188.098V120.517Z" fill="#6C2863"/>
<rect x="188.098" y="139.131" width="11.7562" height="11.7562" fill="#6C2863"/>
<rect x="188.098" y="139.131" width="11.7562" height="11.7562" fill="#6C2863"/>
<rect x="188.098" y="150.887" width="11.7562" height="11.7562" fill="#6C2863"/>
<rect x="141.074" y="115.618" width="11.7562" height="11.7562" fill="#6C2863"/>
<rect x="152.831" y="115.618" width="11.7562" height="11.7562" fill="#6C2863"/>
<rect x="164.587" y="115.618" width="11.7562" height="11.7562" fill="#6C2863"/>
<rect x="152.831" y="127.375" width="11.7562" height="11.7562" fill="#6C2863"/>
<path d="M152.831 150.887H164.587V157.745C164.587 160.45 162.394 162.643 159.689 162.643H152.831V150.887Z" fill="#6C2863"/>
<path d="M94.0508 150.887H105.807V162.643H98.9492C96.2439 162.643 94.0508 160.45 94.0508 157.745V150.887Z" fill="#6C2863"/>
<rect x="94.0508" y="139.131" width="11.7562" height="11.7562" fill="#6C2863"/>
<rect x="94.0508" y="127.375" width="11.7562" height="11.7562" fill="#6C2863"/>
<rect x="94.0508" y="115.618" width="11.7562" height="11.7562" fill="#6C2863"/>
<rect x="111.686" y="127.375" width="11.7562" height="11.7562" fill="#6C2863"/>
<rect x="117.562" y="150.887" width="11.7562" height="11.7562" fill="#6C2863"/>
<rect x="105.807" y="139.131" width="11.7562" height="11.7562" fill="#6C2863"/>
<path d="M117.562 115.618H124.42C127.126 115.618 129.319 117.811 129.319 120.517V127.375H117.562V115.618Z" fill="#6C2863"/>
<rect x="58.7822" y="115.618" width="11.7562" height="11.7562" fill="#6C2863"/>
<rect x="58.7822" y="139.131" width="11.7562" height="11.7562" fill="#6C2863"/>
<path d="M70.5371 150.887H82.2933V157.745C82.2933 160.45 80.1002 162.643 77.3949 162.643H70.5371V150.887Z" fill="#6C2863"/>
<rect x="70.5371" y="127.375" width="11.7562" height="11.7562" fill="#6C2863"/>
<path d="M47.0254 132.273C47.0254 129.568 49.2185 127.375 51.9238 127.375H58.7816V139.131H47.0254V132.273Z" fill="#6C2863"/>
<rect x="47.0254" y="139.131" width="11.7562" height="11.7562" fill="#6C2863"/>
<rect x="47.0254" y="150.887" width="11.7562" height="11.7562" fill="#6C2863"/>
<rect x="70.5371" y="139.131" width="11.7562" height="11.7562" fill="#6C2863"/>
<path d="M23.5117 150.887H35.2679V157.745C35.2679 160.45 33.0748 162.643 30.3695 162.643H23.5117V150.887Z" fill="#6C2863"/>
<rect y="139.131" width="11.7562" height="11.7562" fill="#6C2863"/>
<rect y="127.375" width="11.7562" height="11.7562" fill="#6C2863"/>
<path d="M0 120.517C0 117.811 2.1931 115.618 4.89843 115.618H11.7562V127.375H0V120.517Z" fill="#6C2863"/>
<rect x="11.7568" y="115.618" width="11.7562" height="11.7562" fill="#6C2863"/>
<rect x="11.7568" y="150.887" width="11.7562" height="11.7562" fill="#6C2863"/>
<rect x="11.7568" y="133.253" width="11.7562" height="11.7562" fill="#6C2863"/>
<rect x="23.5117" y="142.07" width="11.7562" height="11.7562" fill="#6C2863"/>
<rect x="23.5117" y="124.436" width="11.7562" height="11.7562" fill="#6C2863"/>
<path d="M598.327 8.31998C598.327 3.72498 602.052 0 606.647 0H614.967V16.64H598.327V8.31998Z" fill="#221737"/>
<rect x="598.327" y="16.64" width="16.64" height="16.64" fill="#221737"/>
<rect x="598.327" y="33.28" width="16.64" height="16.64" fill="#221737"/>
<rect x="598.327" y="49.9199" width="16.64" height="16.64" fill="#221737"/>
<rect x="606.646" y="16.64" width="16.64" height="16.64" fill="#221737"/>
<rect x="631.607" width="16.64" height="16.64" fill="#221737"/>
<rect x="631.607" y="16.64" width="16.64" height="16.64" fill="#221737"/>
<rect x="631.607" y="33.28" width="16.64" height="16.64" fill="#221737"/>
<rect x="623.288" y="33.28" width="16.64" height="16.64" fill="#221737"/>
<path d="M631.607 49.9199H648.247V58.2399C648.247 62.8349 644.522 66.5599 639.927 66.5599H631.607V49.9199Z" fill="#221737"/>
<rect x="531.77" width="16.64" height="16.64" fill="#221737"/>
<rect x="531.77" y="16.64" width="16.64" height="16.64" fill="#221737"/>
<rect x="531.77" y="33.28" width="16.64" height="16.64" fill="#221737"/>
<rect x="531.77" y="49.9199" width="16.64" height="16.64" fill="#221737"/>
<rect x="548.41" width="16.64" height="16.64" fill="#221737"/>
<rect x="565.05" y="16.64" width="16.64" height="16.64" fill="#221737"/>
<rect x="565.05" y="33.28" width="16.64" height="16.64" fill="#221737"/>
<rect x="548.41" y="49.9199" width="16.64" height="16.64" fill="#221737"/>
<rect x="565.05" y="49.9199" width="16.64" height="16.64" fill="#221737"/>
<rect x="465.211" width="16.64" height="16.64" fill="#221737"/>
<rect x="465.211" y="16.64" width="16.64" height="16.64" fill="#221737"/>
<rect x="465.211" y="33.28" width="16.64" height="16.64" fill="#221737"/>
<rect x="465.211" y="49.9199" width="16.64" height="16.64" fill="#221737"/>
<rect x="481.853" width="16.64" height="16.64" fill="#221737"/>
<rect x="498.491" y="16.64" width="16.64" height="16.64" fill="#221737"/>
<rect x="498.491" y="33.28" width="16.64" height="16.64" fill="#221737"/>
<rect x="481.853" y="49.9199" width="16.64" height="16.64" fill="#221737"/>
<rect x="498.491" y="49.9199" width="16.64" height="16.64" fill="#221737"/>
<rect x="415.289" width="16.64" height="16.64" fill="#221737"/>
<path d="M431.929 6.65598H440.249C444.844 6.65598 448.569 10.381 448.569 14.976V23.2959H431.929V6.65598Z" fill="#221737"/>
<rect x="398.648" y="6.65598" width="16.64" height="16.64" fill="#221737"/>
<rect x="415.289" y="28.288" width="16.64" height="16.64" fill="#221737"/>
<path d="M398.648 23.2959H415.288V39.9359H398.648V23.2959Z" fill="#221737"/>
<rect x="415.289" y="49.9199" width="16.64" height="16.64" fill="#221737"/>
<rect x="431.929" y="41.5999" width="16.64" height="16.64" fill="#221737"/>
<path d="M398.648 49.9199H415.288V66.5599H406.968C402.373 66.5599 398.648 62.8349 398.648 58.2399V49.9199Z" fill="#221737"/>
<path d="M199.679 8.31998C199.679 3.72498 203.404 0 207.999 0L216.319 0V16.64H199.679V8.31998Z" fill="#221737"/>
<rect x="199.679" y="33.28" width="16.64" height="16.64" fill="#221737"/>
<rect x="199.679" y="16.64" width="16.64" height="16.64" fill="#221737"/>
<rect x="199.679" y="49.9199" width="16.64" height="16.64" fill="#221737"/>
<path d="M232.96 8.31998C232.96 3.72498 236.685 0 241.28 0H249.6V16.64H232.96V8.31998Z" fill="#221737"/>
<rect x="232.96" y="16.64" width="16.64" height="16.64" fill="#221737"/>
<rect x="232.96" y="33.28" width="16.64" height="16.64" fill="#221737"/>
<rect x="232.96" y="49.9199" width="16.64" height="16.64" fill="#221737"/>
<rect x="241.279" y="16.64" width="16.64" height="16.64" fill="#221737"/>
<rect x="266.24" width="16.64" height="16.64" fill="#221737"/>
<rect x="266.24" y="16.64" width="16.64" height="16.64" fill="#221737"/>
<rect x="266.24" y="33.28" width="16.64" height="16.64" fill="#221737"/>
<rect x="257.92" y="33.28" width="16.64" height="16.64" fill="#221737"/>
<path d="M266.24 49.9199H282.88V58.2399C282.88 62.8349 279.155 66.5599 274.56 66.5599H266.24V49.9199Z" fill="#221737"/>
<rect x="66.5596" width="16.64" height="16.64" fill="#221737"/>
<rect x="66.5596" y="16.64" width="16.64" height="16.64" fill="#221737"/>
<rect x="66.5596" y="33.28" width="16.64" height="16.64" fill="#221737"/>
<rect x="66.5596" y="49.9199" width="16.64" height="16.64" fill="#221737"/>
<rect x="83.1992" width="16.64" height="16.64" fill="#221737"/>
<rect x="99.8398" y="16.64" width="16.64" height="16.64" fill="#221737"/>
<rect x="99.8398" y="33.28" width="16.64" height="16.64" fill="#221737"/>
<rect x="83.1992" y="49.9199" width="16.64" height="16.64" fill="#221737"/>
<rect x="99.8398" y="49.9199" width="16.64" height="16.64" fill="#221737"/>
<rect x="133.119" y="49.9199" width="16.64" height="16.64" fill="#221737"/>
<rect x="133.119" y="33.28" width="16.64" height="16.64" fill="#221737"/>
<rect x="133.119" y="16.64" width="16.64" height="16.64" fill="#221737"/>
<rect x="133.119" width="16.64" height="16.64" fill="#221737"/>
<rect x="136.446" y="8.31995" width="16.64" height="16.64" fill="#221737"/>
<rect x="166.399" width="16.64" height="16.64" fill="#221737"/>
<rect x="166.399" y="16.64" width="16.64" height="16.64" fill="#221737"/>
<rect x="166.399" y="16.64" width="16.64" height="16.64" fill="#221737"/>
<rect x="163.07" y="8.31995" width="16.64" height="16.64" fill="#221737"/>
<rect x="159.744" y="16.64" width="16.64" height="16.64" fill="#221737"/>
<rect x="158.08" y="24.96" width="3.32799" height="16.64" fill="#221737"/>
<rect x="154.752" y="24.96" width="3.32799" height="16.64" fill="#221737"/>
<rect x="139.775" y="16.64" width="16.64" height="16.64" fill="#221737"/>
<rect x="166.399" y="33.28" width="16.64" height="16.64" fill="#221737"/>
<rect x="166.399" y="49.9199" width="16.64" height="16.64" fill="#221737"/>
<rect y="16.64" width="16.64" height="16.64" fill="#221737"/>
<rect x="16.6396" width="16.64" height="16.64" fill="#221737"/>
<path d="M33.2803 0H49.9202V8.31999C49.9202 12.915 46.1953 16.64 41.6003 16.64H33.2803V0Z" fill="#221737"/>
<rect y="33.28" width="16.64" height="16.64" fill="#221737"/>
<rect y="49.9199" width="16.64" height="16.64" fill="#221737"/>
<rect x="16.6396" y="49.9199" width="16.64" height="16.64" fill="#221737"/>
<path d="M33.2803 49.9199H41.6003C46.1953 49.9199 49.9202 53.6449 49.9202 58.2399V66.5599H33.2803V49.9199Z" fill="#221737"/>
<rect x="299.521" y="16.64" width="16.64" height="16.64" fill="#221737"/>
<path d="M299.521 8.31998C299.521 3.72498 303.245 0 307.84 0H316.16V16.64H299.521V8.31998Z" fill="#221737"/>
<rect x="316.16" width="16.64" height="16.64" fill="#221737"/>
<rect x="332.801" width="16.64" height="16.64" fill="#221737"/>
<rect x="299.521" y="33.28" width="16.64" height="16.64" fill="#221737"/>
<path d="M299.521 49.9199H316.16V66.5599H307.84C303.245 66.5599 299.521 62.8349 299.521 58.2399V49.9199Z" fill="#221737"/>
<rect x="316.16" y="49.9199" width="16.64" height="16.64" fill="#221737"/>
<path d="M332.801 49.9199H349.441V58.2399C349.441 62.8349 345.716 66.5599 341.121 66.5599H332.801V49.9199Z" fill="#221737"/>
<path d="M332.801 41.5999C332.801 37.0049 336.526 33.28 341.121 33.28H349.441V49.9199H332.801V41.5999Z" fill="#221737"/>
<rect x="666.386" y="50.2353" width="16.4034" height="16.4034" fill="#DBB072"/>
<rect x="690.991" y="50.2353" width="16.4034" height="16.4034" fill="#DBB072"/>
<rect x="715.597" y="50.2353" width="16.4034" height="16.4034" fill="#DBB072"/>
</svg>
