<svg width="36" height="36" viewBox="0 0 36 36" fill="none" xmlns="http://www.w3.org/2000/svg">
<path d="M36 18C36 27.9411 27.9411 36 18 36C8.05887 36 0 27.9411 0 18C0 8.05887 8.05887 0 18 0C27.9411 0 36 8.05887 36 18Z" fill="#6C2863"/>
<path d="M25.5 18C25.5 22.14 22.14 25.5 18 25.5C13.86 25.5 10.5 22.14 10.5 18C10.5 13.86 13.86 10.5 18 10.5C22.14 10.5 25.5 13.86 25.5 18Z" stroke="#FDF6FD" stroke-width="2" stroke-linecap="round" stroke-linejoin="round"/>
<path d="M20.7825 20.3848L18.4575 18.9973C18.0525 18.7573 17.7225 18.1798 17.7225 17.7073V14.6323" stroke="#FDF6FD" stroke-width="2" stroke-linecap="round" stroke-linejoin="round"/>
</svg>
