<svg width="410" height="110" viewBox="0 0 410 110" fill="none" xmlns="http://www.w3.org/2000/svg">
<path d="M275 75C275 72.2386 277.239 70 280 70H285V80H275V75Z" fill="#6C2863"/>
<rect x="275" y="90" width="10" height="10" fill="#6C2863"/>
<rect x="275" y="80" width="10" height="10" fill="#6C2863"/>
<rect x="275" y="100" width="10" height="10" fill="#6C2863"/>
<rect x="235" y="70" width="10" height="10" fill="#6C2863"/>
<rect x="245" y="70" width="10" height="10" fill="#6C2863"/>
<rect x="255" y="70" width="10" height="10" fill="#6C2863"/>
<rect x="245" y="80" width="10" height="10" fill="#6C2863"/>
<rect x="245" y="90" width="10" height="10" fill="#6C2863"/>
<path d="M245 100H255V105C255 107.761 252.761 110 250 110H245V100Z" fill="#6C2863"/>
<path d="M195 100H205V110H200C197.239 110 195 107.761 195 105V100Z" fill="#6C2863"/>
<rect x="195" y="90" width="10" height="10" fill="#6C2863"/>
<rect x="195" y="80" width="10" height="10" fill="#6C2863"/>
<rect x="195" y="70" width="10" height="10" fill="#6C2863"/>
<rect x="210" y="80" width="10" height="10" fill="#6C2863"/>
<rect x="215" y="100" width="10" height="10" fill="#6C2863"/>
<rect x="205" y="90" width="10" height="10" fill="#6C2863"/>
<path d="M215 70H220C222.761 70 225 72.2386 225 75V80H215V70Z" fill="#6C2863"/>
<rect x="165" y="70" width="10" height="10" fill="#6C2863"/>
<rect x="165" y="90" width="10" height="10" fill="#6C2863"/>
<path d="M175 100H185V105C185 107.761 182.761 110 180 110H175V100Z" fill="#6C2863"/>
<rect x="175" y="80" width="10" height="10" fill="#6C2863"/>
<path d="M155 85C155 82.2386 157.239 80 160 80H165V90H155V85Z" fill="#6C2863"/>
<rect x="155" y="90" width="10" height="10" fill="#6C2863"/>
<rect x="155" y="100" width="10" height="10" fill="#6C2863"/>
<rect x="175" y="90" width="10" height="10" fill="#6C2863"/>
<path d="M135 100H145V105C145 107.761 142.761 110 140 110H135V100Z" fill="#6C2863"/>
<rect x="115" y="90" width="10" height="10" fill="#6C2863"/>
<rect x="115" y="80" width="10" height="10" fill="#6C2863"/>
<path d="M115 75C115 72.2386 117.239 70 120 70H125V80H115V75Z" fill="#6C2863"/>
<rect x="125" y="70" width="10" height="10" fill="#6C2863"/>
<rect x="125" y="100" width="10" height="10" fill="#6C2863"/>
<rect x="125" y="85" width="10" height="10" fill="#6C2863"/>
<rect x="135" y="92.5" width="10" height="10" fill="#6C2863"/>
<rect x="135" y="77.5" width="10" height="10" fill="#6C2863"/>
<rect x="330" width="10" height="10" fill="#6C2863"/>
<path d="M320 15C320 12.2386 322.239 10 325 10H330V20H320V15Z" fill="#6C2863"/>
<rect x="320" y="20" width="10" height="10" fill="#6C2863"/>
<rect x="320" y="30" width="10" height="10" fill="#6C2863"/>
<rect x="340" y="20" width="10" height="10" fill="#6C2863"/>
<rect x="330" y="20" width="10" height="10" fill="#6C2863"/>
<path d="M340 30H350V35C350 37.7614 347.761 40 345 40H340V30Z" fill="#6C2863"/>
<rect x="340" y="10" width="10" height="10" fill="#6C2863"/>
<path d="M240 5C240 2.23858 242.239 0 245 0H250V10H240V5Z" fill="#6C2863"/>
<rect x="240" y="10" width="10" height="10" fill="#6C2863"/>
<rect x="240" y="20" width="10" height="10" fill="#6C2863"/>
<rect x="240" y="30" width="10" height="10" fill="#6C2863"/>
<rect x="245" y="10" width="10" height="10" fill="#6C2863"/>
<rect x="260" width="10" height="10" fill="#6C2863"/>
<rect x="260" y="10" width="10" height="10" fill="#6C2863"/>
<rect x="260" y="20" width="10" height="10" fill="#6C2863"/>
<rect x="255" y="20" width="10" height="10" fill="#6C2863"/>
<path d="M260 30H270V35C270 37.7614 267.761 40 265 40H260V30Z" fill="#6C2863"/>
<rect x="200" width="10" height="10" fill="#6C2863"/>
<rect x="200" y="10" width="10" height="10" fill="#6C2863"/>
<path d="M200 20H210V30H205C202.239 30 200 27.7614 200 25V20Z" fill="#6C2863"/>
<rect x="210" y="14" width="10" height="10" fill="#6C2863"/>
<rect x="210" width="10" height="10" fill="#6C2863"/>
<path d="M220 0H225C227.761 0 230 2.23858 230 5V10H220V0Z" fill="#6C2863"/>
<rect x="210" y="30" width="10" height="10" fill="#6C2863"/>
<rect x="220" y="30" width="10" height="10" fill="#6C2863"/>
<rect width="10" height="10" fill="#6C2863"/>
<rect y="10" width="10" height="10" fill="#6C2863"/>
<rect y="20" width="10" height="10" fill="#6C2863"/>
<rect y="30" width="10" height="10" fill="#6C2863"/>
<rect x="10" width="10" height="10" fill="#6C2863"/>
<rect x="20" y="10" width="10" height="10" fill="#6C2863"/>
<rect x="20" y="20" width="10" height="10" fill="#6C2863"/>
<rect x="10" y="30" width="10" height="10" fill="#6C2863"/>
<rect x="40" width="10" height="10" fill="#6C2863"/>
<rect x="40" y="10" width="10" height="10" fill="#6C2863"/>
<rect x="40" y="20" width="10" height="10" fill="#6C2863"/>
<rect x="40" y="30" width="10" height="10" fill="#6C2863"/>
<rect x="50" width="10" height="10" fill="#6C2863"/>
<rect x="60" y="10" width="10" height="10" fill="#6C2863"/>
<rect x="60" y="20" width="10" height="10" fill="#6C2863"/>
<rect x="50" y="30" width="10" height="10" fill="#6C2863"/>
<rect x="60" y="30" width="10" height="10" fill="#6C2863"/>
<rect x="160" y="30" width="10" height="10" fill="#6C2863"/>
<rect x="160" y="20" width="10" height="10" fill="#6C2863"/>
<rect x="160" y="10" width="10" height="10" fill="#6C2863"/>
<rect x="160" width="10" height="10" fill="#6C2863"/>
<rect x="162" y="5" width="10" height="10" fill="#6C2863"/>
<rect x="180" width="10" height="10" fill="#6C2863"/>
<rect x="180" y="10" width="10" height="10" fill="#6C2863"/>
<rect x="180" y="10" width="10" height="10" fill="#6C2863"/>
<rect x="178" y="5" width="10" height="10" fill="#6C2863"/>
<rect x="176" y="10" width="10" height="10" fill="#6C2863"/>
<rect x="175" y="15" width="2" height="10" fill="#6C2863"/>
<rect x="173" y="15" width="2" height="10" fill="#6C2863"/>
<rect x="164" y="10" width="10" height="10" fill="#6C2863"/>
<rect x="180" y="20" width="10" height="10" fill="#6C2863"/>
<rect x="180" y="30" width="10" height="10" fill="#6C2863"/>
<rect x="280" width="10" height="10" fill="#6C2863"/>
<rect x="290" width="10" height="10" fill="#6C2863"/>
<rect x="300" width="10" height="10" fill="#6C2863"/>
<rect x="290" y="10" width="10" height="10" fill="#6C2863"/>
<rect x="290" y="20" width="10" height="10" fill="#6C2863"/>
<path d="M290 30H300V35C300 37.7614 297.761 40 295 40H290V30Z" fill="#6C2863"/>
<rect x="80" width="10" height="10" fill="#6C2863"/>
<rect x="90" y="20" width="10" height="10" fill="#6C2863"/>
<rect x="100" y="30" width="10" height="10" fill="#6C2863"/>
<rect x="95" y="10" width="10" height="10" fill="#6C2863"/>
<path d="M100 0H105C107.761 0 110 2.23858 110 5V10H100V0Z" fill="#6C2863"/>
<rect x="80" y="20" width="10" height="10" fill="#6C2863"/>
<rect x="80" y="10" width="10" height="10" fill="#6C2863"/>
<path d="M80 30H90V40H85C82.2386 40 80 37.7614 80 35V30Z" fill="#6C2863"/>
<rect x="120" width="10" height="10" fill="#6C2863"/>
<rect x="120" y="10" width="10" height="10" fill="#6C2863"/>
<rect x="120" y="20" width="10" height="10" fill="#6C2863"/>
<rect x="130" y="30" width="10" height="10" fill="#6C2863"/>
<path d="M120 30H130V40H125C122.239 40 120 37.7614 120 35V30Z" fill="#6C2863"/>
<rect x="140" y="20" width="10" height="10" fill="#6C2863"/>
<rect x="140" y="10" width="10" height="10" fill="#6C2863"/>
<path d="M140 0H145C147.761 0 150 2.23858 150 5V10H140V0Z" fill="#6C2863"/>
<rect x="370" width="10" height="10" fill="#6C2863"/>
<path d="M380 4H385C387.761 4 390 6.23858 390 9V14H380V4Z" fill="#6C2863"/>
<rect x="360" y="4" width="10" height="10" fill="#6C2863"/>
<rect x="370" y="17" width="10" height="10" fill="#6C2863"/>
<path d="M360 14H370V24H360V14Z" fill="#6C2863"/>
<rect x="370" y="30" width="10" height="10" fill="#6C2863"/>
<rect x="380" y="25" width="10" height="10" fill="#6C2863"/>
<path d="M360 30H370V40H365C362.239 40 360 37.7614 360 35V30Z" fill="#6C2863"/>
<path d="M400 5C400 2.23858 402.239 0 405 0L410 0V10H400V5Z" fill="#6C2863"/>
<rect x="400" y="20" width="10" height="10" fill="#6C2863"/>
<rect x="400" y="10" width="10" height="10" fill="#6C2863"/>
<rect x="400" y="30" width="10" height="10" fill="#6C2863"/>
</svg>
