<svg width="26" height="18" viewBox="0 0 26 18" fill="none" xmlns="http://www.w3.org/2000/svg">
<path d="M24.6026 1.07872L24.6026 1.07871L24.6004 1.07696C24.0905 0.655384 23.4346 0.452419 22.7756 0.512278C22.1167 0.572136 21.5081 0.889968 21.0824 1.39653L21.0811 1.39807L13.0001 11.0939L4.91896 1.39823L4.91874 1.39798C4.49395 0.889005 3.88437 0.569626 3.2241 0.510102C2.56382 0.450577 1.90695 0.655782 1.39798 1.08057C0.889005 1.50537 0.569626 2.11495 0.510102 2.77522C0.450588 3.43537 0.655706 4.09212 1.08034 4.60105C1.08042 4.60115 1.0805 4.60125 1.08057 4.60134L11.0808 16.6014L11.0809 16.6016C11.3154 16.8828 11.6089 17.1091 11.9405 17.2643C12.2722 17.4196 12.6339 17.5001 13.0001 17.5001C13.3663 17.5001 13.728 17.4196 14.0597 17.2643C14.3913 17.1091 14.6848 16.8828 14.9193 16.6016L14.9194 16.6014L24.9198 4.60092C25.3444 4.09157 25.5494 3.43456 25.4899 2.77417C25.4304 2.11378 25.1113 1.504 24.6026 1.07872Z" fill="#6C2863" stroke="#6C2863"/>
</svg>
