<svg width="189" height="57" viewBox="0 0 189 57" fill="none" xmlns="http://www.w3.org/2000/svg">
<path d="M28.5008 7.77295C22.8718 7.77295 22.1654 7.79756 19.9545 7.89818C17.748 7.99922 16.2419 8.34856 14.924 8.86113C13.5608 9.39054 12.4044 10.0987 11.2524 11.2512C10.0995 12.4033 9.3913 13.5597 8.86018 14.9226C8.34633 16.2409 7.99657 17.7475 7.89725 19.9532C7.79837 22.1642 7.77246 22.871 7.77246 28.5002C7.77246 34.1294 7.79751 34.8337 7.89768 37.0446C7.99916 39.2512 8.34849 40.7574 8.86061 42.0753C9.39043 43.4385 10.0986 44.5949 11.2511 45.747C12.4027 46.9 13.5591 47.6099 14.9214 48.1393C16.2402 48.6519 17.7467 49.0012 19.9528 49.1023C22.1637 49.2029 22.8697 49.2275 28.4982 49.2275C34.1277 49.2275 34.832 49.2029 37.0428 49.1023C39.2493 49.0012 40.7572 48.6519 42.0759 48.1393C43.4387 47.6099 44.5933 46.9 45.745 45.747C46.8979 44.5949 47.606 43.4385 48.1372 42.0757C48.6467 40.7574 48.9965 39.2508 49.1001 37.045C49.1994 34.8341 49.2253 34.1294 49.2253 28.5002C49.2253 22.871 49.1994 22.1646 49.1001 19.9537C48.9965 17.7471 48.6467 16.2409 48.1372 14.923C47.606 13.5597 46.8979 12.4033 45.745 11.2512C44.5921 10.0983 43.4391 9.39011 42.0746 8.86113C40.7533 8.34856 39.2463 7.99922 37.0398 7.89818C34.8289 7.79756 34.1251 7.77295 28.4944 7.77295H28.5008ZM26.6415 11.5082C27.1933 11.5073 27.8091 11.5082 28.5008 11.5082C34.0348 11.5082 34.6908 11.528 36.8761 11.6274C38.897 11.7198 39.9938 12.0574 40.7244 12.3412C41.6916 12.7168 42.3812 13.1659 43.1062 13.8914C43.8316 14.6168 44.2807 15.3077 44.6573 16.275C44.9409 17.0048 45.2791 18.1016 45.371 20.1225C45.4703 22.3075 45.4919 22.9639 45.4919 28.4955C45.4919 34.0271 45.4703 34.6834 45.371 36.8684C45.2786 38.8893 44.9409 39.9861 44.6573 40.7159C44.2816 41.6832 43.8316 42.3719 43.1062 43.097C42.3808 43.8224 41.692 44.2715 40.7244 44.6472C39.9946 44.9322 38.897 45.269 36.8761 45.3614C34.6912 45.4607 34.0348 45.4823 28.5008 45.4823C22.9664 45.4823 22.3105 45.4607 20.1255 45.3614C18.1047 45.2681 17.0079 44.9305 16.2769 44.6468C15.3096 44.2711 14.6187 43.822 13.8933 43.0965C13.1679 42.3711 12.7188 41.6819 12.3423 40.7142C12.0586 39.9844 11.7205 38.8876 11.6285 36.8667C11.5292 34.6817 11.5093 34.0253 11.5093 28.4903C11.5093 22.9552 11.5292 22.3023 11.6285 20.1173C11.7209 18.0964 12.0586 16.9996 12.3423 16.269C12.7179 15.3017 13.1679 14.6108 13.8933 13.8853C14.6187 13.1599 15.3096 12.7108 16.2769 12.3342C17.0075 12.0492 18.1047 11.7124 20.1255 11.6196C22.0376 11.5332 22.7786 11.5073 26.6415 11.503V11.5082ZM39.5645 14.9498C38.1914 14.9498 37.0773 16.0626 37.0773 17.4362C37.0773 18.8094 38.1914 19.9234 39.5645 19.9234C40.9377 19.9234 42.0517 18.8094 42.0517 17.4362C42.0517 16.063 40.9377 14.9489 39.5645 14.9489V14.9498ZM28.5008 17.8559C22.6227 17.8559 17.8568 22.6219 17.8568 28.5002C17.8568 34.3786 22.6227 39.1424 28.5008 39.1424C34.379 39.1424 39.1431 34.3786 39.1431 28.5002C39.1431 22.6219 34.3786 17.8559 28.5004 17.8559H28.5008ZM28.5008 21.5911C32.3163 21.5911 35.4097 24.6842 35.4097 28.5002C35.4097 32.3158 32.3163 35.4093 28.5008 35.4093C24.685 35.4093 21.592 32.3158 21.592 28.5002C21.592 24.6842 24.685 21.5911 28.5008 21.5911Z" fill="#6C2863"/>
<path fill-rule="evenodd" clip-rule="evenodd" d="M111.813 13.9781C113.709 14.4711 115.203 15.9148 115.714 17.746C116.661 21.0913 116.625 28.0637 116.625 28.0637C116.625 28.0637 116.625 35.0008 115.714 38.3462C115.203 40.1773 113.709 41.6211 111.813 42.1141C108.351 42.9944 94.4999 42.9944 94.4999 42.9944C94.4999 42.9944 80.6855 42.9944 77.1863 42.0789C75.291 41.5859 73.7965 40.1421 73.2862 38.311C72.375 35.0008 72.375 28.0285 72.375 28.0285C72.375 28.0285 72.375 21.0913 73.2862 17.746C73.7965 15.9148 75.3274 14.4358 77.1863 13.9429C80.6491 13.0625 94.4999 13.0625 94.4999 13.0625C94.4999 13.0625 108.351 13.0625 111.813 13.9781ZM101.608 27.784L90.0895 34.1929V21.375L101.608 27.784Z" fill="#6C2863"/>
<path d="M155.726 40.99C158.896 40.99 161.467 38.72 161.467 35.2491V9.5H168.352C167.965 14.1959 172.634 18.7321 177.782 18.6283V25.1025C173.379 25.1025 169.635 23.2408 168.332 22.2076V35.2491C168.332 40.99 163.816 47.5 155.726 47.5C147.636 47.5 143.218 40.99 143.218 35.2491C143.218 27.1463 151.793 22.447 157.472 23.5956V30.1899C157.186 30.0888 156.45 29.9394 155.822 29.9394C152.625 29.8215 149.985 32.4145 149.985 35.2491C149.985 38.4197 152.555 40.99 155.726 40.99Z" fill="#6C2863"/>
</svg>
