<svg width="22" height="23" viewBox="0 0 22 23" fill="none" xmlns="http://www.w3.org/2000/svg">
<path d="M7.00194 10.8522C6.54354 11.6461 5.35361 11.4895 5.11667 10.6039L4.37437 7.83364C4.16916 7.06779 3.38226 6.61347 2.61641 6.81868C1.9122 7.00738 1.46106 7.69469 1.56829 8.41616L2.78642 16.6119C3.26325 18.3914 4.41914 19.9894 6.14135 20.9837C9.58494 22.9719 13.9886 21.7919 15.9767 18.3483L19.8167 11.6973C20.2144 11.0084 19.9785 10.1279 19.2897 9.73018C18.6009 9.3325 17.7203 9.56845 17.3226 10.2573L15.1626 13.9985L18.7626 7.7631C19.1603 7.0743 18.9243 6.1937 18.2355 5.79602C17.5467 5.39834 16.6661 5.6343 16.2684 6.3231L13.1484 11.7271L13.6284 10.8957L17.2284 4.66033C17.6261 3.97153 17.3902 3.09093 16.7013 2.69325C16.0125 2.29557 15.132 2.53153 14.7343 3.22033L11.1343 9.45571L10.6543 10.2871L14.2543 4.05171C14.652 3.36291 14.416 2.48232 13.7272 2.08464C13.0384 1.68696 12.1578 1.92291 11.7601 2.61171L8.16012 8.8471L7.00194 10.8522Z" stroke="#6C2863" stroke-width="2" stroke-miterlimit="10" stroke-linecap="round" stroke-linejoin="round"/>
</svg>
