<svg width="410" height="116" viewBox="0 0 410 116" fill="none" xmlns="http://www.w3.org/2000/svg">
<rect x="270" width="10" height="10" fill="#6C2863"/>
<path d="M260 15C260 12.2386 262.239 10 265 10H270V20H260V15Z" fill="#6C2863"/>
<rect x="260" y="20" width="10" height="10" fill="#6C2863"/>
<rect x="260" y="30" width="10" height="10" fill="#6C2863"/>
<rect x="280" y="20" width="10" height="10" fill="#6C2863"/>
<rect x="270" y="20" width="10" height="10" fill="#6C2863"/>
<path d="M280 30H290V35C290 37.7614 287.761 40 285 40H280V30Z" fill="#6C2863"/>
<rect x="280" y="10" width="10" height="10" fill="#6C2863"/>
<rect x="350" width="10" height="10" fill="#6C2863"/>
<path d="M340 15C340 12.2386 342.239 10 345 10H350V20H340V15Z" fill="#6C2863"/>
<rect x="340" y="20" width="10" height="10" fill="#6C2863"/>
<rect x="340" y="30" width="10" height="10" fill="#6C2863"/>
<rect x="360" y="20" width="10" height="10" fill="#6C2863"/>
<rect x="350" y="20" width="10" height="10" fill="#6C2863"/>
<path d="M360 30H370V35C370 37.7614 367.761 40 365 40H360V30Z" fill="#6C2863"/>
<rect x="360" y="10" width="10" height="10" fill="#6C2863"/>
<path d="M300 5C300 2.23858 302.239 0 305 0H310V10H300V5Z" fill="#6C2863"/>
<rect x="300" y="10" width="10" height="10" fill="#6C2863"/>
<rect x="300" y="20" width="10" height="10" fill="#6C2863"/>
<rect x="300" y="30" width="10" height="10" fill="#6C2863"/>
<rect x="310" y="30" width="10" height="10" fill="#6C2863"/>
<path d="M320 30H330V35C330 37.7614 327.761 40 325 40H320V30Z" fill="#6C2863"/>
<path d="M220 5C220 2.23858 222.239 0 225 0H230V10H220V5Z" fill="#6C2863"/>
<rect x="220" y="10" width="10" height="10" fill="#6C2863"/>
<rect x="220" y="20" width="10" height="10" fill="#6C2863"/>
<rect x="220" y="30" width="10" height="10" fill="#6C2863"/>
<rect x="225" y="10" width="10" height="10" fill="#6C2863"/>
<rect x="240" width="10" height="10" fill="#6C2863"/>
<rect x="240" y="10" width="10" height="10" fill="#6C2863"/>
<rect x="240" y="20" width="10" height="10" fill="#6C2863"/>
<rect x="235" y="20" width="10" height="10" fill="#6C2863"/>
<path d="M240 30H250V35C250 37.7614 247.761 40 245 40H240V30Z" fill="#6C2863"/>
<path d="M380 5C380 2.23858 382.239 0 385 0H390V10H380V5Z" fill="#6C2863"/>
<rect x="380" y="10" width="10" height="10" fill="#6C2863"/>
<rect x="380" y="20" width="10" height="10" fill="#6C2863"/>
<rect x="380" y="30" width="10" height="10" fill="#6C2863"/>
<rect x="385" y="10" width="10" height="10" fill="#6C2863"/>
<rect x="400" width="10" height="10" fill="#6C2863"/>
<rect x="400" y="10" width="10" height="10" fill="#6C2863"/>
<rect x="400" y="20" width="10" height="10" fill="#6C2863"/>
<rect x="395" y="20" width="10" height="10" fill="#6C2863"/>
<path d="M400 30H410V35C410 37.7614 407.761 40 405 40H400V30Z" fill="#6C2863"/>
<rect x="180" width="10" height="10" fill="#6C2863"/>
<rect x="180" y="10" width="10" height="10" fill="#6C2863"/>
<path d="M180 20H190V30H185C182.239 30 180 27.7614 180 25V20Z" fill="#6C2863"/>
<rect x="190" y="14" width="10" height="10" fill="#6C2863"/>
<rect x="190" width="10" height="10" fill="#6C2863"/>
<path d="M200 0H205C207.761 0 210 2.23858 210 5V10H200V0Z" fill="#6C2863"/>
<rect x="190" y="30" width="10" height="10" fill="#6C2863"/>
<rect x="200" y="30" width="10" height="10" fill="#6C2863"/>
<rect x="140" width="10" height="10" fill="#6C2863"/>
<rect x="150" y="20" width="10" height="10" fill="#6C2863"/>
<rect x="160" y="30" width="10" height="10" fill="#6C2863"/>
<rect x="155" y="10" width="10" height="10" fill="#6C2863"/>
<path d="M160 0H165C167.761 0 170 2.23858 170 5V10H160V0Z" fill="#6C2863"/>
<rect x="140" y="20" width="10" height="10" fill="#6C2863"/>
<rect x="140" y="10" width="10" height="10" fill="#6C2863"/>
<path d="M140 30H150V40H145C142.239 40 140 37.7614 140 35V30Z" fill="#6C2863"/>
<path d="M0 5C0 2.23858 2.23858 0 5 0H10V10H0V5Z" fill="#6C2863"/>
<rect x="15" y="10" width="10" height="10" fill="#6C2863"/>
<rect x="10" y="20" width="10" height="10" fill="#6C2863"/>
<path d="M10 30H20V35C20 37.7614 17.7614 40 15 40H10V30Z" fill="#6C2863"/>
<rect x="5" y="10" width="10" height="10" fill="#6C2863"/>
<rect x="20" width="10" height="10" fill="#6C2863"/>
<rect x="80" width="10" height="10" fill="#6C2863"/>
<rect x="90" y="20" width="10" height="10" fill="#6C2863"/>
<rect x="100" y="30" width="10" height="10" fill="#6C2863"/>
<rect x="95" y="10" width="10" height="10" fill="#6C2863"/>
<path d="M100 0H105C107.761 0 110 2.23858 110 5V10H100V0Z" fill="#6C2863"/>
<rect x="80" y="20" width="10" height="10" fill="#6C2863"/>
<rect x="80" y="10" width="10" height="10" fill="#6C2863"/>
<path d="M80 30H90V40H85C82.2386 40 80 37.7614 80 35V30Z" fill="#6C2863"/>
<rect x="40" width="10" height="10" fill="#6C2863"/>
<rect x="40" y="10" width="10" height="10" fill="#6C2863"/>
<rect x="40" y="20" width="10" height="10" fill="#6C2863"/>
<rect x="50" y="30" width="10" height="10" fill="#6C2863"/>
<path d="M40 30H50V40H45C42.2386 40 40 37.7614 40 35V30Z" fill="#6C2863"/>
<rect x="60" y="20" width="10" height="10" fill="#6C2863"/>
<rect x="60" y="10" width="10" height="10" fill="#6C2863"/>
<path d="M60 0H65C67.7614 0 70 2.23858 70 5V10H60V0Z" fill="#6C2863"/>
<rect x="80" y="106" width="10" height="10" fill="#6C2863"/>
<rect x="80" y="96" width="10" height="10" fill="#6C2863"/>
<rect x="80" y="86" width="10" height="10" fill="#6C2863"/>
<rect x="80" y="76" width="10" height="10" fill="#6C2863"/>
<rect x="82" y="81" width="10" height="10" fill="#6C2863"/>
<rect x="100" y="76" width="10" height="10" fill="#6C2863"/>
<rect x="100" y="86" width="10" height="10" fill="#6C2863"/>
<rect x="100" y="86" width="10" height="10" fill="#6C2863"/>
<rect x="98" y="81" width="10" height="10" fill="#6C2863"/>
<rect x="96" y="86" width="10" height="10" fill="#6C2863"/>
<rect x="95" y="91" width="2" height="10" fill="#6C2863"/>
<rect x="93" y="91" width="2" height="10" fill="#6C2863"/>
<rect x="84" y="86" width="10" height="10" fill="#6C2863"/>
<rect x="100" y="96" width="10" height="10" fill="#6C2863"/>
<rect x="100" y="106" width="10" height="10" fill="#6C2863"/>
<rect x="10" y="76" width="10" height="10" fill="#6C2863"/>
<path d="M20 80H25C27.7614 80 30 82.2386 30 85V90H20V80Z" fill="#6C2863"/>
<rect y="80" width="10" height="10" fill="#6C2863"/>
<rect x="10" y="93" width="10" height="10" fill="#6C2863"/>
<path d="M0 90H10V100H0V90Z" fill="#6C2863"/>
<rect x="10" y="106" width="10" height="10" fill="#6C2863"/>
<rect x="20" y="101" width="10" height="10" fill="#6C2863"/>
<path d="M0 106H10V116H5C2.23858 116 0 113.761 0 111V106Z" fill="#6C2863"/>
<rect x="50" y="76" width="10" height="10" fill="#6C2863"/>
<path d="M40 91C40 88.2386 42.2386 86 45 86H50V96H40V91Z" fill="#6C2863"/>
<rect x="40" y="96" width="10" height="10" fill="#6C2863"/>
<rect x="40" y="106" width="10" height="10" fill="#6C2863"/>
<rect x="60" y="96" width="10" height="10" fill="#6C2863"/>
<rect x="50" y="96" width="10" height="10" fill="#6C2863"/>
<path d="M60 106H70V111C70 113.761 67.7614 116 65 116H60V106Z" fill="#6C2863"/>
<rect x="60" y="86" width="10" height="10" fill="#6C2863"/>
<rect x="131" y="76" width="10" height="10" fill="#6C2863"/>
<path d="M121 91C121 88.2386 123.239 86 126 86H131V96H121V91Z" fill="#6C2863"/>
<rect x="121" y="96" width="10" height="10" fill="#6C2863"/>
<rect x="121" y="106" width="10" height="10" fill="#6C2863"/>
<rect x="141" y="96" width="10" height="10" fill="#6C2863"/>
<rect x="131" y="96" width="10" height="10" fill="#6C2863"/>
<path d="M141 106H151V111C151 113.761 148.761 116 146 116H141V106Z" fill="#6C2863"/>
<rect x="141" y="86" width="10" height="10" fill="#6C2863"/>
<rect x="365" y="106" width="10" height="10" fill="#DBB072"/>
<rect x="365" y="86" width="10" height="10" fill="#DBB072"/>
<rect x="365" y="76" width="10" height="10" fill="#DBB072"/>
<rect x="380" y="106" width="10" height="10" fill="#DBB072"/>
<rect x="380" y="86" width="10" height="10" fill="#DBB072"/>
<rect x="380" y="76" width="10" height="10" fill="#DBB072"/>
<path d="M341 81C341 78.2386 343.239 76 346 76H351V86H341V81Z" fill="#6C2863"/>
<rect x="341" y="96" width="10" height="10" fill="#6C2863"/>
<rect x="341" y="86" width="10" height="10" fill="#6C2863"/>
<rect x="341" y="106" width="10" height="10" fill="#6C2863"/>
<rect x="301" y="76" width="10" height="10" fill="#6C2863"/>
<rect x="311" y="76" width="10" height="10" fill="#6C2863"/>
<rect x="321" y="76" width="10" height="10" fill="#6C2863"/>
<rect x="311" y="86" width="10" height="10" fill="#6C2863"/>
<rect x="311" y="96" width="10" height="10" fill="#6C2863"/>
<path d="M311 106H321V111C321 113.761 318.761 116 316 116H311V106Z" fill="#6C2863"/>
<path d="M261 106H271V116H266C263.239 116 261 113.761 261 111V106Z" fill="#6C2863"/>
<rect x="261" y="96" width="10" height="10" fill="#6C2863"/>
<rect x="261" y="86" width="10" height="10" fill="#6C2863"/>
<rect x="261" y="76" width="10" height="10" fill="#6C2863"/>
<rect x="276" y="86" width="10" height="10" fill="#6C2863"/>
<rect x="281" y="106" width="10" height="10" fill="#6C2863"/>
<rect x="271" y="96" width="10" height="10" fill="#6C2863"/>
<path d="M281 76H286C288.761 76 291 78.2386 291 81V86H281V76Z" fill="#6C2863"/>
<rect x="231" y="76" width="10" height="10" fill="#6C2863"/>
<rect x="231" y="96" width="10" height="10" fill="#6C2863"/>
<path d="M241 106H251V111C251 113.761 248.761 116 246 116H241V106Z" fill="#6C2863"/>
<rect x="241" y="86" width="10" height="10" fill="#6C2863"/>
<path d="M221 91C221 88.2386 223.239 86 226 86H231V96H221V91Z" fill="#6C2863"/>
<rect x="221" y="96" width="10" height="10" fill="#6C2863"/>
<rect x="221" y="106" width="10" height="10" fill="#6C2863"/>
<rect x="241" y="96" width="10" height="10" fill="#6C2863"/>
<path d="M201 106H211V111C211 113.761 208.761 116 206 116H201V106Z" fill="#6C2863"/>
<rect x="181" y="96" width="10" height="10" fill="#6C2863"/>
<rect x="181" y="86" width="10" height="10" fill="#6C2863"/>
<path d="M181 81C181 78.2386 183.239 76 186 76H191V86H181V81Z" fill="#6C2863"/>
<rect x="191" y="76" width="10" height="10" fill="#6C2863"/>
<rect x="191" y="106" width="10" height="10" fill="#6C2863"/>
<rect x="191" y="91" width="10" height="10" fill="#6C2863"/>
<rect x="201" y="98.5" width="10" height="10" fill="#6C2863"/>
<rect x="201" y="83.5" width="10" height="10" fill="#6C2863"/>
</svg>
