<svg width="36" height="36" viewBox="0 0 36 36" fill="none" xmlns="http://www.w3.org/2000/svg">
<path d="M36 18C36 27.9411 27.9411 36 18 36C8.05887 36 0 27.9411 0 18C0 8.05887 8.05887 0 18 0C27.9411 0 36 8.05887 36 18Z" fill="#6C2863"/>
<path d="M15 10.5V12.75" stroke="#FDF6FD" stroke-width="2" stroke-miterlimit="10" stroke-linecap="round" stroke-linejoin="round"/>
<path d="M21 10.5V12.75" stroke="#FDF6FD" stroke-width="2" stroke-miterlimit="10" stroke-linecap="round" stroke-linejoin="round"/>
<path d="M21 11.625C23.4975 11.76 24.75 12.7125 24.75 16.2375V20.8725C24.75 23.9625 24 25.5075 20.25 25.5075H15.75C12 25.5075 11.25 23.9625 11.25 20.8725V16.2375C11.25 12.7125 12.5025 11.7675 15 11.625H21Z" stroke="#FDF6FD" stroke-width="2" stroke-miterlimit="10" stroke-linecap="round" stroke-linejoin="round"/>
<path d="M24.5625 22.2002H11.4375" stroke="#FDF6FD" stroke-width="2" stroke-miterlimit="10" stroke-linecap="round" stroke-linejoin="round"/>
<path d="M18 15.1875C17.0775 15.1875 16.2975 15.69 16.2975 16.665C16.2975 17.13 16.515 17.4825 16.845 17.7075C16.3875 17.9775 16.125 18.4125 16.125 18.9225C16.125 19.8525 16.8375 20.43 18 20.43C19.155 20.43 19.875 19.8525 19.875 18.9225C19.875 18.4125 19.6125 17.97 19.1475 17.7075C19.485 17.475 19.695 17.13 19.695 16.665C19.695 15.69 18.9225 15.1875 18 15.1875ZM18 17.3175C17.61 17.3175 17.325 17.085 17.325 16.7175C17.325 16.3425 17.61 16.125 18 16.125C18.39 16.125 18.675 16.3425 18.675 16.7175C18.675 17.085 18.39 17.3175 18 17.3175ZM18 19.5C17.505 19.5 17.145 19.2525 17.145 18.8025C17.145 18.3525 17.505 18.1125 18 18.1125C18.495 18.1125 18.855 18.36 18.855 18.8025C18.855 19.2525 18.495 19.5 18 19.5Z" fill="#FDF6FD"/>
</svg>
