<svg width="356" height="256" viewBox="0 0 356 256" fill="none" xmlns="http://www.w3.org/2000/svg">
<g filter="url(#filter0_d_575_1523)">
<rect x="4" width="348" height="247.138" rx="15" fill="#FDF6FD" shape-rendering="crispEdges"/>
<rect x="23.0106" y="19.0107" width="309.979" height="209.117" rx="7.92109" fill="#FBEBFC" stroke="#6C2863" stroke-width="0.792109" stroke-linecap="round" stroke-dasharray="2.11 2.11"/>
<circle cx="89.2838" cy="90.0364" r="8.7132" fill="#6C2863"/>
<path d="M155.547 38.9214H153.057L152.658 40.1001H150.956L153.371 33.4274H155.253L157.667 40.1001H155.947L155.547 38.9214ZM155.129 37.6667L154.302 35.2239L153.485 37.6667H155.129ZM160.417 34.7201C160.791 34.7201 161.117 34.7961 161.396 34.9482C161.681 35.1003 161.9 35.2999 162.052 35.5471V34.7961H163.677V40.0906C163.677 40.5785 163.579 41.0189 163.383 41.4118C163.193 41.8111 162.898 42.1279 162.499 42.3624C162.106 42.5968 161.615 42.7141 161.025 42.7141C160.24 42.7141 159.603 42.5271 159.115 42.1532C158.627 41.7857 158.348 41.2851 158.278 40.6514H159.885C159.935 40.8542 160.056 41.0126 160.246 41.1267C160.436 41.2471 160.67 41.3073 160.949 41.3073C161.285 41.3073 161.551 41.2091 161.748 41.0126C161.95 40.8225 162.052 40.5152 162.052 40.0906V39.3397C161.893 39.5868 161.675 39.7896 161.396 39.948C161.117 40.1001 160.791 40.1761 160.417 40.1761C159.98 40.1761 159.584 40.0652 159.229 39.8435C158.874 39.6153 158.592 39.2953 158.383 38.8834C158.18 38.4652 158.079 37.9836 158.079 37.4386C158.079 36.8936 158.18 36.4152 158.383 36.0033C158.592 35.5914 158.874 35.2746 159.229 35.0528C159.584 34.831 159.98 34.7201 160.417 34.7201ZM162.052 37.4481C162.052 37.0426 161.938 36.7225 161.71 36.4881C161.488 36.2536 161.215 36.1364 160.892 36.1364C160.569 36.1364 160.293 36.2536 160.065 36.4881C159.843 36.7162 159.733 37.0331 159.733 37.4386C159.733 37.8442 159.843 38.1674 160.065 38.4082C160.293 38.6426 160.569 38.7598 160.892 38.7598C161.215 38.7598 161.488 38.6426 161.71 38.4082C161.938 38.1737 162.052 37.8537 162.052 37.4481ZM170.091 34.7961V40.1001H168.465V39.3777C168.3 39.6122 168.075 39.8023 167.79 39.948C167.512 40.0874 167.201 40.1571 166.859 40.1571C166.453 40.1571 166.095 40.0684 165.785 39.891C165.474 39.7072 165.233 39.4442 165.062 39.102C164.891 38.7598 164.806 38.3575 164.806 37.8949V34.7961H166.422V37.6762C166.422 38.0311 166.513 38.3068 166.697 38.5032C166.881 38.6996 167.128 38.7979 167.439 38.7979C167.755 38.7979 168.006 38.6996 168.19 38.5032C168.373 38.3068 168.465 38.0311 168.465 37.6762V34.7961H170.091ZM173.416 40.1761C172.953 40.1761 172.541 40.0969 172.18 39.9385C171.819 39.7801 171.534 39.5646 171.325 39.2921C171.116 39.0133 170.998 38.7028 170.973 38.3606H172.579C172.598 38.5444 172.684 38.6933 172.836 38.8074C172.988 38.9214 173.175 38.9785 173.397 38.9785C173.6 38.9785 173.755 38.9404 173.863 38.8644C173.977 38.782 174.034 38.6775 174.034 38.5507C174.034 38.3986 173.954 38.2878 173.796 38.218C173.638 38.142 173.381 38.0596 173.026 37.9709C172.646 37.8822 172.329 37.7903 172.076 37.6953C171.822 37.5939 171.604 37.4386 171.42 37.2295C171.236 37.014 171.144 36.7257 171.144 36.3645C171.144 36.0603 171.226 35.7847 171.391 35.5375C171.562 35.2841 171.809 35.0845 172.133 34.9387C172.462 34.793 172.852 34.7201 173.302 34.7201C173.967 34.7201 174.49 34.8849 174.87 35.2144C175.257 35.5439 175.479 35.9811 175.536 36.5261H174.034C174.008 36.3423 173.926 36.1966 173.787 36.0889C173.653 35.9811 173.476 35.9273 173.254 35.9273C173.064 35.9273 172.918 35.9653 172.817 36.0413C172.716 36.111 172.665 36.2093 172.665 36.336C172.665 36.4881 172.744 36.6021 172.903 36.6782C173.067 36.7542 173.321 36.8303 173.663 36.9063C174.056 37.0077 174.376 37.1091 174.623 37.2105C174.87 37.3055 175.086 37.464 175.269 37.6857C175.459 37.9012 175.558 38.1927 175.564 38.5602C175.564 38.8707 175.475 39.1496 175.298 39.3967C175.127 39.6375 174.876 39.8276 174.547 39.967C174.224 40.1064 173.847 40.1761 173.416 40.1761ZM179.515 38.7218V40.1001H178.688C178.098 40.1001 177.639 39.9575 177.309 39.6724C176.98 39.3809 176.815 38.9088 176.815 38.2561V36.1459H176.169V34.7961H176.815V33.5034H178.441V34.7961H179.505V36.1459H178.441V38.2751C178.441 38.4335 178.479 38.5476 178.555 38.6173C178.631 38.687 178.757 38.7218 178.935 38.7218H179.515ZM185.657 34.7961V40.1001H184.032V39.3777C183.867 39.6122 183.642 39.8023 183.357 39.948C183.078 40.0874 182.768 40.1571 182.426 40.1571C182.02 40.1571 181.662 40.0684 181.352 39.891C181.041 39.7072 180.8 39.4442 180.629 39.102C180.458 38.7598 180.372 38.3575 180.372 37.8949V34.7961H181.988V37.6762C181.988 38.0311 182.08 38.3068 182.264 38.5032C182.448 38.6996 182.695 38.7979 183.005 38.7979C183.322 38.7979 183.573 38.6996 183.756 38.5032C183.94 38.3068 184.032 38.0311 184.032 37.6762V34.7961H185.657ZM188.983 40.1761C188.52 40.1761 188.108 40.0969 187.747 39.9385C187.386 39.7801 187.101 39.5646 186.891 39.2921C186.682 39.0133 186.565 38.7028 186.54 38.3606H188.146C188.165 38.5444 188.251 38.6933 188.403 38.8074C188.555 38.9214 188.742 38.9785 188.964 38.9785C189.166 38.9785 189.322 38.9404 189.429 38.8644C189.543 38.782 189.6 38.6775 189.6 38.5507C189.6 38.3986 189.521 38.2878 189.363 38.218C189.204 38.142 188.948 38.0596 188.593 37.9709C188.213 37.8822 187.896 37.7903 187.642 37.6953C187.389 37.5939 187.17 37.4386 186.987 37.2295C186.803 37.014 186.711 36.7257 186.711 36.3645C186.711 36.0603 186.793 35.7847 186.958 35.5375C187.129 35.2841 187.376 35.0845 187.699 34.9387C188.029 34.793 188.419 34.7201 188.869 34.7201C189.534 34.7201 190.057 34.8849 190.437 35.2144C190.824 35.5439 191.045 35.9811 191.102 36.5261H189.6C189.575 36.3423 189.493 36.1966 189.353 36.0889C189.22 35.9811 189.043 35.9273 188.821 35.9273C188.631 35.9273 188.485 35.9653 188.384 36.0413C188.282 36.111 188.232 36.2093 188.232 36.336C188.232 36.4881 188.311 36.6021 188.469 36.6782C188.634 36.7542 188.888 36.8303 189.23 36.9063C189.623 37.0077 189.943 37.1091 190.19 37.2105C190.437 37.3055 190.652 37.464 190.836 37.6857C191.026 37.9012 191.125 38.1927 191.131 38.5602C191.131 38.8707 191.042 39.1496 190.865 39.3967C190.694 39.6375 190.443 39.8276 190.114 39.967C189.791 40.1064 189.414 40.1761 188.983 40.1761ZM193.921 38.7979C194.136 38.6268 194.235 38.5476 194.216 38.5602C194.837 38.047 195.325 37.6255 195.679 37.296C196.041 36.9665 196.345 36.6212 196.592 36.26C196.839 35.8987 196.963 35.5471 196.963 35.2049C196.963 34.9451 196.902 34.7423 196.782 34.5965C196.662 34.4508 196.481 34.3779 196.24 34.3779C195.999 34.3779 195.809 34.4698 195.67 34.6536C195.537 34.831 195.47 35.0845 195.47 35.414H193.902C193.915 34.8753 194.029 34.4254 194.244 34.0642C194.466 33.703 194.754 33.4369 195.109 33.2658C195.47 33.0947 195.87 33.0091 196.307 33.0091C197.061 33.0091 197.628 33.2024 198.008 33.589C198.395 33.9755 198.588 34.4793 198.588 35.1003C198.588 35.7783 198.357 36.4089 197.894 36.9919C197.432 37.5685 196.842 38.1325 196.126 38.6838H198.693V40.005H193.921V38.7979ZM199.408 36.5356C199.408 35.4457 199.617 34.587 200.036 33.9597C200.46 33.3323 201.141 33.0186 202.079 33.0186C203.017 33.0186 203.695 33.3323 204.113 33.9597C204.538 34.587 204.75 35.4457 204.75 36.5356C204.75 37.6382 204.538 38.5032 204.113 39.1306C203.695 39.7579 203.017 40.0716 202.079 40.0716C201.141 40.0716 200.46 39.7579 200.036 39.1306C199.617 38.5032 199.408 37.6382 199.408 36.5356ZM203.153 36.5356C203.153 35.8956 203.084 35.4045 202.944 35.0623C202.805 34.7138 202.517 34.5395 202.079 34.5395C201.642 34.5395 201.354 34.7138 201.214 35.0623C201.075 35.4045 201.005 35.8956 201.005 36.5356C201.005 36.9665 201.031 37.3245 201.081 37.6097C201.132 37.8885 201.233 38.1167 201.385 38.2941C201.544 38.4652 201.775 38.5507 202.079 38.5507C202.383 38.5507 202.612 38.4652 202.764 38.2941C202.922 38.1167 203.027 37.8885 203.077 37.6097C203.128 37.3245 203.153 36.9665 203.153 36.5356ZM205.552 38.7979C205.767 38.6268 205.866 38.5476 205.847 38.5602C206.468 38.047 206.956 37.6255 207.31 37.296C207.672 36.9665 207.976 36.6212 208.223 36.26C208.47 35.8987 208.594 35.5471 208.594 35.2049C208.594 34.9451 208.533 34.7423 208.413 34.5965C208.293 34.4508 208.112 34.3779 207.871 34.3779C207.63 34.3779 207.44 34.4698 207.301 34.6536C207.168 34.831 207.101 35.0845 207.101 35.414H205.533C205.546 34.8753 205.66 34.4254 205.875 34.0642C206.097 33.703 206.385 33.4369 206.74 33.2658C207.101 33.0947 207.501 33.0091 207.938 33.0091C208.692 33.0091 209.259 33.2024 209.639 33.589C210.026 33.9755 210.219 34.4793 210.219 35.1003C210.219 35.7783 209.988 36.4089 209.525 36.9919C209.063 37.5685 208.473 38.1325 207.757 38.6838H210.324V40.005H205.552V38.7979ZM211.096 35.1193C211.122 34.4413 211.343 33.9185 211.762 33.5509C212.18 33.1834 212.747 32.9996 213.463 32.9996C213.938 32.9996 214.344 33.082 214.68 33.2468C215.022 33.4115 215.279 33.6365 215.45 33.9216C215.627 34.2068 215.716 34.5268 215.716 34.8817C215.716 35.2999 215.611 35.6421 215.402 35.9083C215.193 36.1681 214.949 36.3455 214.67 36.4406V36.4786C215.032 36.599 215.317 36.7986 215.526 37.0774C215.735 37.3562 215.839 37.7143 215.839 38.1515C215.839 38.5444 215.748 38.8929 215.564 39.1971C215.386 39.4949 215.123 39.7294 214.775 39.9005C214.433 40.0716 214.024 40.1571 213.549 40.1571C212.788 40.1571 212.18 39.9702 211.724 39.5963C211.274 39.2224 211.036 38.6585 211.011 37.9044H212.589C212.595 38.1832 212.674 38.405 212.826 38.5697C212.978 38.7282 213.2 38.8074 213.492 38.8074C213.739 38.8074 213.929 38.7377 214.062 38.5983C214.201 38.4525 214.271 38.2624 214.271 38.0279C214.271 37.7238 214.173 37.5051 213.976 37.3721C213.786 37.2327 213.479 37.163 213.054 37.163H212.75V35.8417H213.054C213.378 35.8417 213.637 35.7879 213.834 35.6801C214.037 35.5661 214.138 35.3665 214.138 35.0813C214.138 34.8532 214.075 34.6757 213.948 34.549C213.821 34.4223 213.647 34.3589 213.425 34.3589C213.184 34.3589 213.004 34.4318 212.883 34.5775C212.769 34.7233 212.703 34.9039 212.684 35.1193H211.096Z" fill="#6C2863"/>
<path d="M43.0774 32.2124L39.909 35.6449L43.0774 39.0773" stroke="#6C2863" stroke-width="1.05615" stroke-linecap="round" stroke-linejoin="round"/>
<path d="M306.586 39.0771L309.754 35.6447L306.586 32.2122" stroke="#6C2863" stroke-width="1.05615" stroke-linecap="round" stroke-linejoin="round"/>
<path d="M263.647 63.402C263.159 63.402 262.722 63.3228 262.335 63.1644C261.949 63.0059 261.638 62.7715 261.404 62.461C261.176 62.1505 261.055 61.7766 261.043 61.3393H262.773C262.798 61.5865 262.884 61.7766 263.029 61.9097C263.175 62.0364 263.365 62.0998 263.6 62.0998C263.84 62.0998 264.03 62.0459 264.17 61.9382C264.309 61.8241 264.379 61.6689 264.379 61.4724C264.379 61.3076 264.322 61.1714 264.208 61.0637C264.1 60.956 263.964 60.8672 263.799 60.7975C263.641 60.7278 263.413 60.6486 263.115 60.5599C262.684 60.4268 262.332 60.2937 262.06 60.1607C261.787 60.0276 261.553 59.8312 261.356 59.5713C261.16 59.3115 261.062 58.9725 261.062 58.5543C261.062 57.9333 261.287 57.4485 261.737 57.1C262.186 56.7451 262.773 56.5677 263.495 56.5677C264.23 56.5677 264.823 56.7451 265.273 57.1C265.722 57.4485 265.963 57.9364 265.995 58.5638H264.236C264.224 58.3483 264.145 58.1804 263.999 58.06C263.853 57.9333 263.666 57.8699 263.438 57.8699C263.242 57.8699 263.083 57.9238 262.963 58.0315C262.842 58.1329 262.782 58.2818 262.782 58.4782C262.782 58.6937 262.884 58.8616 263.086 58.982C263.289 59.1024 263.606 59.2323 264.037 59.3717C264.468 59.5175 264.816 59.6569 265.082 59.79C265.355 59.923 265.589 60.1163 265.786 60.3698C265.982 60.6233 266.08 60.9496 266.08 61.3488C266.08 61.7291 265.982 62.0744 265.786 62.3849C265.596 62.6954 265.317 62.9426 264.949 63.1263C264.582 63.3101 264.148 63.402 263.647 63.402Z" fill="#6C2863"/>
<path d="M311.035 56.6627V63.3354H309.41V59.3337L307.917 63.3354H306.606L305.104 59.3242V63.3354H303.478V56.6627H305.399L307.271 61.2823L309.125 56.6627H311.035Z" fill="#6C2863"/>
<path d="M178.497 63.3354L176.254 60.3888V63.3354H174.629V56.6627H176.254V59.5904L178.478 56.6627H180.389L177.804 59.9325L180.484 63.3354H178.497Z" fill="#6C2863"/>
<path d="M222.113 56.6627V61.2063C222.113 61.9097 221.913 62.4515 221.514 62.8317C221.121 63.2119 220.589 63.402 219.917 63.402C219.214 63.402 218.65 63.2024 218.225 62.8032C217.801 62.4039 217.589 61.8368 217.589 61.1017H219.204C219.204 61.3805 219.262 61.5928 219.376 61.7386C219.49 61.878 219.654 61.9477 219.87 61.9477C220.066 61.9477 220.218 61.8843 220.326 61.7576C220.434 61.6308 220.488 61.4471 220.488 61.2063V56.6627H222.113Z" fill="#6C2863"/>
<path d="M47.1372 63.402C46.6493 63.402 46.212 63.3228 45.8255 63.1644C45.4389 63.0059 45.1284 62.7715 44.894 62.461C44.6658 62.1505 44.5454 61.7766 44.5328 61.3393H46.2627C46.2881 61.5865 46.3736 61.7766 46.5194 61.9097C46.6651 62.0364 46.8552 62.0998 47.0897 62.0998C47.3305 62.0998 47.5206 62.0459 47.66 61.9382C47.7994 61.8241 47.8691 61.6689 47.8691 61.4724C47.8691 61.3076 47.8121 61.1714 47.698 61.0637C47.5903 60.956 47.4541 60.8672 47.2893 60.7975C47.1309 60.7278 46.9028 60.6486 46.6049 60.5599C46.174 60.4268 45.8223 60.2937 45.5498 60.1607C45.2774 60.0276 45.0429 59.8312 44.8464 59.5713C44.65 59.3115 44.5518 58.9725 44.5518 58.5543C44.5518 57.9333 44.7767 57.4485 45.2267 57.1C45.6766 56.7451 46.2627 56.5677 46.9851 56.5677C47.7202 56.5677 48.3127 56.7451 48.7626 57.1C49.2125 57.4485 49.4534 57.9364 49.485 58.5638H47.7266C47.7139 58.3483 47.6347 58.1804 47.4889 58.06C47.3432 57.9333 47.1562 57.8699 46.9281 57.8699C46.7317 57.8699 46.5732 57.9238 46.4528 58.0315C46.3324 58.1329 46.2722 58.2818 46.2722 58.4782C46.2722 58.6937 46.3736 58.8616 46.5764 58.982C46.7792 59.1024 47.096 59.2323 47.5269 59.3717C47.9578 59.5175 48.3064 59.6569 48.5725 59.79C48.845 59.923 49.0795 60.1163 49.2759 60.3698C49.4724 60.6233 49.5706 60.9496 49.5706 61.3488C49.5706 61.7291 49.4724 62.0744 49.2759 62.3849C49.0858 62.6954 48.807 62.9426 48.4395 63.1263C48.0719 63.3101 47.6378 63.402 47.1372 63.402Z" fill="#6C2863"/>
<path d="M90.4392 63.402C89.9512 63.402 89.514 63.3228 89.1274 63.1644C88.7409 63.0059 88.4304 62.7715 88.1959 62.461C87.9678 62.1505 87.8474 61.7766 87.8347 61.3393H89.5647C89.59 61.5865 89.6756 61.7766 89.8213 61.9097C89.9671 62.0364 90.1572 62.0998 90.3916 62.0998C90.6324 62.0998 90.8225 62.0459 90.962 61.9382C91.1014 61.8241 91.1711 61.6689 91.1711 61.4724C91.1711 61.3076 91.114 61.1714 91 61.0637C90.8923 60.956 90.756 60.8672 90.5912 60.7975C90.4328 60.7278 90.2047 60.6486 89.9069 60.5599C89.476 60.4268 89.1243 60.2937 88.8518 60.1607C88.5793 60.0276 88.3448 59.8312 88.1484 59.5713C87.9519 59.3115 87.8537 58.9725 87.8537 58.5543C87.8537 57.9333 88.0787 57.4485 88.5286 57.1C88.9785 56.7451 89.5647 56.5677 90.2871 56.5677C91.0222 56.5677 91.6147 56.7451 92.0646 57.1C92.5145 57.4485 92.7553 57.9364 92.787 58.5638H91.0285C91.0158 58.3483 90.9366 58.1804 90.7909 58.06C90.6451 57.9333 90.4582 57.8699 90.23 57.8699C90.0336 57.8699 89.8752 57.9238 89.7548 58.0315C89.6344 58.1329 89.5742 58.2818 89.5742 58.4782C89.5742 58.6937 89.6756 58.8616 89.8784 58.982C90.0811 59.1024 90.398 59.2323 90.8289 59.3717C91.2598 59.5175 91.6083 59.6569 91.8745 59.79C92.147 59.923 92.3814 60.1163 92.5779 60.3698C92.7743 60.6233 92.8725 60.9496 92.8725 61.3488C92.8725 61.7291 92.7743 62.0744 92.5779 62.3849C92.3878 62.6954 92.1089 62.9426 91.7414 63.1263C91.3739 63.3101 90.9398 63.402 90.4392 63.402Z" fill="#6C2863"/>
<path d="M87.6921 87.4797V85.9683H90.3251V92.9072H88.6332V87.4797H87.6921Z" fill="#FBEBFC"/>
<path d="M44.3902 87.4797V85.9683H47.0232V92.9072H45.3312V87.4797H44.3902Z" fill="#FBEBFC"/>
<path d="M134.73 63.3354L133.342 60.8165H132.952V63.3354H131.327V56.6627H134.055C134.581 56.6627 135.027 56.7546 135.395 56.9384C135.769 57.1221 136.048 57.3756 136.231 57.6988C136.415 58.0156 136.507 58.3705 136.507 58.7634C136.507 59.207 136.38 59.603 136.127 59.9516C135.88 60.3001 135.512 60.5472 135.024 60.693L136.564 63.3354H134.73ZM132.952 59.6664H133.96C134.258 59.6664 134.479 59.5935 134.625 59.4478C134.777 59.302 134.853 59.0961 134.853 58.8299C134.853 58.5765 134.777 58.3768 134.625 58.2311C134.479 58.0853 134.258 58.0125 133.96 58.0125H132.952V59.6664Z" fill="#6C2863"/>
<path d="M131.222 92.2133C132.027 91.567 132.657 91.0378 133.114 90.626C133.57 90.2077 133.953 89.7736 134.264 89.3237C134.581 88.8675 134.739 88.4207 134.739 87.9835C134.739 87.5716 134.638 87.2484 134.435 87.0139C134.239 86.7731 133.919 86.6527 133.475 86.6527C133.044 86.6527 132.708 86.789 132.467 87.0615C132.233 87.3276 132.106 87.6856 132.087 88.1356H131.251C131.276 87.4258 131.492 86.8777 131.897 86.4911C132.303 86.1046 132.825 85.9113 133.465 85.9113C134.118 85.9113 134.635 86.0919 135.015 86.4531C135.401 86.8143 135.595 87.3118 135.595 87.9455C135.595 88.4714 135.436 88.9847 135.119 89.4853C134.809 89.9796 134.454 90.4168 134.055 90.797C133.656 91.1709 133.145 91.6082 132.524 92.1088H135.794V92.8312H131.222V92.2133Z" fill="black"/>
<path d="M174.61 87.7649C174.654 87.1819 174.879 86.7256 175.285 86.3961C175.69 86.0666 176.216 85.9018 176.863 85.9018C177.293 85.9018 177.664 85.981 177.975 86.1394C178.291 86.2915 178.529 86.5006 178.688 86.7668C178.852 87.0329 178.935 87.3339 178.935 87.6698C178.935 88.0627 178.821 88.4017 178.592 88.6869C178.371 88.972 178.079 89.1558 177.718 89.2382V89.2857C178.13 89.3871 178.456 89.5867 178.697 89.8845C178.938 90.1824 179.058 90.5721 179.058 91.0537C179.058 91.4149 178.976 91.7412 178.811 92.0327C178.646 92.3179 178.399 92.5429 178.07 92.7076C177.74 92.8724 177.344 92.9548 176.882 92.9548C176.21 92.9548 175.659 92.7805 175.228 92.432C174.797 92.0771 174.556 91.5765 174.505 90.9301H175.342C175.386 91.3103 175.541 91.6208 175.807 91.8616C176.074 92.1024 176.428 92.2228 176.872 92.2228C177.316 92.2228 177.651 92.1088 177.88 91.8807C178.114 91.6462 178.231 91.3452 178.231 90.9776C178.231 90.5024 178.073 90.1602 177.756 89.9511C177.439 89.742 176.961 89.6374 176.321 89.6374H176.102V88.915H176.33C176.913 88.9087 177.354 88.8136 177.651 88.6298C177.949 88.4397 178.098 88.1482 178.098 87.7553C178.098 87.4195 177.987 87.1502 177.766 86.9474C177.55 86.7446 177.24 86.6432 176.834 86.6432C176.441 86.6432 176.124 86.7446 175.883 86.9474C175.643 87.1502 175.5 87.4227 175.456 87.7649H174.61Z" fill="black"/>
<path d="M217.722 91.3769V90.721L221.058 86.1014H222.094V90.626H223.045V91.3769H222.094V92.9072H221.239V91.3769H217.722ZM221.277 87.0044L218.72 90.626H221.277V87.0044Z" fill="black"/>
<path d="M265.615 86.7858H262.278V88.953C262.424 88.7502 262.64 88.5855 262.925 88.4587C263.21 88.3257 263.517 88.2591 263.847 88.2591C264.373 88.2591 264.8 88.37 265.13 88.5918C265.459 88.8073 265.694 89.0893 265.833 89.4378C265.979 89.78 266.052 90.1443 266.052 90.5309C266.052 90.9872 265.966 91.3959 265.795 91.7571C265.624 92.1183 265.361 92.4034 265.006 92.6126C264.658 92.8217 264.224 92.9262 263.704 92.9262C263.039 92.9262 262.5 92.7551 262.088 92.413C261.676 92.0708 261.426 91.6145 261.337 91.0442H262.183C262.266 91.4054 262.44 91.6874 262.706 91.8902C262.972 92.0929 263.308 92.1943 263.714 92.1943C264.214 92.1943 264.591 92.0454 264.845 91.7476C265.098 91.4434 265.225 91.0442 265.225 90.5499C265.225 90.0556 265.098 89.6754 264.845 89.4093C264.591 89.1368 264.217 89.0005 263.723 89.0005C263.387 89.0005 263.093 89.0829 262.839 89.2477C262.592 89.4061 262.411 89.6247 262.297 89.9035H261.48V86.0254H265.615V86.7858Z" fill="black"/>
<path d="M308.365 87.6698C308.226 86.9664 307.792 86.6147 307.063 86.6147C306.499 86.6147 306.078 86.8333 305.799 87.2706C305.52 87.7015 305.384 88.4144 305.39 89.4093C305.536 89.0798 305.777 88.8231 306.113 88.6393C306.455 88.4492 306.835 88.3542 307.253 88.3542C307.906 88.3542 308.425 88.557 308.812 88.9625C309.205 89.3681 309.401 89.9289 309.401 90.645C309.401 91.0759 309.316 91.4624 309.145 91.8046C308.98 92.1468 308.726 92.4193 308.384 92.6221C308.048 92.8248 307.64 92.9262 307.158 92.9262C306.505 92.9262 305.995 92.7805 305.628 92.489C305.26 92.1975 305.004 91.7951 304.858 91.2818C304.712 90.7685 304.639 90.1348 304.639 89.3808C304.639 87.0551 305.45 85.8923 307.073 85.8923C307.694 85.8923 308.182 86.0602 308.536 86.3961C308.891 86.7319 309.1 87.1565 309.164 87.6698H308.365ZM307.073 89.0861C306.8 89.0861 306.543 89.1431 306.303 89.2572C306.062 89.3649 305.865 89.5328 305.713 89.761C305.568 89.9828 305.495 90.2552 305.495 90.5784C305.495 91.06 305.634 91.4529 305.913 91.7571C306.192 92.0549 306.591 92.2038 307.111 92.2038C307.554 92.2038 307.906 92.0676 308.166 91.7951C308.432 91.5163 308.565 91.1424 308.565 90.6735C308.565 90.1792 308.438 89.7927 308.185 89.5138C307.931 89.2287 307.56 89.0861 307.073 89.0861Z" fill="black"/>
<path d="M85.1564 145.968V145.179H86.9434V152.052H86.0689V145.968H85.1564ZM92.8111 145.93H89.4747V148.098C89.6205 147.895 89.836 147.73 90.1211 147.603C90.4063 147.47 90.7136 147.404 91.0431 147.404C91.5691 147.404 91.9968 147.515 92.3263 147.736C92.6559 147.952 92.8903 148.234 93.0297 148.582C93.1755 148.925 93.2484 149.289 93.2484 149.675C93.2484 150.132 93.1628 150.54 92.9917 150.902C92.8206 151.263 92.5576 151.548 92.2028 151.757C91.8542 151.966 91.4202 152.071 90.9005 152.071C90.2352 152.071 89.6965 151.9 89.2846 151.557C88.8727 151.215 88.6224 150.759 88.5337 150.189H89.3797C89.4621 150.55 89.6363 150.832 89.9025 151.035C90.1686 151.237 90.5045 151.339 90.9101 151.339C91.4107 151.339 91.7877 151.19 92.0412 150.892C92.2947 150.588 92.4214 150.189 92.4214 149.694C92.4214 149.2 92.2947 148.82 92.0412 148.554C91.7877 148.281 91.4138 148.145 90.9196 148.145C90.5837 148.145 90.289 148.227 90.0356 148.392C89.7884 148.551 89.6078 148.769 89.4938 149.048H88.6763V145.17H92.8111V145.93Z" fill="black"/>
<path d="M128.458 145.968V145.179H130.245V152.052H129.371V145.968H128.458ZM135.562 146.814C135.422 146.111 134.988 145.759 134.26 145.759C133.696 145.759 133.274 145.978 132.995 146.415C132.717 146.846 132.58 147.559 132.587 148.554C132.732 148.224 132.973 147.968 133.309 147.784C133.651 147.594 134.031 147.499 134.45 147.499C135.102 147.499 135.622 147.701 136.009 148.107C136.401 148.513 136.598 149.073 136.598 149.789C136.598 150.22 136.512 150.607 136.341 150.949C136.176 151.291 135.923 151.564 135.581 151.767C135.245 151.969 134.836 152.071 134.355 152.071C133.702 152.071 133.192 151.925 132.824 151.634C132.457 151.342 132.2 150.94 132.054 150.426C131.909 149.913 131.836 149.279 131.836 148.525C131.836 146.2 132.647 145.037 134.269 145.037C134.89 145.037 135.378 145.205 135.733 145.541C136.088 145.876 136.297 146.301 136.36 146.814H135.562ZM134.269 148.231C133.997 148.231 133.74 148.288 133.499 148.402C133.258 148.509 133.062 148.677 132.91 148.905C132.764 149.127 132.691 149.4 132.691 149.723C132.691 150.205 132.831 150.597 133.109 150.902C133.388 151.199 133.787 151.348 134.307 151.348C134.751 151.348 135.102 151.212 135.362 150.94C135.628 150.661 135.761 150.287 135.761 149.818C135.761 149.324 135.635 148.937 135.381 148.658C135.128 148.373 134.757 148.231 134.269 148.231Z" fill="black"/>
<path d="M171.76 145.968V145.179H173.547V152.052H172.673V145.968H171.76ZM179.263 145.854L176.62 152.052H175.746L178.426 145.94H174.757V145.198H179.263V145.854Z" fill="black"/>
<path d="M215.062 145.968V145.179H216.849V152.052H215.975V145.968H215.062ZM219.59 148.478C219.235 148.338 218.962 148.136 218.772 147.869C218.582 147.603 218.487 147.28 218.487 146.9C218.487 146.558 218.573 146.25 218.744 145.978C218.915 145.699 219.168 145.48 219.504 145.322C219.846 145.157 220.258 145.075 220.74 145.075C221.221 145.075 221.63 145.157 221.966 145.322C222.308 145.48 222.565 145.699 222.736 145.978C222.913 146.25 223.002 146.558 223.002 146.9C223.002 147.267 222.904 147.591 222.707 147.869C222.511 148.142 222.242 148.345 221.9 148.478C222.292 148.598 222.603 148.81 222.831 149.115C223.066 149.412 223.183 149.774 223.183 150.198C223.183 150.61 223.081 150.971 222.879 151.282C222.676 151.586 222.387 151.824 222.014 151.995C221.646 152.159 221.221 152.242 220.74 152.242C220.258 152.242 219.834 152.159 219.466 151.995C219.105 151.824 218.823 151.586 218.62 151.282C218.417 150.971 218.316 150.61 218.316 150.198C218.316 149.774 218.43 149.409 218.658 149.105C218.886 148.801 219.197 148.592 219.59 148.478ZM222.166 147.004C222.166 146.618 222.039 146.32 221.785 146.111C221.532 145.902 221.183 145.797 220.74 145.797C220.303 145.797 219.957 145.902 219.704 146.111C219.45 146.32 219.324 146.621 219.324 147.014C219.324 147.369 219.454 147.654 219.713 147.869C219.979 148.085 220.322 148.193 220.74 148.193C221.164 148.193 221.507 148.085 221.766 147.869C222.033 147.648 222.166 147.359 222.166 147.004ZM220.74 148.858C220.271 148.858 219.888 148.969 219.59 149.191C219.292 149.406 219.143 149.732 219.143 150.17C219.143 150.575 219.286 150.902 219.571 151.149C219.862 151.396 220.252 151.519 220.74 151.519C221.228 151.519 221.614 151.396 221.9 151.149C222.185 150.902 222.327 150.575 222.327 150.17C222.327 149.745 222.182 149.422 221.89 149.2C221.599 148.972 221.215 148.858 220.74 148.858Z" fill="black"/>
<path d="M258.364 145.968V145.179H260.151V152.052H259.277V145.968H258.364ZM262.749 150.208C262.813 150.569 262.958 150.848 263.186 151.044C263.421 151.241 263.735 151.339 264.127 151.339C264.653 151.339 265.04 151.133 265.287 150.721C265.541 150.309 265.661 149.615 265.648 148.639C265.515 148.925 265.293 149.149 264.983 149.314C264.672 149.473 264.327 149.552 263.947 149.552C263.522 149.552 263.142 149.466 262.806 149.295C262.477 149.118 262.217 148.861 262.027 148.525C261.837 148.189 261.742 147.784 261.742 147.309C261.742 146.631 261.938 146.086 262.331 145.674C262.724 145.255 263.281 145.046 264.004 145.046C264.891 145.046 265.512 145.335 265.867 145.911C266.228 146.488 266.409 147.347 266.409 148.487C266.409 149.286 266.336 149.945 266.19 150.464C266.051 150.984 265.81 151.38 265.468 151.653C265.132 151.925 264.669 152.061 264.08 152.061C263.434 152.061 262.93 151.887 262.569 151.538C262.207 151.19 262.001 150.746 261.951 150.208H262.749ZM264.089 148.82C264.514 148.82 264.863 148.69 265.135 148.43C265.407 148.164 265.544 147.806 265.544 147.356C265.544 146.881 265.411 146.497 265.145 146.206C264.878 145.914 264.504 145.769 264.023 145.769C263.579 145.769 263.224 145.908 262.958 146.187C262.698 146.466 262.569 146.833 262.569 147.29C262.569 147.752 262.698 148.123 262.958 148.402C263.218 148.681 263.595 148.82 264.089 148.82Z" fill="black"/>
<path d="M301.79 151.358C302.594 150.712 303.225 150.182 303.681 149.77C304.138 149.352 304.521 148.918 304.831 148.468C305.148 148.012 305.307 147.565 305.307 147.128C305.307 146.716 305.205 146.393 305.002 146.158C304.806 145.918 304.486 145.797 304.042 145.797C303.612 145.797 303.276 145.934 303.035 146.206C302.8 146.472 302.674 146.83 302.655 147.28H301.818C301.844 146.57 302.059 146.022 302.465 145.636C302.87 145.249 303.393 145.056 304.033 145.056C304.686 145.056 305.202 145.236 305.582 145.598C305.969 145.959 306.162 146.456 306.162 147.09C306.162 147.616 306.004 148.129 305.687 148.63C305.376 149.124 305.022 149.561 304.622 149.942C304.223 150.315 303.713 150.753 303.092 151.253H306.362V151.976H301.79V151.358ZM307.362 148.544C307.362 147.454 307.539 146.605 307.894 145.997C308.249 145.382 308.87 145.075 309.757 145.075C310.638 145.075 311.256 145.382 311.611 145.997C311.965 146.605 312.143 147.454 312.143 148.544C312.143 149.653 311.965 150.515 311.611 151.13C311.256 151.744 310.638 152.052 309.757 152.052C308.87 152.052 308.249 151.744 307.894 151.13C307.539 150.515 307.362 149.653 307.362 148.544ZM311.287 148.544C311.287 147.993 311.249 147.527 311.173 147.147C311.104 146.76 310.955 146.45 310.727 146.215C310.505 145.981 310.182 145.864 309.757 145.864C309.326 145.864 308.997 145.981 308.768 146.215C308.547 146.45 308.398 146.76 308.322 147.147C308.252 147.527 308.217 147.993 308.217 148.544C308.217 149.115 308.252 149.593 308.322 149.98C308.398 150.366 308.547 150.677 308.768 150.911C308.997 151.146 309.326 151.263 309.757 151.263C310.182 151.263 310.505 151.146 310.727 150.911C310.955 150.677 311.104 150.366 311.173 149.98C311.249 149.593 311.287 149.115 311.287 148.544Z" fill="black"/>
<path d="M85.2799 210.502C86.0847 209.856 86.7152 209.326 87.1715 208.915C87.6277 208.496 88.0111 208.062 88.3216 207.612C88.6385 207.156 88.7969 206.709 88.7969 206.272C88.7969 205.86 88.6955 205.537 88.4927 205.303C88.2963 205.062 87.9763 204.941 87.5327 204.941C87.1018 204.941 86.7659 205.078 86.5251 205.35C86.2907 205.616 86.1639 205.974 86.1449 206.424H85.3085C85.3338 205.714 85.5493 205.166 85.9548 204.78C86.3604 204.393 86.8832 204.2 87.5232 204.2C88.1759 204.2 88.6923 204.38 89.0726 204.742C89.4591 205.103 89.6524 205.6 89.6524 206.234C89.6524 206.76 89.494 207.273 89.1771 207.774C88.8666 208.268 88.5117 208.705 88.1125 209.086C87.7133 209.459 87.2032 209.897 86.5822 210.397H89.852V211.12H85.2799V210.502ZM91.964 209.352C92.0274 209.713 92.1731 209.992 92.4013 210.188C92.6357 210.385 92.9494 210.483 93.3423 210.483C93.8683 210.483 94.2548 210.277 94.5019 209.865C94.7554 209.453 94.8758 208.759 94.8631 207.783C94.7301 208.069 94.5083 208.294 94.1978 208.458C93.8873 208.617 93.5419 208.696 93.1617 208.696C92.7371 208.696 92.3569 208.61 92.0211 208.439C91.6915 208.262 91.4317 208.005 91.2416 207.669C91.0515 207.333 90.9565 206.928 90.9565 206.453C90.9565 205.775 91.1529 205.23 91.5458 204.818C91.9387 204.4 92.4963 204.19 93.2187 204.19C94.1059 204.19 94.7269 204.479 95.0818 205.055C95.443 205.632 95.6236 206.491 95.6236 207.631C95.6236 208.43 95.5507 209.089 95.4049 209.608C95.2655 210.128 95.0247 210.524 94.6825 210.797C94.3467 211.069 93.8841 211.205 93.2948 211.205C92.6484 211.205 92.1446 211.031 91.7834 210.683C91.4222 210.334 91.2163 209.89 91.1656 209.352H91.964ZM93.3043 207.964C93.7288 207.964 94.0774 207.834 94.3499 207.574C94.6223 207.308 94.7586 206.95 94.7586 206.5C94.7586 206.025 94.6255 205.642 94.3594 205.35C94.0932 205.059 93.7193 204.913 93.2377 204.913C92.7942 204.913 92.4393 205.052 92.1731 205.331C91.9133 205.61 91.7834 205.977 91.7834 206.434C91.7834 206.896 91.9133 207.267 92.1731 207.546C92.433 207.825 92.81 207.964 93.3043 207.964Z" fill="black"/>
<path d="M128.667 206.053C128.712 205.47 128.937 205.014 129.342 204.685C129.748 204.355 130.274 204.19 130.92 204.19C131.351 204.19 131.722 204.27 132.032 204.428C132.349 204.58 132.587 204.789 132.745 205.055C132.91 205.322 132.992 205.623 132.992 205.958C132.992 206.351 132.878 206.69 132.65 206.975C132.428 207.261 132.137 207.444 131.776 207.527V207.574C132.188 207.676 132.514 207.875 132.755 208.173C132.996 208.471 133.116 208.861 133.116 209.342C133.116 209.703 133.034 210.03 132.869 210.321C132.704 210.606 132.457 210.831 132.127 210.996C131.798 211.161 131.402 211.243 130.939 211.243C130.268 211.243 129.716 211.069 129.285 210.721C128.854 210.366 128.614 209.865 128.563 209.219H129.399C129.444 209.599 129.599 209.909 129.865 210.15C130.131 210.391 130.486 210.511 130.93 210.511C131.373 210.511 131.709 210.397 131.937 210.169C132.172 209.935 132.289 209.634 132.289 209.266C132.289 208.791 132.131 208.449 131.814 208.24C131.497 208.031 131.018 207.926 130.378 207.926H130.16V207.204H130.388C130.971 207.197 131.411 207.102 131.709 206.918C132.007 206.728 132.156 206.437 132.156 206.044C132.156 205.708 132.045 205.439 131.823 205.236C131.608 205.033 131.297 204.932 130.892 204.932C130.499 204.932 130.182 205.033 129.941 205.236C129.7 205.439 129.558 205.711 129.513 206.053H128.667ZM134.284 207.688C134.284 206.598 134.461 205.749 134.816 205.141C135.171 204.526 135.792 204.219 136.679 204.219C137.56 204.219 138.178 204.526 138.533 205.141C138.888 205.749 139.065 206.598 139.065 207.688C139.065 208.797 138.888 209.659 138.533 210.274C138.178 210.888 137.56 211.196 136.679 211.196C135.792 211.196 135.171 210.888 134.816 210.274C134.461 209.659 134.284 208.797 134.284 207.688ZM138.21 207.688C138.21 207.137 138.172 206.671 138.095 206.291C138.026 205.905 137.877 205.594 137.649 205.36C137.427 205.125 137.104 205.008 136.679 205.008C136.248 205.008 135.919 205.125 135.691 205.36C135.469 205.594 135.32 205.905 135.244 206.291C135.174 206.671 135.139 207.137 135.139 207.688C135.139 208.259 135.174 208.737 135.244 209.124C135.32 209.51 135.469 209.821 135.691 210.055C135.919 210.29 136.248 210.407 136.679 210.407C137.104 210.407 137.427 210.29 137.649 210.055C137.877 209.821 138.026 209.51 138.095 209.124C138.172 208.737 138.21 208.259 138.21 207.688Z" fill="black"/>
<path d="M171.969 206.053C172.014 205.47 172.239 205.014 172.644 204.685C173.05 204.355 173.576 204.19 174.222 204.19C174.653 204.19 175.024 204.27 175.334 204.428C175.651 204.58 175.889 204.789 176.047 205.055C176.212 205.322 176.294 205.623 176.294 205.958C176.294 206.351 176.18 206.69 175.952 206.975C175.73 207.261 175.439 207.444 175.078 207.527V207.574C175.49 207.676 175.816 207.875 176.057 208.173C176.297 208.471 176.418 208.861 176.418 209.342C176.418 209.703 176.335 210.03 176.171 210.321C176.006 210.606 175.759 210.831 175.429 210.996C175.1 211.161 174.704 211.243 174.241 211.243C173.569 211.243 173.018 211.069 172.587 210.721C172.156 210.366 171.916 209.865 171.865 209.219H172.701C172.746 209.599 172.901 209.909 173.167 210.15C173.433 210.391 173.788 210.511 174.232 210.511C174.675 210.511 175.011 210.397 175.239 210.169C175.474 209.935 175.591 209.634 175.591 209.266C175.591 208.791 175.432 208.449 175.116 208.24C174.799 208.031 174.32 207.926 173.68 207.926H173.462V207.204H173.69C174.273 207.197 174.713 207.102 175.011 206.918C175.309 206.728 175.458 206.437 175.458 206.044C175.458 205.708 175.347 205.439 175.125 205.236C174.91 205.033 174.599 204.932 174.194 204.932C173.801 204.932 173.484 205.033 173.243 205.236C173.002 205.439 172.86 205.711 172.815 206.053H171.969ZM177.358 205.112V204.323H179.145V211.196H178.27V205.112H177.358Z" fill="black"/>
<path d="M85.2799 180.93C86.0847 180.283 86.7152 179.754 87.1715 179.342C87.6277 178.924 88.0111 178.49 88.3216 178.04C88.6385 177.584 88.7969 177.137 88.7969 176.7C88.7969 176.288 88.6955 175.965 88.4927 175.73C88.2963 175.489 87.9763 175.369 87.5327 175.369C87.1018 175.369 86.7659 175.505 86.5251 175.778C86.2907 176.044 86.1639 176.402 86.1449 176.852H85.3085C85.3338 176.142 85.5493 175.594 85.9548 175.207C86.3604 174.821 86.8832 174.628 87.5232 174.628C88.1759 174.628 88.6923 174.808 89.0726 175.169C89.4591 175.531 89.6524 176.028 89.6524 176.662C89.6524 177.188 89.494 177.701 89.1771 178.202C88.8666 178.696 88.5117 179.133 88.1125 179.513C87.7133 179.887 87.2032 180.324 86.5822 180.825H89.852V181.547H85.2799V180.93ZM90.7473 180.93C91.5521 180.283 92.1826 179.754 92.6389 179.342C93.0952 178.924 93.4785 178.49 93.789 178.04C94.1059 177.584 94.2643 177.137 94.2643 176.7C94.2643 176.288 94.1629 175.965 93.9601 175.73C93.7637 175.489 93.4437 175.369 93.0001 175.369C92.5692 175.369 92.2333 175.505 91.9925 175.778C91.7581 176.044 91.6313 176.402 91.6123 176.852H90.7759C90.8012 176.142 91.0167 175.594 91.4222 175.207C91.8278 174.821 92.3506 174.628 92.9906 174.628C93.6433 174.628 94.1598 174.808 94.54 175.169C94.9265 175.531 95.1198 176.028 95.1198 176.662C95.1198 177.188 94.9614 177.701 94.6445 178.202C94.334 178.696 93.9792 179.133 93.5799 179.513C93.1807 179.887 92.6706 180.324 92.0496 180.825H95.3194V181.547H90.7473V180.93Z" fill="black"/>
<path d="M128.582 180.93C129.387 180.283 130.017 179.754 130.473 179.342C130.93 178.924 131.313 178.49 131.624 178.04C131.94 177.584 132.099 177.137 132.099 176.7C132.099 176.288 131.998 175.965 131.795 175.73C131.598 175.489 131.278 175.369 130.835 175.369C130.404 175.369 130.068 175.505 129.827 175.778C129.593 176.044 129.466 176.402 129.447 176.852H128.61C128.636 176.142 128.851 175.594 129.257 175.207C129.662 174.821 130.185 174.628 130.825 174.628C131.478 174.628 131.994 174.808 132.375 175.169C132.761 175.531 132.954 176.028 132.954 176.662C132.954 177.188 132.796 177.701 132.479 178.202C132.169 178.696 131.814 179.133 131.415 179.513C131.015 179.887 130.505 180.324 129.884 180.825H133.154V181.547H128.582V180.93ZM134.135 176.481C134.179 175.898 134.404 175.442 134.81 175.112C135.215 174.783 135.741 174.618 136.388 174.618C136.819 174.618 137.189 174.697 137.5 174.856C137.817 175.008 138.054 175.217 138.213 175.483C138.377 175.749 138.46 176.05 138.46 176.386C138.46 176.779 138.346 177.118 138.118 177.403C137.896 177.688 137.604 177.872 137.243 177.954V178.002C137.655 178.103 137.981 178.303 138.222 178.601C138.463 178.899 138.583 179.288 138.583 179.77C138.583 180.131 138.501 180.458 138.336 180.749C138.171 181.034 137.924 181.259 137.595 181.424C137.265 181.589 136.869 181.671 136.407 181.671C135.735 181.671 135.184 181.497 134.753 181.148C134.322 180.793 134.081 180.293 134.03 179.646H134.867C134.911 180.027 135.066 180.337 135.333 180.578C135.599 180.819 135.954 180.939 136.397 180.939C136.841 180.939 137.177 180.825 137.405 180.597C137.639 180.362 137.756 180.061 137.756 179.694C137.756 179.219 137.598 178.877 137.281 178.667C136.964 178.458 136.486 178.354 135.846 178.354H135.627V177.631H135.855C136.438 177.625 136.879 177.53 137.177 177.346C137.474 177.156 137.623 176.865 137.623 176.472C137.623 176.136 137.512 175.866 137.291 175.664C137.075 175.461 136.765 175.36 136.359 175.36C135.966 175.36 135.649 175.461 135.409 175.664C135.168 175.866 135.025 176.139 134.981 176.481H134.135Z" fill="black"/>
<path d="M215.186 180.93C215.991 180.283 216.621 179.754 217.077 179.342C217.534 178.924 217.917 178.49 218.228 178.04C218.544 177.584 218.703 177.137 218.703 176.7C218.703 176.288 218.601 175.965 218.399 175.73C218.202 175.489 217.882 175.369 217.439 175.369C217.008 175.369 216.672 175.505 216.431 175.778C216.197 176.044 216.07 176.402 216.051 176.852H215.214C215.24 176.142 215.455 175.594 215.861 175.207C216.266 174.821 216.789 174.628 217.429 174.628C218.082 174.628 218.598 174.808 218.978 175.169C219.365 175.531 219.558 176.028 219.558 176.662C219.558 177.188 219.4 177.701 219.083 178.202C218.772 178.696 218.418 179.133 218.018 179.513C217.619 179.887 217.109 180.324 216.488 180.825H219.758V181.547H215.186V180.93ZM225.14 175.502H221.803V177.669C221.949 177.467 222.165 177.302 222.45 177.175C222.735 177.042 223.042 176.975 223.372 176.975C223.898 176.975 224.325 177.086 224.655 177.308C224.984 177.524 225.219 177.806 225.358 178.154C225.504 178.496 225.577 178.861 225.577 179.247C225.577 179.703 225.491 180.112 225.32 180.473C225.149 180.835 224.886 181.12 224.531 181.329C224.183 181.538 223.749 181.643 223.229 181.643C222.564 181.643 222.025 181.471 221.613 181.129C221.201 180.787 220.951 180.331 220.862 179.76H221.708C221.791 180.122 221.965 180.404 222.231 180.606C222.497 180.809 222.833 180.911 223.239 180.911C223.739 180.911 224.116 180.762 224.37 180.464C224.623 180.16 224.75 179.76 224.75 179.266C224.75 178.772 224.623 178.392 224.37 178.126C224.116 177.853 223.742 177.717 223.248 177.717C222.912 177.717 222.618 177.799 222.364 177.964C222.117 178.122 221.936 178.341 221.822 178.62H221.005V174.742H225.14V175.502Z" fill="black"/>
<path d="M171.884 180.93C172.689 180.283 173.319 179.754 173.775 179.342C174.232 178.924 174.615 178.49 174.926 178.04C175.242 177.584 175.401 177.137 175.401 176.7C175.401 176.288 175.299 175.965 175.097 175.73C174.9 175.489 174.58 175.369 174.137 175.369C173.706 175.369 173.37 175.505 173.129 175.778C172.895 176.044 172.768 176.402 172.749 176.852H171.912C171.938 176.142 172.153 175.594 172.559 175.207C172.964 174.821 173.487 174.628 174.127 174.628C174.78 174.628 175.296 174.808 175.676 175.169C176.063 175.531 176.256 176.028 176.256 176.662C176.256 177.188 176.098 177.701 175.781 178.202C175.47 178.696 175.116 179.133 174.716 179.513C174.317 179.887 173.807 180.324 173.186 180.825H176.456V181.547H171.884V180.93ZM177.247 180.093V179.437L180.583 174.818H181.619V179.342H182.57V180.093H181.619V181.624H180.764V180.093H177.247ZM180.802 175.721L178.245 179.342H180.802V175.721Z" fill="black"/>
<path d="M258.488 180.93C259.293 180.283 259.923 179.754 260.379 179.342C260.836 178.924 261.219 178.49 261.53 178.04C261.846 177.584 262.005 177.137 262.005 176.7C262.005 176.288 261.903 175.965 261.701 175.73C261.504 175.489 261.184 175.369 260.741 175.369C260.31 175.369 259.974 175.505 259.733 175.778C259.499 176.044 259.372 176.402 259.353 176.852H258.516C258.542 176.142 258.757 175.594 259.163 175.207C259.568 174.821 260.091 174.628 260.731 174.628C261.384 174.628 261.9 174.808 262.28 175.169C262.667 175.531 262.86 176.028 262.86 176.662C262.86 177.188 262.702 177.701 262.385 178.202C262.074 178.696 261.72 179.133 261.32 179.513C260.921 179.887 260.411 180.324 259.79 180.825H263.06V181.547H258.488V180.93ZM267.89 176.386C267.751 175.683 267.317 175.331 266.588 175.331C266.024 175.331 265.603 175.55 265.324 175.987C265.045 176.418 264.909 177.131 264.915 178.126C265.061 177.796 265.302 177.539 265.638 177.356C265.98 177.166 266.36 177.07 266.778 177.07C267.431 177.07 267.951 177.273 268.337 177.679C268.73 178.084 268.927 178.645 268.927 179.361C268.927 179.792 268.841 180.179 268.67 180.521C268.505 180.863 268.252 181.136 267.909 181.338C267.574 181.541 267.165 181.643 266.683 181.643C266.031 181.643 265.52 181.497 265.153 181.205C264.785 180.914 264.529 180.511 264.383 179.998C264.237 179.485 264.164 178.851 264.164 178.097C264.164 175.771 264.975 174.609 266.598 174.609C267.219 174.609 267.707 174.777 268.062 175.112C268.416 175.448 268.626 175.873 268.689 176.386H267.89ZM266.598 177.802C266.325 177.802 266.069 177.859 265.828 177.973C265.587 178.081 265.391 178.249 265.238 178.477C265.093 178.699 265.02 178.972 265.02 179.295C265.02 179.776 265.159 180.169 265.438 180.473C265.717 180.771 266.116 180.92 266.636 180.92C267.079 180.92 267.431 180.784 267.691 180.511C267.957 180.233 268.09 179.859 268.09 179.39C268.09 178.896 267.963 178.509 267.71 178.23C267.456 177.945 267.086 177.802 266.598 177.802Z" fill="black"/>
<path d="M301.79 180.93C302.594 180.283 303.225 179.754 303.681 179.342C304.138 178.924 304.521 178.49 304.831 178.04C305.148 177.584 305.307 177.137 305.307 176.7C305.307 176.288 305.205 175.965 305.002 175.73C304.806 175.489 304.486 175.369 304.042 175.369C303.612 175.369 303.276 175.505 303.035 175.778C302.8 176.044 302.674 176.402 302.655 176.852H301.818C301.844 176.142 302.059 175.594 302.465 175.207C302.87 174.821 303.393 174.628 304.033 174.628C304.686 174.628 305.202 174.808 305.582 175.169C305.969 175.531 306.162 176.028 306.162 176.662C306.162 177.188 306.004 177.701 305.687 178.202C305.376 178.696 305.022 179.133 304.622 179.513C304.223 179.887 303.713 180.324 303.092 180.825H306.362V181.547H301.79V180.93ZM311.592 175.426L308.949 181.624H308.075L310.755 175.512H307.086V174.77H311.592V175.426Z" fill="black"/>
<path d="M89.2795 118.905C88.9247 118.766 88.6522 118.563 88.4621 118.297C88.272 118.031 88.1769 117.708 88.1769 117.328C88.1769 116.985 88.2624 116.678 88.4335 116.406C88.6046 116.127 88.8581 115.908 89.194 115.75C89.5362 115.585 89.9481 115.503 90.4297 115.503C90.9113 115.503 91.32 115.585 91.6558 115.75C91.998 115.908 92.2547 116.127 92.4258 116.406C92.6032 116.678 92.6919 116.985 92.6919 117.328C92.6919 117.695 92.5937 118.018 92.3973 118.297C92.2008 118.57 91.9315 118.772 91.5893 118.905C91.9822 119.026 92.2927 119.238 92.5208 119.542C92.7553 119.84 92.8725 120.201 92.8725 120.626C92.8725 121.038 92.7711 121.399 92.5684 121.71C92.3656 122.014 92.0772 122.251 91.7034 122.422C91.3358 122.587 90.9113 122.67 90.4297 122.67C89.9481 122.67 89.5235 122.587 89.1559 122.422C88.7947 122.251 88.5128 122.014 88.31 121.71C88.1072 121.399 88.0058 121.038 88.0058 120.626C88.0058 120.201 88.1199 119.837 88.348 119.533C88.5761 119.229 88.8866 119.02 89.2795 118.905ZM91.8555 117.432C91.8555 117.046 91.7287 116.748 91.4752 116.539C91.2218 116.33 90.8732 116.225 90.4297 116.225C89.9924 116.225 89.6471 116.33 89.3936 116.539C89.1401 116.748 89.0134 117.049 89.0134 117.442C89.0134 117.797 89.1433 118.082 89.4031 118.297C89.6692 118.513 90.0114 118.62 90.4297 118.62C90.8542 118.62 91.1964 118.513 91.4562 118.297C91.7224 118.075 91.8555 117.787 91.8555 117.432ZM90.4297 119.286C89.9607 119.286 89.5773 119.397 89.2795 119.618C88.9817 119.834 88.8328 120.16 88.8328 120.597C88.8328 121.003 88.9753 121.329 89.2605 121.576C89.552 121.824 89.9417 121.947 90.4297 121.947C90.9176 121.947 91.3041 121.824 91.5893 121.576C91.8745 121.329 92.017 121.003 92.017 120.597C92.017 120.173 91.8713 119.85 91.5798 119.628C91.2883 119.4 90.9049 119.286 90.4297 119.286Z" fill="black"/>
<path d="M41.8544 145.968V145.179H43.6414V152.052H42.7669V145.968H41.8544ZM44.918 150.521V149.866L48.2544 145.246H49.2905V149.77H50.241V150.521H49.2905V152.052H48.435V150.521H44.918ZM48.473 146.149L45.9161 149.77H48.473V146.149Z" fill="black"/>
<path d="M41.9779 210.502C42.7827 209.856 43.4132 209.326 43.8695 208.915C44.3257 208.496 44.7091 208.062 45.0196 207.612C45.3365 207.156 45.4949 206.709 45.4949 206.272C45.4949 205.86 45.3935 205.537 45.1907 205.303C44.9943 205.062 44.6743 204.941 44.2307 204.941C43.7998 204.941 43.4639 205.078 43.2231 205.35C42.9887 205.616 42.8619 205.974 42.8429 206.424H42.0065C42.0318 205.714 42.2473 205.166 42.6528 204.78C43.0584 204.393 43.5812 204.2 44.2212 204.2C44.8739 204.2 45.3903 204.38 45.7706 204.742C46.1571 205.103 46.3504 205.6 46.3504 206.234C46.3504 206.76 46.192 207.273 45.8751 207.774C45.5646 208.268 45.2097 208.705 44.8105 209.086C44.4113 209.459 43.9012 209.897 43.2802 210.397H46.55V211.12H41.9779V210.502ZM48.8046 207.622C48.4497 207.482 48.1773 207.28 47.9871 207.013C47.797 206.747 47.702 206.424 47.702 206.044C47.702 205.702 47.7875 205.394 47.9586 205.122C48.1297 204.843 48.3832 204.624 48.7191 204.466C49.0612 204.301 49.4731 204.219 49.9547 204.219C50.4364 204.219 50.8451 204.301 51.1809 204.466C51.5231 204.624 51.7798 204.843 51.9509 205.122C52.1283 205.394 52.217 205.702 52.217 206.044C52.217 206.411 52.1188 206.735 51.9223 207.013C51.7259 207.286 51.4566 207.489 51.1144 207.622C51.5073 207.742 51.8178 207.954 52.0459 208.259C52.2804 208.556 52.3976 208.918 52.3976 209.342C52.3976 209.754 52.2962 210.115 52.0934 210.426C51.8907 210.73 51.6023 210.968 51.2285 211.139C50.8609 211.304 50.4364 211.386 49.9547 211.386C49.4731 211.386 49.0486 211.304 48.681 211.139C48.3198 210.968 48.0378 210.73 47.8351 210.426C47.6323 210.115 47.5309 209.754 47.5309 209.342C47.5309 208.918 47.645 208.553 47.8731 208.249C48.1012 207.945 48.4117 207.736 48.8046 207.622ZM51.3805 206.148C51.3805 205.762 51.2538 205.464 51.0003 205.255C50.7469 205.046 50.3983 204.941 49.9547 204.941C49.5175 204.941 49.1721 205.046 48.9187 205.255C48.6652 205.464 48.5385 205.765 48.5385 206.158C48.5385 206.513 48.6684 206.798 48.9282 207.013C49.1943 207.229 49.5365 207.337 49.9547 207.337C50.3793 207.337 50.7215 207.229 50.9813 207.013C51.2475 206.792 51.3805 206.503 51.3805 206.148ZM49.9547 208.002C49.4858 208.002 49.1024 208.113 48.8046 208.335C48.5068 208.55 48.3579 208.877 48.3579 209.314C48.3579 209.719 48.5004 210.046 48.7856 210.293C49.0771 210.54 49.4668 210.664 49.9547 210.664C50.4427 210.664 50.8292 210.54 51.1144 210.293C51.3996 210.046 51.5421 209.719 51.5421 209.314C51.5421 208.889 51.3964 208.566 51.1049 208.344C50.8134 208.116 50.43 208.002 49.9547 208.002Z" fill="black"/>
<path d="M41.9779 180.93C42.7827 180.283 43.4132 179.754 43.8695 179.342C44.3257 178.924 44.7091 178.49 45.0196 178.04C45.3365 177.584 45.4949 177.137 45.4949 176.7C45.4949 176.288 45.3935 175.965 45.1907 175.73C44.9943 175.489 44.6743 175.369 44.2307 175.369C43.7998 175.369 43.4639 175.505 43.2231 175.778C42.9887 176.044 42.8619 176.402 42.8429 176.852H42.0065C42.0318 176.142 42.2473 175.594 42.6528 175.207C43.0584 174.821 43.5812 174.628 44.2212 174.628C44.8739 174.628 45.3903 174.808 45.7706 175.169C46.1571 175.531 46.3504 176.028 46.3504 176.662C46.3504 177.188 46.192 177.701 45.8751 178.202C45.5646 178.696 45.2097 179.133 44.8105 179.513C44.4113 179.887 43.9012 180.324 43.2802 180.825H46.55V181.547H41.9779V180.93ZM47.3218 175.54V174.751H49.1088V181.624H48.2343V175.54H47.3218Z" fill="black"/>
<path d="M48.9527 116.282L46.3103 122.479H45.4358L48.1163 116.368H44.4472V115.626H48.9527V116.282Z" fill="black"/>
<path d="M132.439 120.635C132.502 120.997 132.648 121.275 132.876 121.472C133.111 121.668 133.424 121.767 133.817 121.767C134.343 121.767 134.73 121.561 134.977 121.149C135.23 120.737 135.351 120.043 135.338 119.067C135.205 119.352 134.983 119.577 134.673 119.742C134.362 119.9 134.017 119.98 133.637 119.98C133.212 119.98 132.832 119.894 132.496 119.723C132.166 119.546 131.907 119.289 131.716 118.953C131.526 118.617 131.431 118.212 131.431 117.736C131.431 117.058 131.628 116.513 132.021 116.101C132.414 115.683 132.971 115.474 133.694 115.474C134.581 115.474 135.202 115.762 135.557 116.339C135.918 116.916 136.098 117.774 136.098 118.915C136.098 119.713 136.026 120.372 135.88 120.892C135.74 121.412 135.5 121.808 135.157 122.08C134.822 122.353 134.359 122.489 133.77 122.489C133.123 122.489 132.619 122.315 132.258 121.966C131.897 121.618 131.691 121.174 131.64 120.635H132.439ZM133.779 119.248C134.204 119.248 134.552 119.118 134.825 118.858C135.097 118.592 135.233 118.234 135.233 117.784C135.233 117.309 135.1 116.925 134.834 116.634C134.568 116.342 134.194 116.196 133.713 116.196C133.269 116.196 132.914 116.336 132.648 116.615C132.388 116.894 132.258 117.261 132.258 117.717C132.258 118.18 132.388 118.551 132.648 118.829C132.908 119.108 133.285 119.248 133.779 119.248Z" fill="black"/>
<path d="M171.76 116.396V115.607H173.547V122.479H172.673V116.396H171.76ZM175.033 118.972C175.033 117.882 175.21 117.033 175.565 116.425C175.92 115.81 176.541 115.503 177.428 115.503C178.309 115.503 178.927 115.81 179.282 116.425C179.637 117.033 179.814 117.882 179.814 118.972C179.814 120.081 179.637 120.943 179.282 121.557C178.927 122.172 178.309 122.479 177.428 122.479C176.541 122.479 175.92 122.172 175.565 121.557C175.21 120.943 175.033 120.081 175.033 118.972ZM178.959 118.972C178.959 118.421 178.921 117.955 178.845 117.575C178.775 117.188 178.626 116.878 178.398 116.643C178.176 116.409 177.853 116.292 177.428 116.292C176.997 116.292 176.668 116.409 176.44 116.643C176.218 116.878 176.069 117.188 175.993 117.575C175.923 117.955 175.889 118.421 175.889 118.972C175.889 119.542 175.923 120.021 175.993 120.407C176.069 120.794 176.218 121.104 176.44 121.339C176.668 121.573 176.997 121.691 177.428 121.691C177.853 121.691 178.176 121.573 178.398 121.339C178.626 121.104 178.775 120.794 178.845 120.407C178.921 120.021 178.959 119.542 178.959 118.972Z" fill="black"/>
<path d="M215.062 116.396V115.607H216.849V122.479H215.975V116.396H215.062ZM218.107 116.396V115.607H219.894V122.479H219.019V116.396H218.107Z" fill="black"/>
<path d="M258.364 116.396V115.607H260.151V122.479H259.277V116.396H258.364ZM261.532 121.786C262.337 121.139 262.968 120.61 263.424 120.198C263.88 119.78 264.264 119.346 264.574 118.896C264.891 118.44 265.049 117.993 265.049 117.556C265.049 117.144 264.948 116.821 264.745 116.586C264.549 116.345 264.229 116.225 263.785 116.225C263.354 116.225 263.018 116.361 262.778 116.634C262.543 116.9 262.416 117.258 262.397 117.708H261.561C261.586 116.998 261.802 116.45 262.207 116.063C262.613 115.677 263.136 115.484 263.776 115.484C264.428 115.484 264.945 115.664 265.325 116.025C265.712 116.387 265.905 116.884 265.905 117.518C265.905 118.044 265.747 118.557 265.43 119.058C265.119 119.552 264.764 119.989 264.365 120.369C263.966 120.743 263.456 121.18 262.835 121.681H266.105V122.403H261.532V121.786Z" fill="black"/>
<path d="M301.666 116.396V115.607H303.453V122.479H302.579V116.396H301.666ZM304.92 117.337C304.964 116.754 305.189 116.298 305.595 115.968C306 115.639 306.526 115.474 307.173 115.474C307.604 115.474 307.974 115.553 308.285 115.712C308.602 115.864 308.839 116.073 308.998 116.339C309.162 116.605 309.245 116.906 309.245 117.242C309.245 117.635 309.131 117.974 308.903 118.259C308.681 118.544 308.389 118.728 308.028 118.81V118.858C308.44 118.959 308.766 119.159 309.007 119.457C309.248 119.755 309.368 120.144 309.368 120.626C309.368 120.987 309.286 121.314 309.121 121.605C308.957 121.89 308.709 122.115 308.38 122.28C308.05 122.445 307.654 122.527 307.192 122.527C306.52 122.527 305.969 122.353 305.538 122.004C305.107 121.649 304.866 121.149 304.815 120.502H305.652C305.696 120.883 305.851 121.193 306.118 121.434C306.384 121.675 306.739 121.795 307.182 121.795C307.626 121.795 307.962 121.681 308.19 121.453C308.424 121.218 308.541 120.917 308.541 120.55C308.541 120.075 308.383 119.732 308.066 119.523C307.749 119.314 307.271 119.21 306.631 119.21H306.412V118.487H306.64C307.223 118.481 307.664 118.386 307.962 118.202C308.259 118.012 308.408 117.72 308.408 117.328C308.408 116.992 308.297 116.722 308.076 116.52C307.86 116.317 307.55 116.215 307.144 116.215C306.751 116.215 306.434 116.317 306.194 116.52C305.953 116.722 305.81 116.995 305.766 117.337H304.92Z" fill="black"/>
</g>
<defs>
<filter id="filter0_d_575_1523" x="0" y="0" width="356" height="255.138" filterUnits="userSpaceOnUse" color-interpolation-filters="sRGB">
<feFlood flood-opacity="0" result="BackgroundImageFix"/>
<feColorMatrix in="SourceAlpha" type="matrix" values="0 0 0 0 0 0 0 0 0 0 0 0 0 0 0 0 0 0 127 0" result="hardAlpha"/>
<feOffset dy="4"/>
<feGaussianBlur stdDeviation="2"/>
<feComposite in2="hardAlpha" operator="out"/>
<feColorMatrix type="matrix" values="0 0 0 0 0 0 0 0 0 0 0 0 0 0 0 0 0 0 0.25 0"/>
<feBlend mode="normal" in2="BackgroundImageFix" result="effect1_dropShadow_575_1523"/>
<feBlend mode="normal" in="SourceGraphic" in2="effect1_dropShadow_575_1523" result="shape"/>
</filter>
</defs>
</svg>
