<svg width="36" height="37" viewBox="0 0 36 37" fill="none" xmlns="http://www.w3.org/2000/svg">
<path d="M36 18.1382C36 28.0793 27.9411 36.1382 18 36.1382C8.05887 36.1382 0 28.0793 0 18.1382C0 8.19706 8.05887 0.138184 18 0.138184C27.9411 0.138184 36 8.19706 36 18.1382Z" fill="#6C2863"/>
<path d="M20.25 26.0625H15.75C11.6775 26.0625 9.9375 24.3225 9.9375 20.25V15.75C9.9375 11.6775 11.6775 9.9375 15.75 9.9375H20.25C24.3225 9.9375 26.0625 11.6775 26.0625 15.75V20.25C26.0625 24.3225 24.3225 26.0625 20.25 26.0625ZM15.75 11.0625C12.2925 11.0625 11.0625 12.2925 11.0625 15.75V20.25C11.0625 23.7075 12.2925 24.9375 15.75 24.9375H20.25C23.7075 24.9375 24.9375 23.7075 24.9375 20.25V15.75C24.9375 12.2925 23.7075 11.0625 20.25 11.0625H15.75Z" fill="#FDF6FD" stroke="#FDF6FD" stroke-width="0.5"/>
<path d="M22.125 22.3726H20.7375C20.43 22.3726 20.175 22.1176 20.175 21.8101C20.175 21.5026 20.43 21.2476 20.7375 21.2476H22.125C22.4325 21.2476 22.6875 21.5026 22.6875 21.8101C22.6875 22.1176 22.4325 22.3726 22.125 22.3726Z" fill="#FDF6FD" stroke="#FDF6FD" stroke-width="0.5"/>
<path d="M18.7275 22.3726H13.875C13.5675 22.3726 13.3125 22.1176 13.3125 21.8101C13.3125 21.5026 13.5675 21.2476 13.875 21.2476H18.7275C19.035 21.2476 19.29 21.5026 19.29 21.8101C19.29 22.1176 19.0425 22.3726 18.7275 22.3726Z" fill="#FDF6FD" stroke="#FDF6FD" stroke-width="0.5"/>
<path d="M22.125 19.5522H17.9775C17.67 19.5522 17.415 19.2972 17.415 18.9897C17.415 18.6822 17.67 18.4272 17.9775 18.4272H22.125C22.4325 18.4272 22.6875 18.6822 22.6875 18.9897C22.6875 19.2972 22.4325 19.5522 22.125 19.5522Z" fill="#FDF6FD" stroke="#FDF6FD" stroke-width="0.5"/>
<path d="M15.9525 19.5522H13.875C13.5675 19.5522 13.3125 19.2972 13.3125 18.9897C13.3125 18.6822 13.5675 18.4272 13.875 18.4272H15.9525C16.26 18.4272 16.515 18.6822 16.515 18.9897C16.515 19.2972 16.26 19.5522 15.9525 19.5522Z" fill="#FDF6FD" stroke="#FDF6FD" stroke-width="0.5"/>
</svg>
