<svg width="772" height="636" viewBox="0 0 772 636" fill="none" xmlns="http://www.w3.org/2000/svg">
<rect x="647" y="568" width="24" height="24" fill="#DBB072"/>
<rect x="667" y="539" width="24" height="24" fill="#DBB072"/>
<rect x="657" y="557" width="24" height="24" fill="#DBB072"/>
<rect x="635" y="579" width="24" height="24" fill="#DBB072"/>
<rect x="635" y="599" width="24" height="24" fill="#DBB072"/>
<rect x="654" y="603" width="24" height="24" fill="#DBB072"/>
<rect x="675" y="606" width="24" height="24" fill="#DBB072"/>
<rect x="695" y="611" width="24" height="24" fill="#DBB072"/>
<rect x="719" y="609" width="24" height="24" fill="#DBB072"/>
<rect x="735" y="595" width="24" height="24" fill="#DBB072"/>
<rect x="748" y="579" width="24" height="24" fill="#DBB072"/>
<rect x="748" y="556" width="24" height="24" fill="#DBB072"/>
<rect x="745" y="550" width="24" height="24" fill="#DBB072"/>
<rect x="733" y="546" width="24" height="24" fill="#DBB072"/>
<rect x="715" y="543" width="24" height="24" fill="#DBB072"/>
<rect x="697" y="540" width="24" height="24" fill="#DBB072"/>
<rect x="683" y="535" width="24" height="24" fill="#DBB072"/>
<rect x="704" y="561" width="12" height="12" fill="#DBB072"/>
<rect x="698" y="574" width="12" height="12" fill="#DBB072"/>
<rect x="684" y="575" width="12" height="12" fill="#DBB072"/>
<rect x="675" y="574" width="12" height="12" fill="#DBB072"/>
<rect x="689" y="574" width="12" height="12" fill="#DBB072"/>
<rect x="595" y="514" width="12" height="12" fill="#6C2863"/>
<rect x="592" y="502" width="12" height="12" fill="#6C2863"/>
<rect x="588" y="490" width="12" height="12" fill="#6C2863"/>
<rect x="586" y="481" width="12" height="12" fill="#6C2863"/>
<rect x="607" y="516" width="12" height="12" fill="#6C2863"/>
<rect x="619" y="519" width="12" height="12" fill="#6C2863"/>
<rect x="631" y="522" width="12" height="12" fill="#6C2863"/>
<rect x="643" y="524" width="12" height="12" fill="#6C2863"/>
<rect x="655" y="525" width="12" height="12" fill="#6C2863"/>
<rect x="667" y="526" width="12" height="12" fill="#6C2863"/>
<rect x="679" y="527" width="12" height="12" fill="#6C2863"/>
<rect x="543" y="492" width="24" height="24" fill="#6C2863"/>
<rect x="564" y="498" width="24" height="24" fill="#6C2863"/>
<rect x="519" y="488" width="24" height="24" fill="#6C2863"/>
<rect x="496" y="484" width="24" height="24" fill="#6C2863"/>
<rect x="472" y="481" width="24" height="24" fill="#6C2863"/>
<rect x="448" y="478" width="24" height="24" fill="#6C2863"/>
<rect x="424" y="474" width="24" height="24" fill="#6C2863"/>
<rect x="400" y="471" width="24" height="24" fill="#6C2863"/>
<rect x="376" y="468" width="24" height="24" fill="#6C2863"/>
<rect x="352" y="465" width="24" height="24" fill="#6C2863"/>
<rect x="328" y="461" width="24" height="24" fill="#6C2863"/>
<rect x="312" y="580" width="24" height="24" fill="#6C2863"/>
<rect x="336" y="584" width="24" height="24" fill="#6C2863"/>
<rect x="360" y="590" width="24" height="24" fill="#6C2863"/>
<rect x="384" y="596" width="24" height="24" fill="#6C2863"/>
<rect x="408" y="600" width="24" height="24" fill="#6C2863"/>
<rect x="432" y="604" width="24" height="24" fill="#6C2863"/>
<rect x="456" y="608" width="24" height="24" fill="#6C2863"/>
<rect x="480" y="612" width="24" height="24" fill="#6C2863"/>
<rect x="504" y="606" width="24" height="24" fill="#6C2863"/>
<rect x="528" y="582" width="24" height="24" fill="#6C2863"/>
<rect x="547" y="558" width="24" height="24" fill="#6C2863"/>
<rect x="568" y="534" width="24" height="24" fill="#6C2863"/>
<path d="M321.094 497.327L334.039 500.147L327.135 504.662L314.622 502.936L321.094 497.327Z" fill="#6C2863"/>
<path d="M321.094 512.327L334.039 515.147L327.135 519.662L314.622 517.936L321.094 512.327Z" fill="#6C2863"/>
<path d="M311.094 528.327L324.039 531.147L317.135 535.662L304.622 533.936L311.094 528.327Z" fill="#6C2863"/>
<path d="M336.094 533.327L349.039 536.147L342.135 540.662L329.622 538.936L336.094 533.327Z" fill="#6C2863"/>
<path d="M362.094 535.327L375.039 538.147L368.135 542.662L355.622 540.936L362.094 535.327Z" fill="#6C2863"/>
<path d="M416.094 528.327L429.039 531.147L422.135 535.662L409.622 533.936L416.094 528.327Z" fill="#6C2863"/>
<path d="M428.094 513.327L441.039 516.147L434.135 520.662L421.622 518.936L428.094 513.327Z" fill="#6C2863"/>
<path d="M457.094 518.327L470.039 521.147L463.135 525.662L450.622 523.936L457.094 518.327Z" fill="#6C2863"/>
<path d="M442.094 534.327L455.039 537.147L448.135 541.662L435.622 539.936L442.094 534.327Z" fill="#6C2863"/>
<path d="M468.094 538.327L481.039 541.147L474.135 545.662L461.622 543.936L468.094 538.327Z" fill="#6C2863"/>
<path d="M453.094 550.327L466.039 553.147L459.135 557.662L446.622 555.936L453.094 550.327Z" fill="#6C2863"/>
<path d="M401.5 541L442.5 548.5L433.5 558L394 549.327L401.5 541Z" fill="#6C2863"/>
<path d="M491.5 540.265L508.5 544.265L487 562.5L470.501 559.765L491.5 540.265Z" fill="#6C2863"/>
<path d="M482.094 521.327L495.039 524.147L488.135 528.662L475.622 526.936L482.094 521.327Z" fill="#6C2863"/>
<path d="M507.094 528.327L520.039 531.147L513.135 535.662L500.622 533.936L507.094 528.327Z" fill="#6C2863"/>
<path d="M345.094 517.327L358.039 520.147L351.135 524.662L338.622 522.936L345.094 517.327Z" fill="#6C2863"/>
<path d="M344.094 500.327L357.039 503.147L350.135 507.662L337.622 505.936L344.094 500.327Z" fill="#6C2863"/>
<path d="M375.094 524.327L388.039 527.147L381.135 531.662L368.622 529.936L375.094 524.327Z" fill="#6C2863"/>
<path d="M372.094 505.327L391.5 505.327L395.878 517.064L364.5 511.5L372.094 505.327Z" fill="#6C2863"/>
<path d="M401.216 495.038L417 495.5L396 517L391.5 505L401.216 495.038Z" fill="#6C2863"/>
<rect x="571" y="511" width="24" height="24" fill="#6C2863"/>
<path d="M297.094 493.327L310.039 496.147L303.135 500.662L290.622 498.936L297.094 493.327Z" fill="#6C2863"/>
<rect x="270" y="453" width="24" height="24" fill="#6C2863"/>
<rect x="249" y="448" width="24" height="24" fill="#6C2863"/>
<rect x="304" y="459" width="24" height="24" fill="#6C2863"/>
<rect x="227" y="445" width="24" height="24" fill="#6C2863"/>
<rect x="203" y="441" width="24" height="24" fill="#6C2863"/>
<rect x="182" y="436" width="24" height="24" fill="#6C2863"/>
<rect x="158" y="433" width="24" height="24" fill="#6C2863"/>
<rect x="135" y="429" width="24" height="24" fill="#6C2863"/>
<rect x="115" y="424" width="24" height="24" fill="#6C2863"/>
<rect x="289" y="457" width="24" height="24" fill="#6C2863"/>
<rect y="496" width="24" height="24" fill="#6C2863"/>
<rect y="520" width="24" height="24" fill="#6C2863"/>
<rect x="24" y="526" width="24" height="24" fill="#6C2863"/>
<rect x="48" y="530" width="24" height="24" fill="#6C2863"/>
<rect x="72" y="534" width="24" height="24" fill="#6C2863"/>
<rect x="96" y="540" width="24" height="24" fill="#6C2863"/>
<rect x="120" y="546" width="24" height="24" fill="#6C2863"/>
<rect x="144" y="550" width="24" height="24" fill="#6C2863"/>
<rect x="168" y="554" width="24" height="24" fill="#6C2863"/>
<rect x="192" y="558" width="24" height="24" fill="#6C2863"/>
<rect x="216" y="562" width="24" height="24" fill="#6C2863"/>
<rect x="240" y="566" width="24" height="24" fill="#6C2863"/>
<rect x="264" y="572" width="24" height="24" fill="#6C2863"/>
<rect x="288" y="576" width="24" height="24" fill="#6C2863"/>
<path d="M138.64 466.631L151.585 469.451L144.681 473.966L132.167 472.24L138.64 466.631Z" fill="#6C2863"/>
<path d="M117.094 463.327L130.039 466.147L123.135 470.662L110.622 468.936L117.094 463.327Z" fill="#6C2863"/>
<path d="M112.094 477.327L125.039 480.147L118.135 484.662L105.622 482.936L112.094 477.327Z" fill="#6C2863"/>
<path d="M79.7692 486.5L115 492.5L105.309 501L69.5 494.5L79.7692 486.5Z" fill="#6C2863"/>
<path d="M123.269 495L276 521L269 528.5L113 503L123.269 495Z" fill="#6C2863"/>
<path d="M134.094 479.327L147.039 482.147L140.135 486.662L127.622 484.936L134.094 479.327Z" fill="#6C2863"/>
<path d="M160.094 469.327L173.039 472.147L166.135 476.662L153.622 474.936L160.094 469.327Z" fill="#6C2863"/>
<path d="M158.094 483.327L171.039 486.147L164.135 490.662L151.622 488.936L158.094 483.327Z" fill="#6C2863"/>
<path d="M182.094 474.327L195.039 477.147L188.135 481.662L175.622 479.936L182.094 474.327Z" fill="#6C2863"/>
<path d="M179.094 488.327L192.039 491.147L185.135 495.662L172.622 493.936L179.094 488.327Z" fill="#6C2863"/>
<path d="M203.094 478.327L216.039 481.147L209.135 485.662L196.622 483.936L203.094 478.327Z" fill="#6C2863"/>
<path d="M201.094 491.327L214.039 494.147L207.135 498.662L194.622 496.936L201.094 491.327Z" fill="#6C2863"/>
<path d="M229.094 482.327L242.039 485.147L235.135 489.662L222.622 487.936L229.094 482.327Z" fill="#6C2863"/>
<path d="M226.094 494.327L239.039 497.147L232.135 501.662L219.622 499.936L226.094 494.327Z" fill="#6C2863"/>
<path d="M250.094 487.327L263.039 490.147L256.135 494.662L243.622 492.936L250.094 487.327Z" fill="#6C2863"/>
<path d="M248.094 499.327L261.039 502.147L254.135 506.662L241.622 504.936L248.094 499.327Z" fill="#6C2863"/>
<path d="M274.094 490.327L287.039 493.147L280.135 497.662L267.622 495.936L274.094 490.327Z" fill="#6C2863"/>
<path d="M272.094 503.327L285.039 506.147L278.135 510.662L265.622 508.936L272.094 503.327Z" fill="#6C2863"/>
<path d="M294.094 506.327L307.039 509.147L300.135 513.662L287.622 511.936L294.094 506.327Z" fill="#6C2863"/>
<path d="M287.094 522.327L300.039 525.147L293.135 529.662L280.622 527.936L287.094 522.327Z" fill="#6C2863"/>
<rect x="24" y="472" width="24" height="24" fill="#6C2863"/>
<rect x="48" y="454" width="24" height="24" fill="#6C2863"/>
<rect x="72" y="436" width="24" height="24" fill="#6C2863"/>
<rect x="96" y="417" width="24" height="24" fill="#6C2863"/>
<path d="M301.976 499.45L300.495 498.595L298.018 492.835L298.018 497.165L296.537 496.31L296.537 489.29L298.018 490.145L300.495 495.925L300.495 491.575L301.976 492.43L301.976 499.45Z" fill="#DBB072"/>
<path d="M161.992 465.13L161.992 469.33C161.992 469.75 162.081 470.125 162.26 470.455C162.439 470.785 162.702 471.05 163.048 471.25C163.395 471.45 163.66 471.49 163.845 471.37C164.03 471.25 164.122 470.98 164.122 470.56L164.122 466.36L165.603 467.215L165.603 471.405C165.603 472.032 165.488 472.495 165.257 472.795C165.026 473.095 164.714 473.242 164.321 473.235C163.935 473.232 163.502 473.092 163.022 472.815C162.543 472.538 162.113 472.183 161.732 471.75C161.357 471.313 161.059 470.815 160.84 470.255C160.621 469.688 160.511 469.092 160.511 468.465L160.511 464.275L161.992 465.13Z" fill="#DBB072"/>
<path d="M208.976 497.45L207.495 496.595L205.018 490.835L205.018 495.165L203.537 494.31L203.537 487.29L205.018 488.145L207.495 493.925L207.495 489.575L208.976 490.43L208.976 497.45Z" fill="#DBB072"/>
<path d="M254.321 503.255L252.052 501.945L251.689 502.975L250.139 502.08L252.338 496.33L254.053 497.32L256.253 505.61L254.685 504.705L254.321 503.255ZM253.94 501.715L253.187 498.71L252.442 500.85L253.94 501.715Z" fill="#DBB072"/>
<path d="M346.815 514.605C347.455 514.975 348.015 515.445 348.495 516.015C348.974 516.585 349.343 517.212 349.603 517.895C349.869 518.575 350.002 519.262 350.002 519.955C350.002 520.642 349.869 521.175 349.603 521.555C349.343 521.938 348.971 522.137 348.486 522.15C348.007 522.167 347.45 521.992 346.815 521.625L344.537 520.31L344.537 513.29L346.815 514.605ZM346.719 520.09C347.279 520.413 347.715 520.488 348.027 520.315C348.339 520.142 348.495 519.732 348.495 519.085C348.495 518.438 348.339 517.845 348.027 517.305C347.715 516.765 347.279 516.333 346.719 516.01L346.018 515.605L346.018 519.685L346.719 520.09Z" fill="#DBB072"/>
<rect x="333" y="228" width="24" height="24" fill="#6C2863"/>
<rect x="357" y="234" width="24" height="24" fill="#6C2863"/>
<rect x="381" y="238" width="24" height="24" fill="#6C2863"/>
<rect x="405" y="242" width="24" height="24" fill="#6C2863"/>
<rect x="429" y="246" width="24" height="24" fill="#6C2863"/>
<rect x="453" y="248" width="24" height="24" fill="#6C2863"/>
<rect x="477" y="248" width="24" height="24" fill="#6C2863"/>
<rect x="501" y="252" width="24" height="24" fill="#6C2863"/>
<rect x="333" y="72" width="24" height="24" fill="#6C2863"/>
<rect x="357" y="69" width="24" height="24" fill="#6C2863"/>
<rect x="381" y="71" width="24" height="24" fill="#6C2863"/>
<rect x="405" y="71" width="24" height="24" fill="#6C2863"/>
<rect x="429" y="73" width="24" height="24" fill="#6C2863"/>
<rect x="453" y="74" width="24" height="24" fill="#6C2863"/>
<rect x="477" y="76" width="24" height="24" fill="#6C2863"/>
<rect x="501" y="78" width="24" height="24" fill="#6C2863"/>
<rect x="525" y="80" width="24" height="24" fill="#6C2863"/>
<rect x="532" y="104" width="24" height="24" fill="#6C2863"/>
<rect x="532" y="128" width="24" height="24" fill="#6C2863"/>
<rect x="333" y="96" width="24" height="24" fill="#6C2863"/>
<rect x="532" y="152" width="24" height="24" fill="#6C2863"/>
<rect x="333" y="120" width="24" height="24" fill="#6C2863"/>
<rect x="532" y="176" width="24" height="24" fill="#6C2863"/>
<rect x="333" y="144" width="24" height="24" fill="#6C2863"/>
<rect x="532" y="200" width="24" height="24" fill="#6C2863"/>
<rect x="333" y="168" width="24" height="24" fill="#6C2863"/>
<rect x="532" y="224" width="24" height="24" fill="#6C2863"/>
<rect x="333" y="192" width="24" height="24" fill="#6C2863"/>
<rect x="532" y="248" width="24" height="24" fill="#6C2863"/>
<rect x="333" y="216" width="24" height="24" fill="#6C2863"/>
<rect x="522" y="252" width="24" height="24" fill="#6C2863"/>
<rect x="419.421" y="115" width="3.07895" height="3.07895" fill="#DBB072"/>
<rect x="419.421" y="118.079" width="3.07895" height="3.07895" fill="#DBB072"/>
<rect x="419.421" y="121.158" width="3.07895" height="3.07895" fill="#DBB072"/>
<rect x="419.421" y="124.237" width="3.07895" height="3.07895" fill="#DBB072"/>
<rect x="422.5" y="116.539" width="3.07895" height="3.07895" fill="#DBB072"/>
<rect x="424.809" y="117.309" width="3.07895" height="3.07895" fill="#DBB072"/>
<rect x="430.967" y="116.539" width="3.07895" height="3.07895" fill="#DBB072"/>
<rect x="430.967" y="119.618" width="3.07895" height="3.07895" fill="#DBB072"/>
<rect x="434.046" y="120.388" width="3.07895" height="3.07895" fill="#DBB072"/>
<rect x="430.967" y="124.237" width="3.07895" height="3.07895" fill="#DBB072"/>
<rect x="434.046" y="124.237" width="3.07895" height="3.07895" fill="#DBB072"/>
<rect x="434.046" y="115" width="3.07895" height="3.07895" fill="#DBB072"/>
<rect x="437.125" y="115.77" width="3.07895" height="3.07895" fill="#DBB072"/>
<rect x="437.125" y="121.928" width="3.07895" height="3.07895" fill="#DBB072"/>
<rect x="471.763" y="116.539" width="3.07895" height="3.07895" fill="#DBB072"/>
<rect x="471.763" y="119.618" width="3.07895" height="3.07895" fill="#DBB072"/>
<rect x="474.842" y="120.388" width="3.07895" height="3.07895" fill="#DBB072"/>
<rect x="471.763" y="124.237" width="3.07895" height="3.07895" fill="#DBB072"/>
<rect x="474.842" y="124.237" width="3.07895" height="3.07895" fill="#DBB072"/>
<rect x="474.842" y="115" width="3.07895" height="3.07895" fill="#DBB072"/>
<rect x="477.921" y="115.77" width="3.07895" height="3.07895" fill="#DBB072"/>
<rect x="477.921" y="121.928" width="3.07895" height="3.07895" fill="#DBB072"/>
<path d="M407.105 116.539C407.105 115.689 407.795 115 408.645 115H410.184V118.079H407.105V116.539Z" fill="#DBB072"/>
<rect x="407.105" y="118.079" width="3.07895" height="3.07895" fill="#DBB072"/>
<rect x="407.105" y="121.158" width="3.07895" height="3.07895" fill="#DBB072"/>
<path d="M407.105 124.237H410.184V127.316H408.645C407.795 127.316 407.105 126.627 407.105 125.776V124.237Z" fill="#DBB072"/>
<rect x="410.184" y="115" width="3.07895" height="3.07895" fill="#DBB072"/>
<rect x="413.263" y="117.309" width="3.07895" height="3.07895" fill="#DBB072"/>
<rect x="410.184" y="119.618" width="3.07895" height="3.07895" fill="#DBB072"/>
<rect x="410.184" y="124.237" width="3.07895" height="3.07895" fill="#DBB072"/>
<path d="M413.263 124.237H416.342V125.776C416.342 126.627 415.653 127.316 414.803 127.316H413.263V124.237Z" fill="#DBB072"/>
<rect x="394.789" y="115" width="3.07895" height="3.07895" fill="#DBB072"/>
<rect x="395.559" y="118.079" width="3.07895" height="3.07895" fill="#DBB072"/>
<rect x="396.329" y="121.158" width="3.07895" height="3.07895" fill="#DBB072"/>
<rect x="397.868" y="124.237" width="3.07895" height="3.07895" fill="#DBB072"/>
<rect x="399.408" y="121.158" width="3.07895" height="3.07895" fill="#DBB072"/>
<rect x="400.178" y="118.079" width="3.07895" height="3.07895" fill="#DBB072"/>
<rect x="400.947" y="115" width="3.07895" height="3.07895" fill="#DBB072"/>
<rect x="388.632" y="115" width="3.07895" height="3.07895" fill="#DBB072"/>
<rect x="388.632" y="118.079" width="3.07895" height="3.07895" fill="#DBB072"/>
<rect x="388.632" y="121.158" width="3.07895" height="3.07895" fill="#DBB072"/>
<rect x="388.632" y="124.237" width="3.07895" height="3.07895" fill="#DBB072"/>
<rect x="443.283" y="115" width="3.07895" height="3.07895" fill="#DBB072"/>
<rect x="443.283" y="118.079" width="3.07895" height="3.07895" fill="#DBB072"/>
<rect x="443.283" y="121.158" width="3.07895" height="3.07895" fill="#DBB072"/>
<rect x="443.283" y="124.237" width="3.07895" height="3.07895" fill="#DBB072"/>
<rect x="459.447" y="121.158" width="3.07895" height="3.07895" fill="#DBB072"/>
<rect x="462.526" y="121.928" width="3.07895" height="3.07895" fill="#DBB072"/>
<rect x="465.605" y="115" width="3.07895" height="3.07895" fill="#DBB072"/>
<rect x="465.605" y="118.079" width="3.07895" height="3.07895" fill="#DBB072"/>
<rect x="465.605" y="121.158" width="3.07895" height="3.07895" fill="#DBB072"/>
<rect x="465.605" y="124.237" width="3.07895" height="3.07895" fill="#DBB072"/>
<rect x="462.526" y="115.77" width="3.07895" height="3.07895" fill="#DBB072"/>
<rect x="459.447" y="118.079" width="3.07895" height="3.07895" fill="#DBB072"/>
<rect x="449.441" y="115" width="3.07895" height="3.07895" fill="#DBB072"/>
<rect x="449.441" y="118.079" width="3.07895" height="3.07895" fill="#DBB072"/>
<rect x="449.441" y="121.158" width="3.07895" height="3.07895" fill="#DBB072"/>
<rect x="449.441" y="124.237" width="3.07895" height="3.07895" fill="#DBB072"/>
<rect x="452.52" y="124.237" width="3.07895" height="3.07895" fill="#DBB072"/>
<rect x="452.52" y="119.618" width="3.07895" height="3.07895" fill="#DBB072"/>
<rect x="364" y="115" width="3.07895" height="3.07895" fill="#DBB072"/>
<rect x="364" y="118.079" width="3.07895" height="3.07895" fill="#DBB072"/>
<rect x="364" y="121.158" width="3.07895" height="3.07895" fill="#DBB072"/>
<rect x="367.079" y="124.237" width="3.07895" height="3.07895" fill="#DBB072"/>
<rect x="370.158" y="118.079" width="3.07895" height="3.07895" fill="#DBB072"/>
<rect x="370.158" y="121.158" width="3.07895" height="3.07895" fill="#DBB072"/>
<rect x="370.158" y="115" width="3.07895" height="3.07895" fill="#DBB072"/>
<rect x="376.316" y="121.158" width="3.07895" height="3.07895" fill="#DBB072"/>
<rect x="376.316" y="124.237" width="3.07895" height="3.07895" fill="#DBB072"/>
<rect x="379.395" y="115" width="3.07895" height="3.07895" fill="#DBB072"/>
<rect x="382.474" y="124.237" width="3.07895" height="3.07895" fill="#DBB072"/>
<rect x="382.474" y="121.158" width="3.07895" height="3.07895" fill="#DBB072"/>
<rect x="382.474" y="118.079" width="3.07895" height="3.07895" fill="#DBB072"/>
<rect x="376.316" y="115" width="3.07895" height="3.07895" fill="#DBB072"/>
<rect x="376.316" y="118.079" width="3.07895" height="3.07895" fill="#DBB072"/>
<rect x="431.737" y="134.243" width="3.07895" height="3.07895" fill="#DBB072"/>
<rect x="431.737" y="137.322" width="3.07895" height="3.07895" fill="#DBB072"/>
<rect x="434.816" y="138.092" width="3.07895" height="3.07895" fill="#DBB072"/>
<rect x="431.737" y="141.941" width="3.07895" height="3.07895" fill="#DBB072"/>
<rect x="434.816" y="141.941" width="3.07895" height="3.07895" fill="#DBB072"/>
<rect x="434.816" y="132.704" width="3.07895" height="3.07895" fill="#DBB072"/>
<rect x="437.895" y="133.474" width="3.07895" height="3.07895" fill="#DBB072"/>
<rect x="437.895" y="139.632" width="3.07895" height="3.07895" fill="#DBB072"/>
<rect x="413.263" y="132.704" width="3.07895" height="3.07895" fill="#DBB072"/>
<rect x="413.263" y="135.783" width="3.07895" height="3.07895" fill="#DBB072"/>
<rect x="413.263" y="138.862" width="3.07895" height="3.07895" fill="#DBB072"/>
<rect x="413.263" y="141.941" width="3.07895" height="3.07895" fill="#DBB072"/>
<rect x="364" y="138.862" width="3.07895" height="3.07895" fill="#DBB072"/>
<rect x="367.079" y="139.632" width="3.07895" height="3.07895" fill="#DBB072"/>
<rect x="370.158" y="132.704" width="3.07895" height="3.07895" fill="#DBB072"/>
<rect x="370.158" y="135.783" width="3.07895" height="3.07895" fill="#DBB072"/>
<rect x="370.158" y="138.862" width="3.07895" height="3.07895" fill="#DBB072"/>
<rect x="370.158" y="141.941" width="3.07895" height="3.07895" fill="#DBB072"/>
<rect x="367.079" y="133.474" width="3.07895" height="3.07895" fill="#DBB072"/>
<rect x="364" y="135.783" width="3.07895" height="3.07895" fill="#DBB072"/>
<rect x="400.947" y="138.862" width="3.07895" height="3.07895" fill="#DBB072"/>
<rect x="404.026" y="139.632" width="3.07895" height="3.07895" fill="#DBB072"/>
<rect x="407.105" y="132.704" width="3.07895" height="3.07895" fill="#DBB072"/>
<rect x="407.105" y="135.783" width="3.07895" height="3.07895" fill="#DBB072"/>
<rect x="407.105" y="138.862" width="3.07895" height="3.07895" fill="#DBB072"/>
<rect x="407.105" y="141.941" width="3.07895" height="3.07895" fill="#DBB072"/>
<rect x="404.026" y="133.474" width="3.07895" height="3.07895" fill="#DBB072"/>
<rect x="400.947" y="135.783" width="3.07895" height="3.07895" fill="#DBB072"/>
<rect x="419.421" y="138.862" width="3.07895" height="3.07895" fill="#DBB072"/>
<rect x="422.5" y="139.632" width="3.07895" height="3.07895" fill="#DBB072"/>
<rect x="425.579" y="132.704" width="3.07895" height="3.07895" fill="#DBB072"/>
<rect x="425.579" y="135.783" width="3.07895" height="3.07895" fill="#DBB072"/>
<rect x="425.579" y="138.862" width="3.07895" height="3.07895" fill="#DBB072"/>
<rect x="425.579" y="141.941" width="3.07895" height="3.07895" fill="#DBB072"/>
<rect x="422.5" y="133.474" width="3.07895" height="3.07895" fill="#DBB072"/>
<rect x="419.421" y="135.783" width="3.07895" height="3.07895" fill="#DBB072"/>
<rect x="376.316" y="138.862" width="3.07895" height="3.07895" fill="#DBB072"/>
<rect x="376.316" y="141.941" width="3.07895" height="3.07895" fill="#DBB072"/>
<rect x="379.395" y="132.704" width="3.07895" height="3.07895" fill="#DBB072"/>
<rect x="382.474" y="141.941" width="3.07895" height="3.07895" fill="#DBB072"/>
<rect x="382.474" y="138.862" width="3.07895" height="3.07895" fill="#DBB072"/>
<rect x="382.474" y="135.783" width="3.07895" height="3.07895" fill="#DBB072"/>
<rect x="376.316" y="132.704" width="3.07895" height="3.07895" fill="#DBB072"/>
<rect x="376.316" y="135.783" width="3.07895" height="3.07895" fill="#DBB072"/>
<rect x="388.632" y="138.862" width="3.07895" height="3.07895" fill="#DBB072"/>
<rect x="391.711" y="141.941" width="3.07895" height="3.07895" fill="#DBB072"/>
<rect x="394.789" y="132.704" width="3.07895" height="3.07895" fill="#DBB072"/>
<rect x="394.789" y="141.941" width="3.07895" height="3.07895" fill="#DBB072"/>
<rect x="394.789" y="138.862" width="3.07895" height="3.07895" fill="#DBB072"/>
<rect x="394.789" y="135.783" width="3.07895" height="3.07895" fill="#DBB072"/>
<rect x="391.711" y="135.783" width="3.07895" height="3.07895" fill="#DBB072"/>
<rect x="443" y="156" width="6" height="6" fill="#DBB072"/>
<rect x="514" y="138" width="6" height="6" fill="#DBB072"/>
<rect x="514" y="144" width="6" height="6" fill="#DBB072"/>
<rect x="514" y="150" width="6" height="6" fill="#DBB072"/>
<rect x="514" y="156" width="6" height="6" fill="#DBB072"/>
<rect x="361" y="228" width="6" height="6" fill="#DBB072"/>
<rect x="362" y="222" width="6" height="6" fill="#DBB072"/>
<rect x="363" y="216" width="6" height="6" fill="#DBB072"/>
<rect x="363" y="210" width="6" height="6" fill="#DBB072"/>
<rect x="364" y="204" width="6" height="6" fill="#DBB072"/>
<rect x="364" y="198" width="6" height="6" fill="#DBB072"/>
<rect x="364" y="192" width="6" height="6" fill="#DBB072"/>
<rect x="364" y="186" width="6" height="6" fill="#DBB072"/>
<rect x="365" y="180" width="6" height="6" fill="#DBB072"/>
<rect x="371" y="182" width="6" height="6" fill="#DBB072"/>
<rect x="377" y="182" width="6" height="6" fill="#DBB072"/>
<rect x="383" y="176" width="6" height="6" fill="#DBB072"/>
<rect x="383" y="170" width="6" height="6" fill="#DBB072"/>
<rect x="389" y="174" width="6" height="6" fill="#DBB072"/>
<rect x="395" y="177" width="6" height="6" fill="#DBB072"/>
<path d="M390.781 195L401.781 192.5V199.301L390.781 200.816V195Z" fill="#DBB072"/>
<path d="M390.5 207L401.5 205V208.985L390.5 210.5V207Z" fill="#DBB072"/>
<path d="M395 218.219L401 217.719V238H395V218.219Z" fill="#DBB072"/>
<path d="M389 230.197L395 230V238H389V230.197Z" fill="#DBB072"/>
<path d="M431.5 230.5H439V241.5L431.5 241V230.5Z" fill="#DBB072"/>
<path d="M424 216H431.5V241H423.5L424 216Z" fill="#DBB072"/>
<path d="M424 202L440 199.5V204.5L424 206.5V202Z" fill="#DBB072"/>
<path d="M425 189L440 185.5V192L425 195.5V189Z" fill="#DBB072"/>
<path d="M468.5 178L494 172V177L468.5 182.5V178Z" fill="#DBB072"/>
<path d="M467.5 195.892L489 192.5V197.5L467.5 200.392V195.892Z" fill="#DBB072"/>
<path d="M468 213.392L482.5 212V217L468 217.892V213.392Z" fill="#DBB072"/>
<path d="M370 197.392L374.5 196.5V200.5L370 201.892V197.392Z" fill="#DBB072"/>
<path d="M370 209L373.5 208.5L373 211.5L370 212V209Z" fill="#DBB072"/>
<rect x="401" y="179" width="6" height="6" fill="#DBB072"/>
<rect x="407" y="178" width="6" height="6" fill="#DBB072"/>
<rect x="413" y="177" width="6" height="6" fill="#DBB072"/>
<rect x="419" y="175" width="6" height="6" fill="#DBB072"/>
<rect x="425" y="172" width="6" height="6" fill="#DBB072"/>
<rect x="431" y="167" width="6" height="6" fill="#DBB072"/>
<rect x="437" y="162" width="6" height="6" fill="#DBB072"/>
<rect x="514" y="162" width="6" height="6" fill="#DBB072"/>
<rect x="514" y="192" width="6" height="6" fill="#DBB072"/>
<rect x="514" y="222" width="6" height="6" fill="#DBB072"/>
<rect x="514" y="168" width="6" height="6" fill="#DBB072"/>
<rect x="514" y="198" width="6" height="6" fill="#DBB072"/>
<rect x="514" y="228" width="6" height="6" fill="#DBB072"/>
<rect x="514" y="174" width="6" height="6" fill="#DBB072"/>
<rect x="514" y="204" width="6" height="6" fill="#DBB072"/>
<rect x="514" y="180" width="6" height="6" fill="#DBB072"/>
<rect x="514" y="210" width="6" height="6" fill="#DBB072"/>
<rect x="514" y="186" width="6" height="6" fill="#DBB072"/>
<rect x="514" y="216" width="6" height="6" fill="#DBB072"/>
<rect x="449" y="150" width="6" height="6" fill="#DBB072"/>
<rect x="454" y="156" width="6" height="6" fill="#DBB072"/>
<rect x="460" y="157" width="6" height="6" fill="#DBB072"/>
<rect x="466" y="159" width="6" height="6" fill="#DBB072"/>
<rect x="472" y="157" width="6" height="6" fill="#DBB072"/>
<rect x="478" y="152" width="6" height="6" fill="#DBB072"/>
<rect x="484" y="148" width="6" height="6" fill="#DBB072"/>
<rect x="490" y="144" width="6" height="6" fill="#DBB072"/>
<rect x="496" y="139" width="6" height="6" fill="#DBB072"/>
<rect x="502" y="135" width="6" height="6" fill="#DBB072"/>
<rect x="508" y="130" width="6" height="6" fill="#DBB072"/>
<rect x="514" y="126" width="6" height="6" fill="#DBB072"/>
<rect x="514" y="132" width="6" height="6" fill="#DBB072"/>
<rect x="514" y="234" width="6" height="6" fill="#DBB072"/>
<rect x="514" y="240" width="6" height="6" fill="#DBB072"/>
<rect x="514" y="246" width="6" height="6" fill="#DBB072"/>
<rect x="511" y="347" width="24" height="24" fill="#6C2863"/>
<rect x="482" y="344" width="24" height="24" fill="#DBB072"/>
<rect x="454" y="341" width="24" height="24" fill="#C1E2E3"/>
<rect x="558" y="7" width="24" height="24" fill="#6C2863"/>
<rect x="605" y="2" width="24" height="24" fill="#6C2863"/>
<rect x="565" y="463" width="24" height="24" fill="#6C2863"/>
<rect x="589" y="433" width="24" height="24" fill="#6C2863"/>
<rect x="544" y="457" width="24" height="24" fill="#6C2863"/>
<rect x="520" y="453" width="24" height="24" fill="#6C2863"/>
<rect x="497" y="449" width="24" height="24" fill="#6C2863"/>
<rect x="473" y="446" width="24" height="24" fill="#6C2863"/>
<rect x="449" y="443" width="24" height="24" fill="#6C2863"/>
<rect x="425" y="439" width="24" height="24" fill="#6C2863"/>
<rect x="401" y="436" width="24" height="24" fill="#6C2863"/>
<rect x="377" y="433" width="24" height="24" fill="#6C2863"/>
<rect x="353" y="430" width="24" height="24" fill="#6C2863"/>
<rect x="329" y="426" width="24" height="24" fill="#6C2863"/>
<rect x="589" y="457" width="24" height="24" fill="#6C2863"/>
<rect x="309" y="398" width="24" height="24" fill="#6C2863"/>
<rect x="309" y="422" width="24" height="24" fill="#6C2863"/>
<rect x="613" y="445" width="24" height="24" fill="#6C2863"/>
<rect x="637" y="433" width="24" height="24" fill="#6C2863"/>
<rect x="661" y="421" width="24" height="24" fill="#6C2863"/>
<rect x="685" y="409" width="24" height="24" fill="#6C2863"/>
<path d="M702 400H726V424H702V400Z" fill="#6C2863"/>
<rect x="606" y="21" width="24" height="24" fill="#6C2863"/>
<rect x="630" y="19" width="24" height="24" fill="#6C2863"/>
<rect x="654" y="16" width="24" height="24" fill="#6C2863"/>
<rect x="678" y="16" width="24" height="24" fill="#6C2863"/>
<rect x="702" y="16" width="24" height="24" fill="#6C2863"/>
<rect x="345" y="10" width="24" height="24" fill="#6C2863"/>
<rect x="368" y="6" width="24" height="24" fill="#6C2863"/>
<rect x="392" y="3" width="24" height="24" fill="#6C2863"/>
<rect x="486" y="1" width="24" height="24" fill="#6C2863"/>
<rect x="415" y="3" width="24" height="24" fill="#6C2863"/>
<rect x="439" y="1" width="24" height="24" fill="#6C2863"/>
<rect x="462" width="24" height="24" fill="#6C2863"/>
<rect x="534" y="2" width="24" height="24" fill="#6C2863"/>
<rect x="629" y="3" width="24" height="24" fill="#6C2863"/>
<rect x="653" y="10" width="24" height="18" fill="#6C2863"/>
<rect x="677" y="10" width="24" height="9" fill="#6C2863"/>
<rect x="702" y="136" width="24" height="24" fill="#6C2863"/>
<rect x="702" y="256" width="24" height="24" fill="#6C2863"/>
<rect x="702" y="40" width="24" height="24" fill="#6C2863"/>
<rect x="702" y="160" width="24" height="24" fill="#6C2863"/>
<rect x="702" y="280" width="24" height="24" fill="#6C2863"/>
<rect x="702" y="64" width="24" height="24" fill="#6C2863"/>
<rect x="702" y="184" width="24" height="24" fill="#6C2863"/>
<rect x="702" y="304" width="24" height="24" fill="#6C2863"/>
<rect x="702" y="88" width="24" height="24" fill="#6C2863"/>
<rect x="702" y="208" width="24" height="24" fill="#6C2863"/>
<rect x="702" y="328" width="24" height="24" fill="#6C2863"/>
<rect x="702" y="112" width="24" height="24" fill="#6C2863"/>
<rect x="702" y="232" width="24" height="24" fill="#6C2863"/>
<rect x="702" y="352" width="24" height="24" fill="#6C2863"/>
<rect x="702" y="376" width="24" height="24" fill="#6C2863"/>
<rect x="557" y="2" width="24" height="24" fill="#6C2863"/>
<rect x="536" y="4" width="24" height="24" fill="#6C2863"/>
<rect x="581" y="2" width="24" height="24" fill="#6C2863"/>
<rect x="510" y="2" width="24" height="24" fill="#6C2863"/>
<rect x="296" y="15" width="24" height="24" fill="#6C2863"/>
<rect x="320" y="15" width="24" height="24" fill="#6C2863"/>
<rect x="417" y="9" width="24" height="24" fill="#6C2863"/>
<rect x="441" y="10" width="24" height="24" fill="#6C2863"/>
<rect x="465" y="9" width="24" height="24" fill="#6C2863"/>
<rect x="568" y="409" width="24" height="24" fill="#6C2863"/>
<rect x="544" y="409" width="24" height="24" fill="#6C2863"/>
<rect x="520" y="405" width="24" height="24" fill="#6C2863"/>
<rect x="497" y="401" width="24" height="24" fill="#6C2863"/>
<rect x="473" y="398" width="24" height="24" fill="#6C2863"/>
<rect x="449" y="395" width="24" height="24" fill="#6C2863"/>
<rect x="570" y="385" width="24" height="24" fill="#6C2863"/>
<rect x="570" y="361" width="24" height="24" fill="#6C2863"/>
<rect x="291" y="326" width="24" height="24" fill="#6C2863"/>
<rect x="572" y="336" width="24" height="24" fill="#6C2863"/>
<rect x="291" y="302" width="24" height="24" fill="#6C2863"/>
<rect x="572" y="312" width="24" height="24" fill="#6C2863"/>
<rect x="291" y="278" width="24" height="24" fill="#6C2863"/>
<rect x="573" y="288" width="24" height="24" fill="#6C2863"/>
<rect x="291" y="254" width="24" height="24" fill="#6C2863"/>
<rect x="574" y="264" width="24" height="24" fill="#6C2863"/>
<rect x="292" y="230" width="24" height="24" fill="#6C2863"/>
<rect x="575" y="240" width="24" height="24" fill="#6C2863"/>
<rect x="292" y="206" width="24" height="24" fill="#6C2863"/>
<rect x="576" y="216" width="24" height="24" fill="#6C2863"/>
<rect x="293" y="182" width="24" height="24" fill="#6C2863"/>
<rect x="577" y="192" width="24" height="24" fill="#6C2863"/>
<rect x="294" y="159" width="24" height="24" fill="#6C2863"/>
<rect x="578" y="168" width="24" height="24" fill="#6C2863"/>
<rect x="294" y="135" width="24" height="24" fill="#6C2863"/>
<rect x="579" y="144" width="24" height="24" fill="#6C2863"/>
<rect x="294" y="111" width="24" height="24" fill="#6C2863"/>
<rect x="580" y="120" width="24" height="24" fill="#6C2863"/>
<rect x="295" y="87" width="24" height="24" fill="#6C2863"/>
<rect x="581" y="96" width="24" height="24" fill="#6C2863"/>
<rect x="295" y="63" width="24" height="24" fill="#6C2863"/>
<rect x="581" y="72" width="24" height="24" fill="#6C2863"/>
<rect x="295" y="39" width="24" height="24" fill="#6C2863"/>
<rect x="584" y="48" width="24" height="24" fill="#6C2863"/>
<rect x="344" y="18" width="24" height="24" fill="#6C2863"/>
<rect x="368" y="18" width="24" height="24" fill="#6C2863"/>
<rect x="392" y="18" width="24" height="24" fill="#6C2863"/>
<rect x="416" y="21" width="24" height="24" fill="#6C2863"/>
<rect x="440" y="21" width="24" height="24" fill="#6C2863"/>
<rect x="464" y="21" width="24" height="24" fill="#6C2863"/>
<rect x="488" y="24" width="24" height="24" fill="#6C2863"/>
<rect x="512" y="24" width="24" height="24" fill="#6C2863"/>
<rect x="536" y="24" width="24" height="24" fill="#6C2863"/>
<rect x="560" y="24" width="24" height="24" fill="#6C2863"/>
<rect x="582" y="24" width="24" height="24" fill="#6C2863"/>
<rect x="297" y="15" width="24" height="24" fill="#6C2863"/>
<rect x="321" y="13" width="24" height="24" fill="#6C2863"/>
<rect x="305" y="374" width="24" height="24" fill="#6C2863"/>
<rect x="425" y="391" width="24" height="24" fill="#6C2863"/>
<rect x="401" y="388" width="24" height="24" fill="#6C2863"/>
<rect x="377" y="385" width="24" height="24" fill="#6C2863"/>
<rect x="353" y="382" width="24" height="24" fill="#6C2863"/>
<rect x="329" y="378" width="24" height="24" fill="#6C2863"/>
<rect x="290" y="374" width="24" height="24" fill="#6C2863"/>
<rect x="290" y="350" width="24" height="24" fill="#6C2863"/>
</svg>
