<svg width="48" height="48" viewBox="0 0 48 48" fill="none" xmlns="http://www.w3.org/2000/svg">
<rect width="48" height="48" rx="15" fill="#6C2863"/>
<path d="M14.1712 19V16.42H18.9912V31H16.1112V19H14.1712ZM24.1973 23.28C22.8639 22.5867 22.1973 21.5133 22.1973 20.06C22.1973 19.34 22.3773 18.6867 22.7373 18.1C23.1106 17.5 23.6639 17.0267 24.3973 16.68C25.1439 16.32 26.0506 16.14 27.1173 16.14C28.1839 16.14 29.0839 16.32 29.8173 16.68C30.5639 17.0267 31.1173 17.5 31.4773 18.1C31.8506 18.6867 32.0373 19.34 32.0373 20.06C32.0373 20.7933 31.8573 21.44 31.4973 22C31.1373 22.5467 30.6573 22.9733 30.0573 23.28C30.7906 23.6 31.3639 24.0667 31.7773 24.68C32.1906 25.2933 32.3973 26.02 32.3973 26.86C32.3973 27.7667 32.1639 28.56 31.6973 29.24C31.2439 29.9067 30.6173 30.42 29.8173 30.78C29.0173 31.14 28.1173 31.32 27.1173 31.32C26.1173 31.32 25.2173 31.14 24.4173 30.78C23.6306 30.42 23.0039 29.9067 22.5373 29.24C22.0839 28.56 21.8573 27.7667 21.8573 26.86C21.8573 26.02 22.0639 25.2933 22.4773 24.68C22.8906 24.0533 23.4639 23.5867 24.1973 23.28ZM29.3173 20.46C29.3173 19.8067 29.1173 19.3 28.7173 18.94C28.3306 18.58 27.7973 18.4 27.1173 18.4C26.4506 18.4 25.9173 18.58 25.5173 18.94C25.1306 19.3 24.9373 19.8133 24.9373 20.48C24.9373 21.08 25.1373 21.56 25.5373 21.92C25.9506 22.28 26.4773 22.46 27.1173 22.46C27.7573 22.46 28.2839 22.28 28.6973 21.92C29.1106 21.5467 29.3173 21.06 29.3173 20.46ZM27.1173 24.5C26.3573 24.5 25.7373 24.6933 25.2573 25.08C24.7906 25.4667 24.5573 26.02 24.5573 26.74C24.5573 27.4067 24.7839 27.9533 25.2373 28.38C25.7039 28.7933 26.3306 29 27.1173 29C27.9039 29 28.5239 28.7867 28.9773 28.36C29.4306 27.9333 29.6573 27.3933 29.6573 26.74C29.6573 26.0333 29.4239 25.4867 28.9573 25.1C28.4906 24.7 27.8773 24.5 27.1173 24.5Z" fill="#FBEBFC"/>
</svg>
