<svg width="36" height="36" viewBox="0 0 36 36" fill="none" xmlns="http://www.w3.org/2000/svg">
<path d="M36 18C36 27.9411 27.9411 36 18 36C8.05887 36 0 27.9411 0 18C0 8.05887 8.05887 0 18 0C27.9411 0 36 8.05887 36 18Z" fill="#6C2863"/>
<path d="M16.905 25.455C16.7325 25.455 16.5675 25.38 16.455 25.23L15.6975 24.2175C15.54 24.0075 15.33 23.8875 15.105 23.8725C14.8725 23.8575 14.655 23.9625 14.475 24.15C13.3875 25.3125 12.5625 25.215 12.165 25.065C11.76 24.9075 11.0775 24.39 11.0775 22.725V14.28C11.0775 10.95 12.0375 9.9375 15.18 9.9375H20.8425C23.985 9.9375 24.945 10.95 24.945 14.28V17.475C24.945 17.7825 24.69 18.0375 24.3825 18.0375C24.075 18.0375 23.82 17.7825 23.82 17.475V14.28C23.82 11.5725 23.3475 11.0625 20.8425 11.0625H15.18C12.675 11.0625 12.2025 11.5725 12.2025 14.28V22.725C12.2025 23.5125 12.3975 23.9475 12.5775 24.015C12.7125 24.0675 13.08 23.9925 13.65 23.385C14.0625 22.95 14.6025 22.7175 15.165 22.7475C15.72 22.7775 16.245 23.07 16.5975 23.5425L17.3625 24.555C17.55 24.8025 17.4975 25.155 17.25 25.3425C17.1375 25.425 17.0175 25.455 16.905 25.455Z" fill="#FDF6FD" stroke="#FDF6FD"/>
<path d="M21 14.8125H15C14.6925 14.8125 14.4375 14.5575 14.4375 14.25C14.4375 13.9425 14.6925 13.6875 15 13.6875H21C21.3075 13.6875 21.5625 13.9425 21.5625 14.25C21.5625 14.5575 21.3075 14.8125 21 14.8125Z" fill="#FDF6FD" stroke="#FDF6FD"/>
<path d="M20.25 17.8125H15.75C15.4425 17.8125 15.1875 17.5575 15.1875 17.25C15.1875 16.9425 15.4425 16.6875 15.75 16.6875H20.25C20.5575 16.6875 20.8125 16.9425 20.8125 17.25C20.8125 17.5575 20.5575 17.8125 20.25 17.8125Z" fill="#FDF6FD" stroke="#FDF6FD"/>
<path d="M20.115 25.3352C19.83 25.3352 19.56 25.2302 19.365 25.0352C19.1325 24.8027 19.0275 24.4652 19.08 24.1127L19.2225 23.1002C19.26 22.8377 19.4175 22.5227 19.605 22.3352L22.26 19.6802C22.62 19.3202 22.9725 19.1327 23.355 19.0952C23.82 19.0502 24.285 19.2452 24.72 19.6802C25.155 20.1152 25.35 20.5727 25.305 21.0452C25.2675 21.4202 25.0725 21.7802 24.72 22.1402L22.065 24.7952C21.8775 24.9827 21.5625 25.1402 21.3 25.1777L20.2875 25.3202C20.2275 25.3277 20.175 25.3352 20.115 25.3352ZM23.4825 20.2127C23.475 20.2127 23.4675 20.2127 23.46 20.2127C23.355 20.2202 23.2125 20.3177 23.055 20.4752L20.4 23.1302C20.3775 23.1527 20.34 23.2277 20.34 23.2577L20.205 24.1952L21.1425 24.0602C21.1725 24.0527 21.2475 24.0152 21.27 23.9927L23.925 21.3377C24.0825 21.1727 24.18 21.0377 24.1875 20.9327C24.2025 20.7827 24.0525 20.6027 23.925 20.4752C23.805 20.3552 23.6325 20.2127 23.4825 20.2127Z" fill="#FDF6FD" stroke="#FDF6FD"/>
<path d="M23.9401 22.6872C23.8876 22.6872 23.8351 22.6797 23.7901 22.6647C22.8001 22.3872 22.0126 21.5997 21.7351 20.6097C21.6526 20.3097 21.8251 20.0022 22.1251 19.9122C22.4251 19.8297 22.7326 20.0022 22.8151 20.3022C22.9876 20.9172 23.4751 21.4047 24.0901 21.5772C24.3901 21.6597 24.5626 21.9747 24.4801 22.2747C24.4126 22.5222 24.1876 22.6872 23.9401 22.6872Z" fill="#FDF6FD" stroke="#FDF6FD"/>
</svg>
