<svg width="57" height="57" viewBox="0 0 57 57" fill="none" xmlns="http://www.w3.org/2000/svg">
<path d="M23.7258 40.99C26.8964 40.99 29.4667 38.72 29.4667 35.2491V9.5H36.3517C35.9655 14.1959 40.6337 18.7321 45.7819 18.6283V25.1025C41.3791 25.1025 37.6352 23.2408 36.3321 22.2076V35.2491C36.3321 40.99 31.8158 47.5 23.7258 47.5C15.6357 47.5 11.218 40.99 11.218 35.2491C11.218 27.1463 19.7928 22.447 25.4721 23.5956V30.1899C25.1864 30.0888 24.4496 29.9394 23.822 29.9394C20.6251 29.8215 17.9849 32.4145 17.9849 35.2491C17.9849 38.4197 20.5552 40.99 23.7258 40.99Z" fill="#6C2863"/>
</svg>
