<svg width="570" height="110" viewBox="0 0 570 110" fill="none" xmlns="http://www.w3.org/2000/svg">
<path d="M380 5C380 2.23858 382.239 0 385 0H390V10H380V5Z" fill="#6C2863"/>
<rect x="380" y="10" width="10" height="10" fill="#6C2863"/>
<rect x="380" y="20" width="10" height="10" fill="#6C2863"/>
<rect x="380" y="30" width="10" height="10" fill="#6C2863"/>
<rect x="390" y="30" width="10" height="10" fill="#6C2863"/>
<path d="M400 30H410V35C410 37.7614 407.761 40 405 40H400V30Z" fill="#6C2863"/>
<path d="M460 5C460 2.23858 462.239 0 465 0H470V10H460V5Z" fill="#6C2863"/>
<rect x="460" y="10" width="10" height="10" fill="#6C2863"/>
<rect x="460" y="20" width="10" height="10" fill="#6C2863"/>
<rect x="460" y="30" width="10" height="10" fill="#6C2863"/>
<rect x="465" y="10" width="10" height="10" fill="#6C2863"/>
<rect x="480" width="10" height="10" fill="#6C2863"/>
<rect x="480" y="10" width="10" height="10" fill="#6C2863"/>
<rect x="480" y="20" width="10" height="10" fill="#6C2863"/>
<rect x="475" y="20" width="10" height="10" fill="#6C2863"/>
<path d="M480 30H490V35C490 37.7614 487.761 40 485 40H480V30Z" fill="#6C2863"/>
<path d="M540 5C540 2.23858 542.239 0 545 0H550V10H540V5Z" fill="#6C2863"/>
<rect x="540" y="10" width="10" height="10" fill="#6C2863"/>
<rect x="540" y="20" width="10" height="10" fill="#6C2863"/>
<rect x="540" y="30" width="10" height="10" fill="#6C2863"/>
<rect x="545" y="10" width="10" height="10" fill="#6C2863"/>
<rect x="560" width="10" height="10" fill="#6C2863"/>
<rect x="560" y="10" width="10" height="10" fill="#6C2863"/>
<rect x="560" y="20" width="10" height="10" fill="#6C2863"/>
<rect x="555" y="20" width="10" height="10" fill="#6C2863"/>
<path d="M560 30H570V35C570 37.7614 567.761 40 565 40H560V30Z" fill="#6C2863"/>
<rect x="260" width="10" height="10" fill="#6C2863"/>
<rect x="260" y="10" width="10" height="10" fill="#6C2863"/>
<path d="M260 20H270V30H265C262.239 30 260 27.7614 260 25V20Z" fill="#6C2863"/>
<rect x="270" y="14" width="10" height="10" fill="#6C2863"/>
<rect x="270" width="10" height="10" fill="#6C2863"/>
<path d="M280 0H285C287.761 0 290 2.23858 290 5V10H280V0Z" fill="#6C2863"/>
<rect x="270" y="30" width="10" height="10" fill="#6C2863"/>
<rect x="280" y="30" width="10" height="10" fill="#6C2863"/>
<rect x="220" width="10" height="10" fill="#6C2863"/>
<rect x="220" y="10" width="10" height="10" fill="#6C2863"/>
<rect x="220" y="20" width="10" height="10" fill="#6C2863"/>
<path d="M220 30H230V40H225C222.239 40 220 37.7614 220 35V30Z" fill="#6C2863"/>
<rect x="230" width="10" height="10" fill="#6C2863"/>
<path d="M240 20H250V25C250 27.7614 247.761 30 245 30H240V20Z" fill="#6C2863"/>
<rect x="240" y="10" width="10" height="10" fill="#6C2863"/>
<rect x="230" y="20" width="10" height="10" fill="#6C2863"/>
<rect x="350" width="10" height="10" fill="#6C2863"/>
<path d="M340 15C340 12.2386 342.239 10 345 10H350V20H340V15Z" fill="#6C2863"/>
<rect x="340" y="20" width="10" height="10" fill="#6C2863"/>
<rect x="340" y="30" width="10" height="10" fill="#6C2863"/>
<rect x="360" y="20" width="10" height="10" fill="#6C2863"/>
<rect x="350" y="20" width="10" height="10" fill="#6C2863"/>
<path d="M360 30H370V35C370 37.7614 367.761 40 365 40H360V30Z" fill="#6C2863"/>
<rect x="360" y="10" width="10" height="10" fill="#6C2863"/>
<rect x="430" width="10" height="10" fill="#6C2863"/>
<path d="M420 15C420 12.2386 422.239 10 425 10H430V20H420V15Z" fill="#6C2863"/>
<rect x="420" y="20" width="10" height="10" fill="#6C2863"/>
<rect x="420" y="30" width="10" height="10" fill="#6C2863"/>
<rect x="440" y="20" width="10" height="10" fill="#6C2863"/>
<rect x="430" y="20" width="10" height="10" fill="#6C2863"/>
<path d="M440 30H450V35C450 37.7614 447.761 40 445 40H440V30Z" fill="#6C2863"/>
<rect x="440" y="10" width="10" height="10" fill="#6C2863"/>
<rect x="510" width="10" height="10" fill="#6C2863"/>
<path d="M500 15C500 12.2386 502.239 10 505 10H510V20H500V15Z" fill="#6C2863"/>
<rect x="500" y="20" width="10" height="10" fill="#6C2863"/>
<rect x="500" y="30" width="10" height="10" fill="#6C2863"/>
<rect x="520" y="20" width="10" height="10" fill="#6C2863"/>
<rect x="510" y="20" width="10" height="10" fill="#6C2863"/>
<path d="M520 30H530V35C530 37.7614 527.761 40 525 40H520V30Z" fill="#6C2863"/>
<rect x="520" y="10" width="10" height="10" fill="#6C2863"/>
<path d="M320 5C320 2.23858 322.239 0 325 0H330V10H320V5Z" fill="#6C2863"/>
<rect x="320" y="10" width="10" height="10" fill="#6C2863"/>
<rect x="320" y="20" width="10" height="10" fill="#6C2863"/>
<path d="M320 30H330V35C330 37.7614 327.761 40 325 40H320V30Z" fill="#6C2863"/>
<rect x="310" y="30" width="10" height="10" fill="#6C2863"/>
<rect x="300" y="30" width="10" height="10" fill="#6C2863"/>
<path d="M300 25C300 22.2386 302.239 20 305 20H310V30H300V25Z" fill="#6C2863"/>
<rect x="40" width="10" height="10" fill="#6C2863"/>
<rect x="40" y="10" width="10" height="10" fill="#6C2863"/>
<path d="M40 20H50V30H45C42.2386 30 40 27.7614 40 25V20Z" fill="#6C2863"/>
<rect x="50" y="14" width="10" height="10" fill="#6C2863"/>
<rect x="50" width="10" height="10" fill="#6C2863"/>
<path d="M60 0H65C67.7614 0 70 2.23858 70 5V10H60V0Z" fill="#6C2863"/>
<rect x="50" y="30" width="10" height="10" fill="#6C2863"/>
<rect x="60" y="30" width="10" height="10" fill="#6C2863"/>
<rect x="130" width="10" height="10" fill="#6C2863"/>
<path d="M120 15C120 12.2386 122.239 10 125 10H130V20H120V15Z" fill="#6C2863"/>
<rect x="120" y="20" width="10" height="10" fill="#6C2863"/>
<rect x="120" y="30" width="10" height="10" fill="#6C2863"/>
<rect x="140" y="20" width="10" height="10" fill="#6C2863"/>
<rect x="130" y="20" width="10" height="10" fill="#6C2863"/>
<path d="M140 30H150V35C150 37.7614 147.761 40 145 40H140V30Z" fill="#6C2863"/>
<rect x="140" y="10" width="10" height="10" fill="#6C2863"/>
<path d="M20 5C20 2.23858 22.2386 0 25 0H30V10H20V5Z" fill="#6C2863"/>
<rect x="20" y="10" width="10" height="10" fill="#6C2863"/>
<rect x="20" y="20" width="10" height="10" fill="#6C2863"/>
<path d="M20 30H30V35C30 37.7614 27.7614 40 25 40H20V30Z" fill="#6C2863"/>
<rect x="10" y="30" width="10" height="10" fill="#6C2863"/>
<rect y="30" width="10" height="10" fill="#6C2863"/>
<path d="M0 25C0 22.2386 2.23858 20 5 20H10V30H0V25Z" fill="#6C2863"/>
<path d="M100 5C100 2.23858 102.239 0 105 0H110V10H100V5Z" fill="#6C2863"/>
<rect x="100" y="10" width="10" height="10" fill="#6C2863"/>
<rect x="100" y="20" width="10" height="10" fill="#6C2863"/>
<path d="M100 30H110V35C110 37.7614 107.761 40 105 40H100V30Z" fill="#6C2863"/>
<rect x="90" y="30" width="10" height="10" fill="#6C2863"/>
<rect x="80" y="30" width="10" height="10" fill="#6C2863"/>
<path d="M80 25C80 22.2386 82.2386 20 85 20H90V30H80V25Z" fill="#6C2863"/>
<rect x="160" width="10" height="10" fill="#6C2863"/>
<rect x="170" y="20" width="10" height="10" fill="#6C2863"/>
<rect x="180" y="30" width="10" height="10" fill="#6C2863"/>
<rect x="175" y="10" width="10" height="10" fill="#6C2863"/>
<path d="M180 0H185C187.761 0 190 2.23858 190 5V10H180V0Z" fill="#6C2863"/>
<rect x="160" y="20" width="10" height="10" fill="#6C2863"/>
<rect x="160" y="10" width="10" height="10" fill="#6C2863"/>
<path d="M160 30H170V40H165C162.239 40 160 37.7614 160 35V30Z" fill="#6C2863"/>
<path d="M360 75C360 72.2386 362.239 70 365 70H370V80H360V75Z" fill="#6C2863"/>
<rect x="360" y="90" width="10" height="10" fill="#6C2863"/>
<rect x="360" y="80" width="10" height="10" fill="#6C2863"/>
<rect x="360" y="100" width="10" height="10" fill="#6C2863"/>
<rect x="320" y="70" width="10" height="10" fill="#6C2863"/>
<rect x="330" y="70" width="10" height="10" fill="#6C2863"/>
<rect x="340" y="70" width="10" height="10" fill="#6C2863"/>
<rect x="330" y="80" width="10" height="10" fill="#6C2863"/>
<rect x="330" y="90" width="10" height="10" fill="#6C2863"/>
<path d="M330 100H340V105C340 107.761 337.761 110 335 110H330V100Z" fill="#6C2863"/>
<path d="M280 100H290V110H285C282.239 110 280 107.761 280 105V100Z" fill="#6C2863"/>
<rect x="280" y="90" width="10" height="10" fill="#6C2863"/>
<rect x="280" y="80" width="10" height="10" fill="#6C2863"/>
<rect x="280" y="70" width="10" height="10" fill="#6C2863"/>
<rect x="295" y="80" width="10" height="10" fill="#6C2863"/>
<rect x="300" y="100" width="10" height="10" fill="#6C2863"/>
<rect x="290" y="90" width="10" height="10" fill="#6C2863"/>
<path d="M300 70H305C307.761 70 310 72.2386 310 75V80H300V70Z" fill="#6C2863"/>
<rect x="250" y="70" width="10" height="10" fill="#6C2863"/>
<rect x="250" y="90" width="10" height="10" fill="#6C2863"/>
<path d="M260 100H270V105C270 107.761 267.761 110 265 110H260V100Z" fill="#6C2863"/>
<rect x="260" y="80" width="10" height="10" fill="#6C2863"/>
<path d="M240 85C240 82.2386 242.239 80 245 80H250V90H240V85Z" fill="#6C2863"/>
<rect x="240" y="90" width="10" height="10" fill="#6C2863"/>
<rect x="240" y="100" width="10" height="10" fill="#6C2863"/>
<rect x="260" y="90" width="10" height="10" fill="#6C2863"/>
<path d="M220 100H230V105C230 107.761 227.761 110 225 110H220V100Z" fill="#6C2863"/>
<rect x="200" y="90" width="10" height="10" fill="#6C2863"/>
<rect x="200" y="80" width="10" height="10" fill="#6C2863"/>
<path d="M200 75C200 72.2386 202.239 70 205 70H210V80H200V75Z" fill="#6C2863"/>
<rect x="210" y="70" width="10" height="10" fill="#6C2863"/>
<rect x="210" y="100" width="10" height="10" fill="#6C2863"/>
<rect x="210" y="85" width="10" height="10" fill="#6C2863"/>
<rect x="220" y="92.5" width="10" height="10" fill="#6C2863"/>
<rect x="220" y="77.5" width="10" height="10" fill="#6C2863"/>
<rect x="397.81" y="80.4763" width="4.7619" height="4.7619" fill="#221737"/>
<rect x="395.905" y="81.4287" width="4.7619" height="4.7619" fill="#221737"/>
<rect x="394.952" y="83.3335" width="4.7619" height="4.7619" fill="#221737"/>
<rect x="394" y="86.6667" width="4.7619" height="4.7619" fill="#221737"/>
<rect x="394.476" y="90.0001" width="4.7619" height="4.7619" fill="#221737"/>
<rect x="395.428" y="92.3811" width="4.7619" height="4.7619" fill="#221737"/>
<rect x="396.381" y="94.2859" width="4.7619" height="4.7619" fill="#221737"/>
<rect x="397.333" y="95.2382" width="4.7619" height="4.7619" fill="#221737"/>
<rect x="400.667" y="94.2859" width="4.7619" height="4.7619" fill="#221737"/>
<rect x="403.048" y="93.8097" width="4.7619" height="4.7619" fill="#221737"/>
<rect x="404.476" y="92.3811" width="4.7619" height="4.7619" fill="#221737"/>
<rect x="403.048" y="89.5239" width="4.7619" height="4.7619" fill="#221737"/>
<rect x="398.762" y="90.0001" width="4.7619" height="4.7619" fill="#221737"/>
<rect x="398.286" y="87.1429" width="4.7619" height="4.7619" fill="#221737"/>
<rect x="399.238" y="81.4287" width="4.7619" height="4.7619" fill="#221737"/>
<rect x="400.19" y="82.8573" width="4.7619" height="4.7619" fill="#221737"/>
<rect x="401.143" y="84.7621" width="4.7619" height="4.7619" fill="#221737"/>
<rect x="402.095" y="86.6667" width="4.7619" height="4.7619" fill="#221737"/>
<rect x="402.572" y="88.0953" width="4.7619" height="4.7619" fill="#221737"/>
<rect x="403.524" y="90.9525" width="4.7619" height="4.7619" fill="#221737"/>
<rect x="396.381" y="84.7621" width="4.7619" height="4.7619" fill="#221737"/>
<rect x="400.667" y="103.81" width="4.7619" height="4.7619" fill="#221737"/>
<rect x="402.572" y="102.857" width="4.7619" height="4.7619" fill="#221737"/>
<rect x="404.952" y="102.381" width="4.7619" height="4.7619" fill="#221737"/>
<rect x="405.905" y="101.429" width="4.7619" height="4.7619" fill="#221737"/>
<rect x="402.095" y="105.238" width="4.7619" height="4.7619" fill="#221737"/>
<rect x="400.19" y="103.333" width="4.7619" height="4.7619" fill="#221737"/>
<rect x="405.428" y="104.762" width="4.7619" height="4.7619" fill="#221737"/>
<rect x="406.857" y="102.857" width="4.7619" height="4.7619" fill="#221737"/>
<rect width="4.76191" height="4.7619" transform="matrix(-0.984808 0.173648 0.173648 0.984808 423.79 70.6615)" fill="#221737"/>
<rect width="4.76191" height="4.7619" transform="matrix(-0.984808 0.173648 0.173648 0.984808 425.831 71.2686)" fill="#221737"/>
<rect width="4.76191" height="4.7619" transform="matrix(-0.984808 0.173648 0.173648 0.984808 427.1 72.9791)" fill="#221737"/>
<rect width="4.76191" height="4.7619" transform="matrix(-0.984808 0.173648 0.173648 0.984808 428.617 76.0964)" fill="#221737"/>
<rect width="4.76191" height="4.7619" transform="matrix(-0.984808 0.173648 0.173648 0.984808 428.727 79.4618)" fill="#221737"/>
<rect width="4.76191" height="4.7619" transform="matrix(-0.984808 0.173648 0.173648 0.984808 428.202 81.9719)" fill="#221737"/>
<rect width="4.76191" height="4.7619" transform="matrix(-0.984808 0.173648 0.173648 0.984808 427.595 84.0131)" fill="#221737"/>
<rect width="4.76191" height="4.7619" transform="matrix(-0.984808 0.173648 0.173648 0.984808 426.823 85.1163)" fill="#221737"/>
<rect width="4.76191" height="4.7619" transform="matrix(-0.984808 0.173648 0.173648 0.984808 423.374 84.7574)" fill="#221737"/>
<rect width="4.76191" height="4.7619" transform="matrix(-0.984808 0.173648 0.173648 0.984808 420.947 84.7019)" fill="#221737"/>
<rect width="4.76191" height="4.7619" transform="matrix(-0.984808 0.173648 0.173648 0.984808 419.292 83.5431)" fill="#221737"/>
<rect width="4.76191" height="4.7619" transform="matrix(-0.984808 0.173648 0.173648 0.984808 420.203 80.4813)" fill="#221737"/>
<rect width="4.76191" height="4.7619" transform="matrix(-0.984808 0.173648 0.173648 0.984808 424.506 80.2062)" fill="#221737"/>
<rect width="4.76191" height="4.7619" transform="matrix(-0.984808 0.173648 0.173648 0.984808 424.479 77.3096)" fill="#221737"/>
<rect width="4.76191" height="4.7619" transform="matrix(-0.984808 0.173648 0.173648 0.984808 422.549 71.8474)" fill="#221737"/>
<rect width="4.76191" height="4.7619" transform="matrix(-0.984808 0.173648 0.173648 0.984808 421.859 73.4197)" fill="#221737"/>
<rect width="4.76191" height="4.7619" transform="matrix(-0.984808 0.173648 0.173648 0.984808 421.251 75.4609)" fill="#221737"/>
<rect width="4.76191" height="4.7619" transform="matrix(-0.984808 0.173648 0.173648 0.984808 420.645 77.5022)" fill="#221737"/>
<rect width="4.76191" height="4.7619" transform="matrix(-0.984808 0.173648 0.173648 0.984808 420.424 78.9917)" fill="#221737"/>
<rect width="4.76191" height="4.7619" transform="matrix(-0.984808 0.173648 0.173648 0.984808 419.982 81.9708)" fill="#221737"/>
<rect width="4.76191" height="4.7619" transform="matrix(-0.984808 0.173648 0.173648 0.984808 425.941 74.634)" fill="#221737"/>
<rect width="4.76191" height="4.7619" transform="matrix(-0.984808 0.173648 0.173648 0.984808 425.028 94.1365)" fill="#221737"/>
<rect width="4.76191" height="4.7619" transform="matrix(-0.984808 0.173648 0.173648 0.984808 422.987 93.5293)" fill="#221737"/>
<rect width="4.76191" height="4.7619" transform="matrix(-0.984808 0.173648 0.173648 0.984808 420.56 93.4739)" fill="#221737"/>
<rect width="4.76191" height="4.7619" transform="matrix(-0.984808 0.173648 0.173648 0.984808 419.456 92.7014)" fill="#221737"/>
<rect width="4.76191" height="4.7619" transform="matrix(-0.984808 0.173648 0.173648 0.984808 423.869 95.7914)" fill="#221737"/>
<rect width="4.76191" height="4.7619" transform="matrix(-0.984808 0.173648 0.173648 0.984808 425.414 93.585)" fill="#221737"/>
<rect width="4.76191" height="4.7619" transform="matrix(-0.984808 0.173648 0.173648 0.984808 420.504 95.9012)" fill="#221737"/>
<rect width="4.76191" height="4.7619" transform="matrix(-0.984808 0.173648 0.173648 0.984808 418.766 94.2736)" fill="#221737"/>
</svg>
