<svg width="1272" height="486" viewBox="0 0 1272 486" fill="none" xmlns="http://www.w3.org/2000/svg">
<rect y="179" width="24" height="128" fill="#221737"/>
<rect x="24" y="179" width="24" height="1224" transform="rotate(-90 24 179)" fill="#221737"/>
<rect x="24" y="331" width="24" height="1224" transform="rotate(-90 24 331)" fill="#221737"/>
<rect x="1248" y="179" width="24" height="128" fill="#221737"/>
<rect x="60" y="215" width="230" height="56" fill="#6C2863"/>
<path d="M118.839 19.2C118.839 17.4667 119.214 15.925 119.964 14.575C120.714 13.2083 121.755 12.15 123.089 11.4C124.439 10.6333 125.964 10.25 127.664 10.25C129.747 10.25 131.53 10.8 133.014 11.9C134.497 13 135.489 14.5 135.989 16.4H131.289C130.939 15.6667 130.439 15.1083 129.789 14.725C129.155 14.3417 128.43 14.15 127.614 14.15C126.297 14.15 125.23 14.6083 124.414 15.525C123.597 16.4417 123.189 17.6667 123.189 19.2C123.189 20.7333 123.597 21.9583 124.414 22.875C125.23 23.7917 126.297 24.25 127.614 24.25C128.43 24.25 129.155 24.0583 129.789 23.675C130.439 23.2917 130.939 22.7333 131.289 22H135.989C135.489 23.9 134.497 25.4 133.014 26.5C131.53 27.5833 129.747 28.125 127.664 28.125C125.964 28.125 124.439 27.75 123.089 27C121.755 26.2333 120.714 25.175 119.964 23.825C119.214 22.475 118.839 20.9333 118.839 19.2ZM144.957 28.2C143.59 28.2 142.357 27.9083 141.257 27.325C140.173 26.7417 139.315 25.9083 138.682 24.825C138.065 23.7417 137.757 22.475 137.757 21.025C137.757 19.5917 138.073 18.3333 138.707 17.25C139.34 16.15 140.207 15.3083 141.307 14.725C142.407 14.1417 143.64 13.85 145.007 13.85C146.373 13.85 147.607 14.1417 148.707 14.725C149.807 15.3083 150.673 16.15 151.307 17.25C151.94 18.3333 152.257 19.5917 152.257 21.025C152.257 22.4583 151.932 23.725 151.282 24.825C150.648 25.9083 149.773 26.7417 148.657 27.325C147.557 27.9083 146.323 28.2 144.957 28.2ZM144.957 24.5C145.773 24.5 146.465 24.2 147.032 23.6C147.615 23 147.907 22.1417 147.907 21.025C147.907 19.9083 147.623 19.05 147.057 18.45C146.507 17.85 145.823 17.55 145.007 17.55C144.173 17.55 143.482 17.85 142.932 18.45C142.382 19.0333 142.107 19.8917 142.107 21.025C142.107 22.1417 142.373 23 142.907 23.6C143.457 24.2 144.14 24.5 144.957 24.5ZM172.325 13.9C174.058 13.9 175.433 14.425 176.45 15.475C177.483 16.525 178 17.9833 178 19.85V28H173.75V20.425C173.75 19.525 173.508 18.8333 173.025 18.35C172.558 17.85 171.908 17.6 171.075 17.6C170.241 17.6 169.583 17.85 169.1 18.35C168.633 18.8333 168.4 19.525 168.4 20.425V28H164.15V20.425C164.15 19.525 163.908 18.8333 163.425 18.35C162.958 17.85 162.308 17.6 161.475 17.6C160.641 17.6 159.983 17.85 159.5 18.35C159.033 18.8333 158.8 19.525 158.8 20.425V28H154.525V14.05H158.8V15.8C159.233 15.2167 159.8 14.7583 160.5 14.425C161.2 14.075 161.991 13.9 162.875 13.9C163.925 13.9 164.858 14.125 165.675 14.575C166.508 15.025 167.158 15.6667 167.625 16.5C168.108 15.7333 168.766 15.1083 169.6 14.625C170.433 14.1417 171.341 13.9 172.325 13.9ZM183.139 12.6C182.389 12.6 181.773 12.3833 181.289 11.95C180.823 11.5 180.589 10.95 180.589 10.3C180.589 9.63333 180.823 9.08333 181.289 8.65C181.773 8.2 182.389 7.975 183.139 7.975C183.873 7.975 184.473 8.2 184.939 8.65C185.423 9.08333 185.664 9.63333 185.664 10.3C185.664 10.95 185.423 11.5 184.939 11.95C184.473 12.3833 183.873 12.6 183.139 12.6ZM185.264 14.05V28H180.989V14.05H185.264ZM196.863 13.9C198.496 13.9 199.796 14.4333 200.763 15.5C201.746 16.55 202.238 18 202.238 19.85V28H197.988V20.425C197.988 19.4917 197.746 18.7667 197.263 18.25C196.779 17.7333 196.129 17.475 195.313 17.475C194.496 17.475 193.846 17.7333 193.363 18.25C192.879 18.7667 192.638 19.4917 192.638 20.425V28H188.363V14.05H192.638V15.9C193.071 15.2833 193.654 14.8 194.388 14.45C195.121 14.0833 195.946 13.9 196.863 13.9ZM210.508 13.85C211.492 13.85 212.35 14.05 213.083 14.45C213.833 14.85 214.408 15.375 214.808 16.025V14.05H219.083V27.975C219.083 29.2583 218.825 30.4167 218.308 31.45C217.808 32.5 217.033 33.3333 215.983 33.95C214.95 34.5667 213.658 34.875 212.108 34.875C210.042 34.875 208.367 34.3833 207.083 33.4C205.8 32.4333 205.067 31.1167 204.883 29.45H209.108C209.242 29.9833 209.558 30.4 210.058 30.7C210.558 31.0167 211.175 31.175 211.908 31.175C212.792 31.175 213.492 30.9167 214.008 30.4C214.542 29.9 214.808 29.0917 214.808 27.975V26C214.392 26.65 213.817 27.1833 213.083 27.6C212.35 28 211.492 28.2 210.508 28.2C209.358 28.2 208.317 27.9083 207.383 27.325C206.45 26.725 205.708 25.8833 205.158 24.8C204.625 23.7 204.358 22.4333 204.358 21C204.358 19.5667 204.625 18.3083 205.158 17.225C205.708 16.1417 206.45 15.3083 207.383 14.725C208.317 14.1417 209.358 13.85 210.508 13.85ZM214.808 21.025C214.808 19.9583 214.508 19.1167 213.908 18.5C213.325 17.8833 212.608 17.575 211.758 17.575C210.908 17.575 210.183 17.8833 209.583 18.5C209 19.1 208.708 19.9333 208.708 21C208.708 22.0667 209 22.9167 209.583 23.55C210.183 24.1667 210.908 24.475 211.758 24.475C212.608 24.475 213.325 24.1667 213.908 23.55C214.508 22.9333 214.808 22.0917 214.808 21.025ZM233.824 28.175C232.54 28.175 231.39 27.9667 230.374 27.55C229.357 27.1333 228.54 26.5167 227.924 25.7C227.324 24.8833 227.007 23.9 226.974 22.75H231.524C231.59 23.4 231.815 23.9 232.199 24.25C232.582 24.5833 233.082 24.75 233.699 24.75C234.332 24.75 234.832 24.6083 235.199 24.325C235.565 24.025 235.749 23.6167 235.749 23.1C235.749 22.6667 235.599 22.3083 235.299 22.025C235.015 21.7417 234.657 21.5083 234.224 21.325C233.807 21.1417 233.207 20.9333 232.424 20.7C231.29 20.35 230.365 20 229.649 19.65C228.932 19.3 228.315 18.7833 227.799 18.1C227.282 17.4167 227.024 16.525 227.024 15.425C227.024 13.7917 227.615 12.5167 228.799 11.6C229.982 10.6667 231.524 10.2 233.424 10.2C235.357 10.2 236.915 10.6667 238.099 11.6C239.282 12.5167 239.915 13.8 239.999 15.45H235.374C235.34 14.8833 235.132 14.4417 234.749 14.125C234.365 13.7917 233.874 13.625 233.274 13.625C232.757 13.625 232.34 13.7667 232.024 14.05C231.707 14.3167 231.549 14.7083 231.549 15.225C231.549 15.7917 231.815 16.2333 232.349 16.55C232.882 16.8667 233.715 17.2083 234.849 17.575C235.982 17.9583 236.899 18.325 237.599 18.675C238.315 19.025 238.932 19.5333 239.449 20.2C239.965 20.8667 240.224 21.725 240.224 22.775C240.224 23.775 239.965 24.6833 239.449 25.5C238.949 26.3167 238.215 26.9667 237.249 27.45C236.282 27.9333 235.14 28.175 233.824 28.175ZM249.205 28.2C247.838 28.2 246.605 27.9083 245.505 27.325C244.421 26.7417 243.563 25.9083 242.93 24.825C242.313 23.7417 242.005 22.475 242.005 21.025C242.005 19.5917 242.321 18.3333 242.955 17.25C243.588 16.15 244.455 15.3083 245.555 14.725C246.655 14.1417 247.888 13.85 249.255 13.85C250.621 13.85 251.855 14.1417 252.955 14.725C254.055 15.3083 254.921 16.15 255.555 17.25C256.188 18.3333 256.505 19.5917 256.505 21.025C256.505 22.4583 256.18 23.725 255.53 24.825C254.896 25.9083 254.021 26.7417 252.905 27.325C251.805 27.9083 250.571 28.2 249.205 28.2ZM249.205 24.5C250.021 24.5 250.713 24.2 251.28 23.6C251.863 23 252.155 22.1417 252.155 21.025C252.155 19.9083 251.871 19.05 251.305 18.45C250.755 17.85 250.071 17.55 249.255 17.55C248.421 17.55 247.73 17.85 247.18 18.45C246.63 19.0333 246.355 19.8917 246.355 21.025C246.355 22.1417 246.621 23 247.155 23.6C247.705 24.2 248.388 24.5 249.205 24.5ZM265.123 28.2C263.756 28.2 262.523 27.9083 261.423 27.325C260.339 26.7417 259.481 25.9083 258.848 24.825C258.231 23.7417 257.923 22.475 257.923 21.025C257.923 19.5917 258.239 18.3333 258.873 17.25C259.506 16.15 260.373 15.3083 261.473 14.725C262.573 14.1417 263.806 13.85 265.173 13.85C266.539 13.85 267.773 14.1417 268.873 14.725C269.973 15.3083 270.839 16.15 271.473 17.25C272.106 18.3333 272.423 19.5917 272.423 21.025C272.423 22.4583 272.098 23.725 271.448 24.825C270.814 25.9083 269.939 26.7417 268.823 27.325C267.723 27.9083 266.489 28.2 265.123 28.2ZM265.123 24.5C265.939 24.5 266.631 24.2 267.198 23.6C267.781 23 268.073 22.1417 268.073 21.025C268.073 19.9083 267.789 19.05 267.223 18.45C266.673 17.85 265.989 17.55 265.173 17.55C264.339 17.55 263.648 17.85 263.098 18.45C262.548 19.0333 262.273 19.8917 262.273 21.025C262.273 22.1417 262.539 23 263.073 23.6C263.623 24.2 264.306 24.5 265.123 24.5ZM283.191 13.9C284.824 13.9 286.124 14.4333 287.091 15.5C288.074 16.55 288.566 18 288.566 19.85V28H284.316V20.425C284.316 19.4917 284.074 18.7667 283.591 18.25C283.107 17.7333 282.457 17.475 281.641 17.475C280.824 17.475 280.174 17.7333 279.691 18.25C279.207 18.7667 278.966 19.4917 278.966 20.425V28H274.691V14.05H278.966V15.9C279.399 15.2833 279.982 14.8 280.716 14.45C281.449 14.0833 282.274 13.9 283.191 13.9Z" fill="black"/>
<path d="M184.733 45.76V44.432H187.741V56H186.269V45.76H184.733ZM196.562 49.52V50.752H190.178V49.52H196.562ZM203.288 47.344C203.363 46.3627 203.741 45.5947 204.424 45.04C205.107 44.4853 205.992 44.208 207.08 44.208C207.805 44.208 208.429 44.3413 208.952 44.608C209.485 44.864 209.885 45.216 210.152 45.664C210.429 46.112 210.568 46.6187 210.568 47.184C210.568 47.8453 210.376 48.416 209.992 48.896C209.619 49.376 209.128 49.6853 208.52 49.824V49.904C209.213 50.0747 209.763 50.4107 210.168 50.912C210.573 51.4133 210.776 52.0693 210.776 52.88C210.776 53.488 210.637 54.0373 210.36 54.528C210.083 55.008 209.667 55.3867 209.112 55.664C208.557 55.9413 207.891 56.08 207.112 56.08C205.981 56.08 205.053 55.7867 204.328 55.2C203.603 54.6027 203.197 53.76 203.112 52.672H204.52C204.595 53.312 204.856 53.8347 205.304 54.24C205.752 54.6453 206.349 54.848 207.096 54.848C207.843 54.848 208.408 54.656 208.792 54.272C209.187 53.8773 209.384 53.3707 209.384 52.752C209.384 51.952 209.117 51.376 208.584 51.024C208.051 50.672 207.245 50.496 206.168 50.496H205.8V49.28H206.184C207.165 49.2693 207.907 49.1093 208.408 48.8C208.909 48.48 209.16 47.9893 209.16 47.328C209.16 46.7627 208.973 46.3093 208.6 45.968C208.237 45.6267 207.715 45.456 207.032 45.456C206.371 45.456 205.837 45.6267 205.432 45.968C205.027 46.3093 204.787 46.768 204.712 47.344H203.288ZM212.358 45.76V44.432H215.366V56H213.894V45.76H212.358ZM227.989 44.848V53.088C227.989 54.0053 227.706 54.7413 227.141 55.296C226.575 55.84 225.829 56.112 224.901 56.112C223.962 56.112 223.21 55.8347 222.645 55.28C222.079 54.7147 221.797 53.9467 221.797 52.976H223.253C223.263 53.52 223.402 53.9627 223.669 54.304C223.946 54.6453 224.357 54.816 224.901 54.816C225.445 54.816 225.85 54.656 226.117 54.336C226.383 54.0053 226.517 53.5893 226.517 53.088V44.848H227.989ZM238.633 47.232V56H237.177V54.704C236.9 55.152 236.51 55.504 236.009 55.76C235.518 56.0053 234.974 56.128 234.377 56.128C233.694 56.128 233.081 55.9893 232.537 55.712C231.993 55.424 231.561 54.9973 231.241 54.432C230.932 53.8667 230.777 53.1787 230.777 52.368V47.232H232.217V52.176C232.217 53.04 232.436 53.7067 232.873 54.176C233.31 54.6347 233.908 54.864 234.665 54.864C235.444 54.864 236.057 54.624 236.505 54.144C236.953 53.664 237.177 52.9653 237.177 52.048V47.232H238.633ZM242.547 44.16V56H241.091V44.16H242.547ZM245.781 45.808C245.504 45.808 245.269 45.712 245.077 45.52C244.885 45.328 244.789 45.0933 244.789 44.816C244.789 44.5387 244.885 44.304 245.077 44.112C245.269 43.92 245.504 43.824 245.781 43.824C246.048 43.824 246.272 43.92 246.453 44.112C246.645 44.304 246.741 44.5387 246.741 44.816C246.741 45.0933 246.645 45.328 246.453 45.52C246.272 45.712 246.048 45.808 245.781 45.808ZM246.485 47.232V56H245.029V47.232H246.485ZM252.816 54.832C254.171 53.744 255.232 52.8533 256 52.16C256.768 51.456 257.413 50.7253 257.936 49.968C258.469 49.2 258.736 48.448 258.736 47.712C258.736 47.0187 258.565 46.4747 258.224 46.08C257.893 45.6747 257.355 45.472 256.608 45.472C255.883 45.472 255.317 45.7013 254.912 46.16C254.517 46.608 254.304 47.2107 254.272 47.968H252.864C252.907 46.7733 253.269 45.8507 253.952 45.2C254.635 44.5493 255.515 44.224 256.592 44.224C257.691 44.224 258.56 44.528 259.2 45.136C259.851 45.744 260.176 46.5813 260.176 47.648C260.176 48.5333 259.909 49.3973 259.376 50.24C258.853 51.072 258.256 51.808 257.584 52.448C256.912 53.0773 256.053 53.8133 255.008 54.656H260.512V55.872H252.816V54.832ZM262.195 50.096C262.195 48.2613 262.494 46.832 263.091 45.808C263.688 44.7733 264.734 44.256 266.227 44.256C267.71 44.256 268.75 44.7733 269.347 45.808C269.944 46.832 270.243 48.2613 270.243 50.096C270.243 51.9627 269.944 53.4133 269.347 54.448C268.75 55.4827 267.71 56 266.227 56C264.734 56 263.688 55.4827 263.091 54.448C262.494 53.4133 262.195 51.9627 262.195 50.096ZM268.803 50.096C268.803 49.168 268.739 48.384 268.611 47.744C268.494 47.0933 268.243 46.5707 267.859 46.176C267.486 45.7813 266.942 45.584 266.227 45.584C265.502 45.584 264.947 45.7813 264.563 46.176C264.19 46.5707 263.939 47.0933 263.811 47.744C263.694 48.384 263.635 49.168 263.635 50.096C263.635 51.056 263.694 51.8613 263.811 52.512C263.939 53.1627 264.19 53.6853 264.563 54.08C264.947 54.4747 265.502 54.672 266.227 54.672C266.942 54.672 267.486 54.4747 267.859 54.08C268.243 53.6853 268.494 53.1627 268.611 52.512C268.739 51.8613 268.803 51.056 268.803 50.096ZM272.066 54.832C273.421 53.744 274.482 52.8533 275.25 52.16C276.018 51.456 276.663 50.7253 277.186 49.968C277.719 49.2 277.986 48.448 277.986 47.712C277.986 47.0187 277.815 46.4747 277.474 46.08C277.143 45.6747 276.605 45.472 275.858 45.472C275.133 45.472 274.567 45.7013 274.162 46.16C273.767 46.608 273.554 47.2107 273.522 47.968H272.114C272.157 46.7733 272.519 45.8507 273.202 45.2C273.885 44.5493 274.765 44.224 275.842 44.224C276.941 44.224 277.81 44.528 278.45 45.136C279.101 45.744 279.426 46.5813 279.426 47.648C279.426 48.5333 279.159 49.3973 278.626 50.24C278.103 51.072 277.506 51.808 276.834 52.448C276.162 53.0773 275.303 53.8133 274.258 54.656H279.762V55.872H272.066V54.832ZM281.413 47.344C281.488 46.3627 281.866 45.5947 282.549 45.04C283.232 44.4853 284.117 44.208 285.205 44.208C285.93 44.208 286.554 44.3413 287.077 44.608C287.61 44.864 288.01 45.216 288.277 45.664C288.554 46.112 288.693 46.6187 288.693 47.184C288.693 47.8453 288.501 48.416 288.117 48.896C287.744 49.376 287.253 49.6853 286.645 49.824V49.904C287.338 50.0747 287.888 50.4107 288.293 50.912C288.698 51.4133 288.901 52.0693 288.901 52.88C288.901 53.488 288.762 54.0373 288.485 54.528C288.208 55.008 287.792 55.3867 287.237 55.664C286.682 55.9413 286.016 56.08 285.237 56.08C284.106 56.08 283.178 55.7867 282.453 55.2C281.728 54.6027 281.322 53.76 281.237 52.672H282.645C282.72 53.312 282.981 53.8347 283.429 54.24C283.877 54.6453 284.474 54.848 285.221 54.848C285.968 54.848 286.533 54.656 286.917 54.272C287.312 53.8773 287.509 53.3707 287.509 52.752C287.509 51.952 287.242 51.376 286.709 51.024C286.176 50.672 285.37 50.496 284.293 50.496H283.925V49.28H284.309C285.29 49.2693 286.032 49.1093 286.533 48.8C287.034 48.48 287.285 47.9893 287.285 47.328C287.285 46.7627 287.098 46.3093 286.725 45.968C286.362 45.6267 285.84 45.456 285.157 45.456C284.496 45.456 283.962 45.6267 283.557 45.968C283.152 46.3093 282.912 46.768 282.837 47.344H281.413Z" fill="black"/>
<path d="M697.46 19C698.476 19.2167 699.293 19.725 699.91 20.525C700.526 21.3083 700.835 22.2083 700.835 23.225C700.835 24.6917 700.318 25.8583 699.285 26.725C698.268 27.575 696.843 28 695.01 28H686.835V10.45H694.735C696.518 10.45 697.91 10.8583 698.91 11.675C699.926 12.4917 700.435 13.6 700.435 15C700.435 16.0333 700.16 16.8917 699.61 17.575C699.076 18.2583 698.36 18.7333 697.46 19ZM691.11 17.55H693.91C694.61 17.55 695.143 17.4 695.51 17.1C695.893 16.7833 696.085 16.325 696.085 15.725C696.085 15.125 695.893 14.6667 695.51 14.35C695.143 14.0333 694.61 13.875 693.91 13.875H691.11V17.55ZM694.26 24.55C694.976 24.55 695.526 24.3917 695.91 24.075C696.31 23.7417 696.51 23.2667 696.51 22.65C696.51 22.0333 696.301 21.55 695.885 21.2C695.485 20.85 694.926 20.675 694.21 20.675H691.11V24.55H694.26ZM702.464 21C702.464 19.5667 702.731 18.3083 703.264 17.225C703.814 16.1417 704.556 15.3083 705.489 14.725C706.422 14.1417 707.464 13.85 708.614 13.85C709.597 13.85 710.456 14.05 711.189 14.45C711.939 14.85 712.514 15.375 712.914 16.025V14.05H717.189V28H712.914V26.025C712.497 26.675 711.914 27.2 711.164 27.6C710.431 28 709.572 28.2 708.589 28.2C707.456 28.2 706.422 27.9083 705.489 27.325C704.556 26.725 703.814 25.8833 703.264 24.8C702.731 23.7 702.464 22.4333 702.464 21ZM712.914 21.025C712.914 19.9583 712.614 19.1167 712.014 18.5C711.431 17.8833 710.714 17.575 709.864 17.575C709.014 17.575 708.289 17.8833 707.689 18.5C707.106 19.1 706.814 19.9333 706.814 21C706.814 22.0667 707.106 22.9167 707.689 23.55C708.289 24.1667 709.014 24.475 709.864 24.475C710.714 24.475 711.431 24.1667 712.014 23.55C712.614 22.9333 712.914 22.0917 712.914 21.025ZM728.807 28L724.557 22.15V28H720.282V9.5H724.557V19.725L728.782 14.05H734.057L728.257 21.05L734.107 28H728.807ZM743.511 24.375V28H741.336C739.786 28 738.578 27.625 737.711 26.875C736.844 26.1083 736.411 24.8667 736.411 23.15V17.6H734.711V14.05H736.411V10.65H740.686V14.05H743.486V17.6H740.686V23.2C740.686 23.6167 740.786 23.9167 740.986 24.1C741.186 24.2833 741.519 24.375 741.986 24.375H743.511ZM748.042 12.6C747.292 12.6 746.676 12.3833 746.192 11.95C745.726 11.5 745.492 10.95 745.492 10.3C745.492 9.63333 745.726 9.08333 746.192 8.65C746.676 8.2 747.292 7.975 748.042 7.975C748.776 7.975 749.376 8.2 749.842 8.65C750.326 9.08333 750.567 9.63333 750.567 10.3C750.567 10.95 750.326 11.5 749.842 11.95C749.376 12.3833 748.776 12.6 748.042 12.6ZM750.167 14.05V28H745.892V14.05H750.167Z" fill="black"/>
<path d="M646.733 45.76V44.432H649.741V56H648.269V45.76H646.733ZM658.562 49.52V50.752H652.178V49.52H658.562ZM665.288 47.344C665.363 46.3627 665.741 45.5947 666.424 45.04C667.107 44.4853 667.992 44.208 669.08 44.208C669.805 44.208 670.429 44.3413 670.952 44.608C671.485 44.864 671.885 45.216 672.152 45.664C672.429 46.112 672.568 46.6187 672.568 47.184C672.568 47.8453 672.376 48.416 671.992 48.896C671.619 49.376 671.128 49.6853 670.52 49.824V49.904C671.213 50.0747 671.763 50.4107 672.168 50.912C672.573 51.4133 672.776 52.0693 672.776 52.88C672.776 53.488 672.637 54.0373 672.36 54.528C672.083 55.008 671.667 55.3867 671.112 55.664C670.557 55.9413 669.891 56.08 669.112 56.08C667.981 56.08 667.053 55.7867 666.328 55.2C665.603 54.6027 665.197 53.76 665.112 52.672H666.52C666.595 53.312 666.856 53.8347 667.304 54.24C667.752 54.6453 668.349 54.848 669.096 54.848C669.843 54.848 670.408 54.656 670.792 54.272C671.187 53.8773 671.384 53.3707 671.384 52.752C671.384 51.952 671.117 51.376 670.584 51.024C670.051 50.672 669.245 50.496 668.168 50.496H667.8V49.28H668.184C669.165 49.2693 669.907 49.1093 670.408 48.8C670.909 48.48 671.16 47.9893 671.16 47.328C671.16 46.7627 670.973 46.3093 670.6 45.968C670.237 45.6267 669.715 45.456 669.032 45.456C668.371 45.456 667.837 45.6267 667.432 45.968C667.027 46.3093 666.787 46.768 666.712 47.344H665.288ZM674.358 45.76V44.432H677.366V56H675.894V45.76H674.358ZM689.989 44.848V53.088C689.989 54.0053 689.706 54.7413 689.141 55.296C688.575 55.84 687.829 56.112 686.901 56.112C685.962 56.112 685.21 55.8347 684.645 55.28C684.079 54.7147 683.797 53.9467 683.797 52.976H685.253C685.263 53.52 685.402 53.9627 685.669 54.304C685.946 54.6453 686.357 54.816 686.901 54.816C687.445 54.816 687.85 54.656 688.117 54.336C688.383 54.0053 688.517 53.5893 688.517 53.088V44.848H689.989ZM700.633 47.232V56H699.177V54.704C698.9 55.152 698.51 55.504 698.009 55.76C697.518 56.0053 696.974 56.128 696.377 56.128C695.694 56.128 695.081 55.9893 694.537 55.712C693.993 55.424 693.561 54.9973 693.241 54.432C692.932 53.8667 692.777 53.1787 692.777 52.368V47.232H694.217V52.176C694.217 53.04 694.436 53.7067 694.873 54.176C695.31 54.6347 695.908 54.864 696.665 54.864C697.444 54.864 698.057 54.624 698.505 54.144C698.953 53.664 699.177 52.9653 699.177 52.048V47.232H700.633ZM704.547 44.16V56H703.091V44.16H704.547ZM707.781 45.808C707.504 45.808 707.269 45.712 707.077 45.52C706.885 45.328 706.789 45.0933 706.789 44.816C706.789 44.5387 706.885 44.304 707.077 44.112C707.269 43.92 707.504 43.824 707.781 43.824C708.048 43.824 708.272 43.92 708.453 44.112C708.645 44.304 708.741 44.5387 708.741 44.816C708.741 45.0933 708.645 45.328 708.453 45.52C708.272 45.712 708.048 45.808 707.781 45.808ZM708.485 47.232V56H707.029V47.232H708.485ZM714.816 54.832C716.171 53.744 717.232 52.8533 718 52.16C718.768 51.456 719.413 50.7253 719.936 49.968C720.469 49.2 720.736 48.448 720.736 47.712C720.736 47.0187 720.565 46.4747 720.224 46.08C719.893 45.6747 719.355 45.472 718.608 45.472C717.883 45.472 717.317 45.7013 716.912 46.16C716.517 46.608 716.304 47.2107 716.272 47.968H714.864C714.907 46.7733 715.269 45.8507 715.952 45.2C716.635 44.5493 717.515 44.224 718.592 44.224C719.691 44.224 720.56 44.528 721.2 45.136C721.851 45.744 722.176 46.5813 722.176 47.648C722.176 48.5333 721.909 49.3973 721.376 50.24C720.853 51.072 720.256 51.808 719.584 52.448C718.912 53.0773 718.053 53.8133 717.008 54.656H722.512V55.872H714.816V54.832ZM724.195 50.096C724.195 48.2613 724.494 46.832 725.091 45.808C725.688 44.7733 726.734 44.256 728.227 44.256C729.71 44.256 730.75 44.7733 731.347 45.808C731.944 46.832 732.243 48.2613 732.243 50.096C732.243 51.9627 731.944 53.4133 731.347 54.448C730.75 55.4827 729.71 56 728.227 56C726.734 56 725.688 55.4827 725.091 54.448C724.494 53.4133 724.195 51.9627 724.195 50.096ZM730.803 50.096C730.803 49.168 730.739 48.384 730.611 47.744C730.494 47.0933 730.243 46.5707 729.859 46.176C729.486 45.7813 728.942 45.584 728.227 45.584C727.502 45.584 726.947 45.7813 726.563 46.176C726.19 46.5707 725.939 47.0933 725.811 47.744C725.694 48.384 725.635 49.168 725.635 50.096C725.635 51.056 725.694 51.8613 725.811 52.512C725.939 53.1627 726.19 53.6853 726.563 54.08C726.947 54.4747 727.502 54.672 728.227 54.672C728.942 54.672 729.486 54.4747 729.859 54.08C730.243 53.6853 730.494 53.1627 730.611 52.512C730.739 51.8613 730.803 51.056 730.803 50.096ZM734.066 54.832C735.421 53.744 736.482 52.8533 737.25 52.16C738.018 51.456 738.663 50.7253 739.186 49.968C739.719 49.2 739.986 48.448 739.986 47.712C739.986 47.0187 739.815 46.4747 739.474 46.08C739.143 45.6747 738.605 45.472 737.858 45.472C737.133 45.472 736.567 45.7013 736.162 46.16C735.767 46.608 735.554 47.2107 735.522 47.968H734.114C734.157 46.7733 734.519 45.8507 735.202 45.2C735.885 44.5493 736.765 44.224 737.842 44.224C738.941 44.224 739.81 44.528 740.45 45.136C741.101 45.744 741.426 46.5813 741.426 47.648C741.426 48.5333 741.159 49.3973 740.626 50.24C740.103 51.072 739.506 51.808 738.834 52.448C738.162 53.0773 737.303 53.8133 736.258 54.656H741.762V55.872H734.066V54.832ZM743.413 47.344C743.488 46.3627 743.866 45.5947 744.549 45.04C745.232 44.4853 746.117 44.208 747.205 44.208C747.93 44.208 748.554 44.3413 749.077 44.608C749.61 44.864 750.01 45.216 750.277 45.664C750.554 46.112 750.693 46.6187 750.693 47.184C750.693 47.8453 750.501 48.416 750.117 48.896C749.744 49.376 749.253 49.6853 748.645 49.824V49.904C749.338 50.0747 749.888 50.4107 750.293 50.912C750.698 51.4133 750.901 52.0693 750.901 52.88C750.901 53.488 750.762 54.0373 750.485 54.528C750.208 55.008 749.792 55.3867 749.237 55.664C748.682 55.9413 748.016 56.08 747.237 56.08C746.106 56.08 745.178 55.7867 744.453 55.2C743.728 54.6027 743.322 53.76 743.237 52.672H744.645C744.72 53.312 744.981 53.8347 745.429 54.24C745.877 54.6453 746.474 54.848 747.221 54.848C747.968 54.848 748.533 54.656 748.917 54.272C749.312 53.8773 749.509 53.3707 749.509 52.752C749.509 51.952 749.242 51.376 748.709 51.024C748.176 50.672 747.37 50.496 746.293 50.496H745.925V49.28H746.309C747.29 49.2693 748.032 49.1093 748.533 48.8C749.034 48.48 749.285 47.9893 749.285 47.328C749.285 46.7627 749.098 46.3093 748.725 45.968C748.362 45.6267 747.84 45.456 747.157 45.456C746.496 45.456 745.962 45.6267 745.557 45.968C745.152 46.3093 744.912 46.768 744.837 47.344H743.413Z" fill="black"/>
<path d="M1127.98 28.175C1126.69 28.175 1125.54 27.9667 1124.53 27.55C1123.51 27.1333 1122.69 26.5167 1122.08 25.7C1121.48 24.8833 1121.16 23.9 1121.13 22.75H1125.68C1125.74 23.4 1125.97 23.9 1126.35 24.25C1126.74 24.5833 1127.24 24.75 1127.85 24.75C1128.49 24.75 1128.99 24.6083 1129.35 24.325C1129.72 24.025 1129.9 23.6167 1129.9 23.1C1129.9 22.6667 1129.75 22.3083 1129.45 22.025C1129.17 21.7417 1128.81 21.5083 1128.38 21.325C1127.96 21.1417 1127.36 20.9333 1126.58 20.7C1125.44 20.35 1124.52 20 1123.8 19.65C1123.09 19.3 1122.47 18.7833 1121.95 18.1C1121.44 17.4167 1121.18 16.525 1121.18 15.425C1121.18 13.7917 1121.77 12.5167 1122.95 11.6C1124.14 10.6667 1125.68 10.2 1127.58 10.2C1129.51 10.2 1131.07 10.6667 1132.25 11.6C1133.44 12.5167 1134.07 13.8 1134.15 15.45H1129.53C1129.49 14.8833 1129.29 14.4417 1128.9 14.125C1128.52 13.7917 1128.03 13.625 1127.43 13.625C1126.91 13.625 1126.49 13.7667 1126.18 14.05C1125.86 14.3167 1125.7 14.7083 1125.7 15.225C1125.7 15.7917 1125.97 16.2333 1126.5 16.55C1127.04 16.8667 1127.87 17.2083 1129 17.575C1130.14 17.9583 1131.05 18.325 1131.75 18.675C1132.47 19.025 1133.09 19.5333 1133.6 20.2C1134.12 20.8667 1134.38 21.725 1134.38 22.775C1134.38 23.775 1134.12 24.6833 1133.6 25.5C1133.1 26.3167 1132.37 26.9667 1131.4 27.45C1130.44 27.9333 1129.29 28.175 1127.98 28.175ZM1150.16 20.8C1150.16 21.2 1150.13 21.6167 1150.08 22.05H1140.41C1140.47 22.9167 1140.75 23.5833 1141.23 24.05C1141.73 24.5 1142.34 24.725 1143.06 24.725C1144.12 24.725 1144.87 24.275 1145.28 23.375H1149.83C1149.6 24.2917 1149.17 25.1167 1148.56 25.85C1147.96 26.5833 1147.2 27.1583 1146.28 27.575C1145.37 27.9917 1144.34 28.2 1143.21 28.2C1141.84 28.2 1140.62 27.9083 1139.56 27.325C1138.49 26.7417 1137.66 25.9083 1137.06 24.825C1136.46 23.7417 1136.16 22.475 1136.16 21.025C1136.16 19.575 1136.45 18.3083 1137.03 17.225C1137.63 16.1417 1138.47 15.3083 1139.53 14.725C1140.6 14.1417 1141.82 13.85 1143.21 13.85C1144.56 13.85 1145.76 14.1333 1146.81 14.7C1147.86 15.2667 1148.67 16.075 1149.26 17.125C1149.86 18.175 1150.16 19.4 1150.16 20.8ZM1145.78 19.675C1145.78 18.9417 1145.53 18.3583 1145.03 17.925C1144.53 17.4917 1143.91 17.275 1143.16 17.275C1142.44 17.275 1141.83 17.4833 1141.33 17.9C1140.85 18.3167 1140.55 18.9083 1140.43 19.675H1145.78ZM1156.69 9.5V28H1152.41V9.5H1156.69ZM1172.94 20.8C1172.94 21.2 1172.91 21.6167 1172.86 22.05H1163.19C1163.25 22.9167 1163.53 23.5833 1164.01 24.05C1164.51 24.5 1165.12 24.725 1165.84 24.725C1166.9 24.725 1167.64 24.275 1168.06 23.375H1172.61C1172.38 24.2917 1171.95 25.1167 1171.34 25.85C1170.74 26.5833 1169.98 27.1583 1169.06 27.575C1168.14 27.9917 1167.12 28.2 1165.99 28.2C1164.62 28.2 1163.4 27.9083 1162.34 27.325C1161.27 26.7417 1160.44 25.9083 1159.84 24.825C1159.24 23.7417 1158.94 22.475 1158.94 21.025C1158.94 19.575 1159.23 18.3083 1159.81 17.225C1160.41 16.1417 1161.24 15.3083 1162.31 14.725C1163.38 14.1417 1164.6 13.85 1165.99 13.85C1167.34 13.85 1168.54 14.1333 1169.59 14.7C1170.64 15.2667 1171.45 16.075 1172.04 17.125C1172.64 18.175 1172.94 19.4 1172.94 20.8ZM1168.56 19.675C1168.56 18.9417 1168.31 18.3583 1167.81 17.925C1167.31 17.4917 1166.69 17.275 1165.94 17.275C1165.22 17.275 1164.61 17.4833 1164.11 17.9C1163.63 18.3167 1163.33 18.9083 1163.21 19.675H1168.56ZM1180.87 28.2C1179.65 28.2 1178.57 27.9917 1177.62 27.575C1176.67 27.1583 1175.92 26.5917 1175.37 25.875C1174.82 25.1417 1174.51 24.325 1174.44 23.425H1178.67C1178.72 23.9083 1178.94 24.3 1179.34 24.6C1179.74 24.9 1180.23 25.05 1180.82 25.05C1181.35 25.05 1181.76 24.95 1182.04 24.75C1182.34 24.5333 1182.49 24.2583 1182.49 23.925C1182.49 23.525 1182.28 23.2333 1181.87 23.05C1181.45 22.85 1180.77 22.6333 1179.84 22.4C1178.84 22.1667 1178.01 21.925 1177.34 21.675C1176.67 21.4083 1176.1 21 1175.62 20.45C1175.13 19.8833 1174.89 19.125 1174.89 18.175C1174.89 17.375 1175.11 16.65 1175.54 16C1175.99 15.3333 1176.64 14.8083 1177.49 14.425C1178.36 14.0417 1179.38 13.85 1180.57 13.85C1182.32 13.85 1183.69 14.2833 1184.69 15.15C1185.71 16.0167 1186.29 17.1667 1186.44 18.6H1182.49C1182.42 18.1167 1182.21 17.7333 1181.84 17.45C1181.49 17.1667 1181.02 17.025 1180.44 17.025C1179.94 17.025 1179.56 17.125 1179.29 17.325C1179.02 17.5083 1178.89 17.7667 1178.89 18.1C1178.89 18.5 1179.1 18.8 1179.52 19C1179.95 19.2 1180.62 19.4 1181.52 19.6C1182.55 19.8667 1183.39 20.1333 1184.04 20.4C1184.69 20.65 1185.26 21.0667 1185.74 21.65C1186.24 22.2167 1186.5 22.9833 1186.52 23.95C1186.52 24.7667 1186.28 25.5 1185.82 26.15C1185.37 26.7833 1184.71 27.2833 1183.84 27.65C1182.99 28.0167 1182 28.2 1180.87 28.2ZM1188.28 21C1188.28 19.5667 1188.55 18.3083 1189.08 17.225C1189.63 16.1417 1190.37 15.3083 1191.31 14.725C1192.24 14.1417 1193.28 13.85 1194.43 13.85C1195.42 13.85 1196.27 14.05 1197.01 14.45C1197.76 14.85 1198.33 15.375 1198.73 16.025V14.05H1203.01V28H1198.73V26.025C1198.32 26.675 1197.73 27.2 1196.98 27.6C1196.25 28 1195.39 28.2 1194.41 28.2C1193.27 28.2 1192.24 27.9083 1191.31 27.325C1190.37 26.725 1189.63 25.8833 1189.08 24.8C1188.55 23.7 1188.28 22.4333 1188.28 21ZM1198.73 21.025C1198.73 19.9583 1198.43 19.1167 1197.83 18.5C1197.25 17.8833 1196.53 17.575 1195.68 17.575C1194.83 17.575 1194.11 17.8833 1193.51 18.5C1192.92 19.1 1192.63 19.9333 1192.63 21C1192.63 22.0667 1192.92 22.9167 1193.51 23.55C1194.11 24.1667 1194.83 24.475 1195.68 24.475C1196.53 24.475 1197.25 24.1667 1197.83 23.55C1198.43 22.9333 1198.73 22.0917 1198.73 21.025ZM1208.25 12.6C1207.5 12.6 1206.88 12.3833 1206.4 11.95C1205.93 11.5 1205.7 10.95 1205.7 10.3C1205.7 9.63333 1205.93 9.08333 1206.4 8.65C1206.88 8.2 1207.5 7.975 1208.25 7.975C1208.98 7.975 1209.58 8.2 1210.05 8.65C1210.53 9.08333 1210.77 9.63333 1210.77 10.3C1210.77 10.95 1210.53 11.5 1210.05 11.95C1209.58 12.3833 1208.98 12.6 1208.25 12.6ZM1210.37 14.05V28H1206.1V14.05H1210.37Z" fill="black"/>
<path d="M1106.73 45.76V44.432H1109.74V56H1108.27V45.76H1106.73ZM1118.56 49.52V50.752H1112.18V49.52H1118.56ZM1125.29 47.344C1125.36 46.3627 1125.74 45.5947 1126.42 45.04C1127.11 44.4853 1127.99 44.208 1129.08 44.208C1129.81 44.208 1130.43 44.3413 1130.95 44.608C1131.49 44.864 1131.89 45.216 1132.15 45.664C1132.43 46.112 1132.57 46.6187 1132.57 47.184C1132.57 47.8453 1132.38 48.416 1131.99 48.896C1131.62 49.376 1131.13 49.6853 1130.52 49.824V49.904C1131.21 50.0747 1131.76 50.4107 1132.17 50.912C1132.57 51.4133 1132.78 52.0693 1132.78 52.88C1132.78 53.488 1132.64 54.0373 1132.36 54.528C1132.08 55.008 1131.67 55.3867 1131.11 55.664C1130.56 55.9413 1129.89 56.08 1129.11 56.08C1127.98 56.08 1127.05 55.7867 1126.33 55.2C1125.6 54.6027 1125.2 53.76 1125.11 52.672H1126.52C1126.59 53.312 1126.86 53.8347 1127.3 54.24C1127.75 54.6453 1128.35 54.848 1129.1 54.848C1129.84 54.848 1130.41 54.656 1130.79 54.272C1131.19 53.8773 1131.38 53.3707 1131.38 52.752C1131.38 51.952 1131.12 51.376 1130.58 51.024C1130.05 50.672 1129.25 50.496 1128.17 50.496H1127.8V49.28H1128.18C1129.17 49.2693 1129.91 49.1093 1130.41 48.8C1130.91 48.48 1131.16 47.9893 1131.16 47.328C1131.16 46.7627 1130.97 46.3093 1130.6 45.968C1130.24 45.6267 1129.71 45.456 1129.03 45.456C1128.37 45.456 1127.84 45.6267 1127.43 45.968C1127.03 46.3093 1126.79 46.768 1126.71 47.344H1125.29ZM1134.36 45.76V44.432H1137.37V56H1135.89V45.76H1134.36ZM1149.99 44.848V53.088C1149.99 54.0053 1149.71 54.7413 1149.14 55.296C1148.58 55.84 1147.83 56.112 1146.9 56.112C1145.96 56.112 1145.21 55.8347 1144.64 55.28C1144.08 54.7147 1143.8 53.9467 1143.8 52.976H1145.25C1145.26 53.52 1145.4 53.9627 1145.67 54.304C1145.95 54.6453 1146.36 54.816 1146.9 54.816C1147.44 54.816 1147.85 54.656 1148.12 54.336C1148.38 54.0053 1148.52 53.5893 1148.52 53.088V44.848H1149.99ZM1160.63 47.232V56H1159.18V54.704C1158.9 55.152 1158.51 55.504 1158.01 55.76C1157.52 56.0053 1156.97 56.128 1156.38 56.128C1155.69 56.128 1155.08 55.9893 1154.54 55.712C1153.99 55.424 1153.56 54.9973 1153.24 54.432C1152.93 53.8667 1152.78 53.1787 1152.78 52.368V47.232H1154.22V52.176C1154.22 53.04 1154.44 53.7067 1154.87 54.176C1155.31 54.6347 1155.91 54.864 1156.67 54.864C1157.44 54.864 1158.06 54.624 1158.51 54.144C1158.95 53.664 1159.18 52.9653 1159.18 52.048V47.232H1160.63ZM1164.55 44.16V56H1163.09V44.16H1164.55ZM1167.78 45.808C1167.5 45.808 1167.27 45.712 1167.08 45.52C1166.88 45.328 1166.79 45.0933 1166.79 44.816C1166.79 44.5387 1166.88 44.304 1167.08 44.112C1167.27 43.92 1167.5 43.824 1167.78 43.824C1168.05 43.824 1168.27 43.92 1168.45 44.112C1168.64 44.304 1168.74 44.5387 1168.74 44.816C1168.74 45.0933 1168.64 45.328 1168.45 45.52C1168.27 45.712 1168.05 45.808 1167.78 45.808ZM1168.48 47.232V56H1167.03V47.232H1168.48ZM1174.82 54.832C1176.17 53.744 1177.23 52.8533 1178 52.16C1178.77 51.456 1179.41 50.7253 1179.94 49.968C1180.47 49.2 1180.74 48.448 1180.74 47.712C1180.74 47.0187 1180.57 46.4747 1180.22 46.08C1179.89 45.6747 1179.35 45.472 1178.61 45.472C1177.88 45.472 1177.32 45.7013 1176.91 46.16C1176.52 46.608 1176.3 47.2107 1176.27 47.968H1174.86C1174.91 46.7733 1175.27 45.8507 1175.95 45.2C1176.63 44.5493 1177.51 44.224 1178.59 44.224C1179.69 44.224 1180.56 44.528 1181.2 45.136C1181.85 45.744 1182.18 46.5813 1182.18 47.648C1182.18 48.5333 1181.91 49.3973 1181.38 50.24C1180.85 51.072 1180.26 51.808 1179.58 52.448C1178.91 53.0773 1178.05 53.8133 1177.01 54.656H1182.51V55.872H1174.82V54.832ZM1184.2 50.096C1184.2 48.2613 1184.49 46.832 1185.09 45.808C1185.69 44.7733 1186.73 44.256 1188.23 44.256C1189.71 44.256 1190.75 44.7733 1191.35 45.808C1191.94 46.832 1192.24 48.2613 1192.24 50.096C1192.24 51.9627 1191.94 53.4133 1191.35 54.448C1190.75 55.4827 1189.71 56 1188.23 56C1186.73 56 1185.69 55.4827 1185.09 54.448C1184.49 53.4133 1184.2 51.9627 1184.2 50.096ZM1190.8 50.096C1190.8 49.168 1190.74 48.384 1190.61 47.744C1190.49 47.0933 1190.24 46.5707 1189.86 46.176C1189.49 45.7813 1188.94 45.584 1188.23 45.584C1187.5 45.584 1186.95 45.7813 1186.56 46.176C1186.19 46.5707 1185.94 47.0933 1185.81 47.744C1185.69 48.384 1185.64 49.168 1185.64 50.096C1185.64 51.056 1185.69 51.8613 1185.81 52.512C1185.94 53.1627 1186.19 53.6853 1186.56 54.08C1186.95 54.4747 1187.5 54.672 1188.23 54.672C1188.94 54.672 1189.49 54.4747 1189.86 54.08C1190.24 53.6853 1190.49 53.1627 1190.61 52.512C1190.74 51.8613 1190.8 51.056 1190.8 50.096ZM1194.07 54.832C1195.42 53.744 1196.48 52.8533 1197.25 52.16C1198.02 51.456 1198.66 50.7253 1199.19 49.968C1199.72 49.2 1199.99 48.448 1199.99 47.712C1199.99 47.0187 1199.82 46.4747 1199.47 46.08C1199.14 45.6747 1198.6 45.472 1197.86 45.472C1197.13 45.472 1196.57 45.7013 1196.16 46.16C1195.77 46.608 1195.55 47.2107 1195.52 47.968H1194.11C1194.16 46.7733 1194.52 45.8507 1195.2 45.2C1195.88 44.5493 1196.76 44.224 1197.84 44.224C1198.94 44.224 1199.81 44.528 1200.45 45.136C1201.1 45.744 1201.43 46.5813 1201.43 47.648C1201.43 48.5333 1201.16 49.3973 1200.63 50.24C1200.1 51.072 1199.51 51.808 1198.83 52.448C1198.16 53.0773 1197.3 53.8133 1196.26 54.656H1201.76V55.872H1194.07V54.832ZM1203.41 47.344C1203.49 46.3627 1203.87 45.5947 1204.55 45.04C1205.23 44.4853 1206.12 44.208 1207.21 44.208C1207.93 44.208 1208.55 44.3413 1209.08 44.608C1209.61 44.864 1210.01 45.216 1210.28 45.664C1210.55 46.112 1210.69 46.6187 1210.69 47.184C1210.69 47.8453 1210.5 48.416 1210.12 48.896C1209.74 49.376 1209.25 49.6853 1208.65 49.824V49.904C1209.34 50.0747 1209.89 50.4107 1210.29 50.912C1210.7 51.4133 1210.9 52.0693 1210.9 52.88C1210.9 53.488 1210.76 54.0373 1210.49 54.528C1210.21 55.008 1209.79 55.3867 1209.24 55.664C1208.68 55.9413 1208.02 56.08 1207.24 56.08C1206.11 56.08 1205.18 55.7867 1204.45 55.2C1203.73 54.6027 1203.32 53.76 1203.24 52.672H1204.65C1204.72 53.312 1204.98 53.8347 1205.43 54.24C1205.88 54.6453 1206.47 54.848 1207.22 54.848C1207.97 54.848 1208.53 54.656 1208.92 54.272C1209.31 53.8773 1209.51 53.3707 1209.51 52.752C1209.51 51.952 1209.24 51.376 1208.71 51.024C1208.18 50.672 1207.37 50.496 1206.29 50.496H1205.93V49.28H1206.31C1207.29 49.2693 1208.03 49.1093 1208.53 48.8C1209.03 48.48 1209.29 47.9893 1209.29 47.328C1209.29 46.7627 1209.1 46.3093 1208.73 45.968C1208.36 45.6267 1207.84 45.456 1207.16 45.456C1206.5 45.456 1205.96 45.6267 1205.56 45.968C1205.15 46.3093 1204.91 46.768 1204.84 47.344H1203.41Z" fill="black"/>
<path d="M420.93 440.1C420.93 441.117 420.697 442.05 420.23 442.9C419.763 443.733 419.047 444.408 418.08 444.925C417.113 445.442 415.913 445.7 414.48 445.7H411.83V452H407.555V434.45H414.48C415.88 434.45 417.063 434.692 418.03 435.175C418.997 435.658 419.722 436.325 420.205 437.175C420.688 438.025 420.93 439 420.93 440.1ZM414.155 442.3C414.972 442.3 415.58 442.108 415.98 441.725C416.38 441.342 416.58 440.8 416.58 440.1C416.58 439.4 416.38 438.858 415.98 438.475C415.58 438.092 414.972 437.9 414.155 437.9H411.83V442.3H414.155ZM427.43 440.375C427.93 439.608 428.555 439.008 429.305 438.575C430.055 438.125 430.889 437.9 431.805 437.9V442.425H430.63C429.564 442.425 428.764 442.658 428.23 443.125C427.697 443.575 427.43 444.375 427.43 445.525V452H423.155V438.05H427.43V440.375ZM432.999 445C432.999 443.567 433.265 442.308 433.799 441.225C434.349 440.142 435.09 439.308 436.024 438.725C436.957 438.142 437.999 437.85 439.149 437.85C440.132 437.85 440.99 438.05 441.724 438.45C442.474 438.85 443.049 439.375 443.449 440.025V438.05H447.724V452H443.449V450.025C443.032 450.675 442.449 451.2 441.699 451.6C440.965 452 440.107 452.2 439.124 452.2C437.99 452.2 436.957 451.908 436.024 451.325C435.09 450.725 434.349 449.883 433.799 448.8C433.265 447.7 432.999 446.433 432.999 445ZM443.449 445.025C443.449 443.958 443.149 443.117 442.549 442.5C441.965 441.883 441.249 441.575 440.399 441.575C439.549 441.575 438.824 441.883 438.224 442.5C437.64 443.1 437.349 443.933 437.349 445C437.349 446.067 437.64 446.917 438.224 447.55C438.824 448.167 439.549 448.475 440.399 448.475C441.249 448.475 441.965 448.167 442.549 447.55C443.149 446.933 443.449 446.092 443.449 445.025ZM466.739 443C467.756 443.217 468.573 443.725 469.189 444.525C469.806 445.308 470.114 446.208 470.114 447.225C470.114 448.692 469.598 449.858 468.564 450.725C467.548 451.575 466.123 452 464.289 452H456.114V434.45H464.014C465.798 434.45 467.189 434.858 468.189 435.675C469.206 436.492 469.714 437.6 469.714 439C469.714 440.033 469.439 440.892 468.889 441.575C468.356 442.258 467.639 442.733 466.739 443ZM460.389 441.55H463.189C463.889 441.55 464.423 441.4 464.789 441.1C465.173 440.783 465.364 440.325 465.364 439.725C465.364 439.125 465.173 438.667 464.789 438.35C464.423 438.033 463.889 437.875 463.189 437.875H460.389V441.55ZM463.539 448.55C464.256 448.55 464.806 448.392 465.189 448.075C465.589 447.742 465.789 447.267 465.789 446.65C465.789 446.033 465.581 445.55 465.164 445.2C464.764 444.85 464.206 444.675 463.489 444.675H460.389V448.55H463.539ZM471.744 445C471.744 443.567 472.011 442.308 472.544 441.225C473.094 440.142 473.836 439.308 474.769 438.725C475.702 438.142 476.744 437.85 477.894 437.85C478.877 437.85 479.736 438.05 480.469 438.45C481.219 438.85 481.794 439.375 482.194 440.025V438.05H486.469V452H482.194V450.025C481.777 450.675 481.194 451.2 480.444 451.6C479.711 452 478.852 452.2 477.869 452.2C476.736 452.2 475.702 451.908 474.769 451.325C473.836 450.725 473.094 449.883 472.544 448.8C472.011 447.7 471.744 446.433 471.744 445ZM482.194 445.025C482.194 443.958 481.894 443.117 481.294 442.5C480.711 441.883 479.994 441.575 479.144 441.575C478.294 441.575 477.569 441.883 476.969 442.5C476.386 443.1 476.094 443.933 476.094 445C476.094 446.067 476.386 446.917 476.969 447.55C477.569 448.167 478.294 448.475 479.144 448.475C479.994 448.475 480.711 448.167 481.294 447.55C481.894 446.933 482.194 446.092 482.194 445.025ZM498.087 452L493.837 446.15V452H489.562V433.5H493.837V443.725L498.062 438.05H503.337L497.537 445.05L503.387 452H498.087ZM512.791 448.375V452H510.616C509.066 452 507.857 451.625 506.991 450.875C506.124 450.108 505.691 448.867 505.691 447.15V441.6H503.991V438.05H505.691V434.65H509.966V438.05H512.766V441.6H509.966V447.2C509.966 447.617 510.066 447.917 510.266 448.1C510.466 448.283 510.799 448.375 511.266 448.375H512.791ZM517.322 436.6C516.572 436.6 515.955 436.383 515.472 435.95C515.005 435.5 514.772 434.95 514.772 434.3C514.772 433.633 515.005 433.083 515.472 432.65C515.955 432.2 516.572 431.975 517.322 431.975C518.055 431.975 518.655 432.2 519.122 432.65C519.605 433.083 519.847 433.633 519.847 434.3C519.847 434.95 519.605 435.5 519.122 435.95C518.655 436.383 518.055 436.6 517.322 436.6ZM519.447 438.05V452H515.172V438.05H519.447Z" fill="black"/>
<path d="M415.733 469.76V468.432H418.741V480H417.269V469.76H415.733ZM427.562 473.52V474.752H421.178V473.52H427.562ZM434.288 471.344C434.363 470.363 434.741 469.595 435.424 469.04C436.107 468.485 436.992 468.208 438.08 468.208C438.805 468.208 439.429 468.341 439.952 468.608C440.485 468.864 440.885 469.216 441.152 469.664C441.429 470.112 441.568 470.619 441.568 471.184C441.568 471.845 441.376 472.416 440.992 472.896C440.619 473.376 440.128 473.685 439.52 473.824V473.904C440.213 474.075 440.763 474.411 441.168 474.912C441.573 475.413 441.776 476.069 441.776 476.88C441.776 477.488 441.637 478.037 441.36 478.528C441.083 479.008 440.667 479.387 440.112 479.664C439.557 479.941 438.891 480.08 438.112 480.08C436.981 480.08 436.053 479.787 435.328 479.2C434.603 478.603 434.197 477.76 434.112 476.672H435.52C435.595 477.312 435.856 477.835 436.304 478.24C436.752 478.645 437.349 478.848 438.096 478.848C438.843 478.848 439.408 478.656 439.792 478.272C440.187 477.877 440.384 477.371 440.384 476.752C440.384 475.952 440.117 475.376 439.584 475.024C439.051 474.672 438.245 474.496 437.168 474.496H436.8V473.28H437.184C438.165 473.269 438.907 473.109 439.408 472.8C439.909 472.48 440.16 471.989 440.16 471.328C440.16 470.763 439.973 470.309 439.6 469.968C439.237 469.627 438.715 469.456 438.032 469.456C437.371 469.456 436.837 469.627 436.432 469.968C436.027 470.309 435.787 470.768 435.712 471.344H434.288ZM443.358 469.76V468.432H446.366V480H444.894V469.76H443.358ZM458.989 468.848V477.088C458.989 478.005 458.706 478.741 458.141 479.296C457.575 479.84 456.829 480.112 455.901 480.112C454.962 480.112 454.21 479.835 453.645 479.28C453.079 478.715 452.797 477.947 452.797 476.976H454.253C454.263 477.52 454.402 477.963 454.669 478.304C454.946 478.645 455.357 478.816 455.901 478.816C456.445 478.816 456.85 478.656 457.117 478.336C457.383 478.005 457.517 477.589 457.517 477.088V468.848H458.989ZM469.633 471.232V480H468.177V478.704C467.9 479.152 467.51 479.504 467.009 479.76C466.518 480.005 465.974 480.128 465.377 480.128C464.694 480.128 464.081 479.989 463.537 479.712C462.993 479.424 462.561 478.997 462.241 478.432C461.932 477.867 461.777 477.179 461.777 476.368V471.232H463.217V476.176C463.217 477.04 463.436 477.707 463.873 478.176C464.31 478.635 464.908 478.864 465.665 478.864C466.444 478.864 467.057 478.624 467.505 478.144C467.953 477.664 468.177 476.965 468.177 476.048V471.232H469.633ZM473.547 468.16V480H472.091V468.16H473.547ZM476.781 469.808C476.504 469.808 476.269 469.712 476.077 469.52C475.885 469.328 475.789 469.093 475.789 468.816C475.789 468.539 475.885 468.304 476.077 468.112C476.269 467.92 476.504 467.824 476.781 467.824C477.048 467.824 477.272 467.92 477.453 468.112C477.645 468.304 477.741 468.539 477.741 468.816C477.741 469.093 477.645 469.328 477.453 469.52C477.272 469.712 477.048 469.808 476.781 469.808ZM477.485 471.232V480H476.029V471.232H477.485ZM483.816 478.832C485.171 477.744 486.232 476.853 487 476.16C487.768 475.456 488.413 474.725 488.936 473.968C489.469 473.2 489.736 472.448 489.736 471.712C489.736 471.019 489.565 470.475 489.224 470.08C488.893 469.675 488.355 469.472 487.608 469.472C486.883 469.472 486.317 469.701 485.912 470.16C485.517 470.608 485.304 471.211 485.272 471.968H483.864C483.907 470.773 484.269 469.851 484.952 469.2C485.635 468.549 486.515 468.224 487.592 468.224C488.691 468.224 489.56 468.528 490.2 469.136C490.851 469.744 491.176 470.581 491.176 471.648C491.176 472.533 490.909 473.397 490.376 474.24C489.853 475.072 489.256 475.808 488.584 476.448C487.912 477.077 487.053 477.813 486.008 478.656H491.512V479.872H483.816V478.832ZM493.195 474.096C493.195 472.261 493.494 470.832 494.091 469.808C494.688 468.773 495.734 468.256 497.227 468.256C498.71 468.256 499.75 468.773 500.347 469.808C500.944 470.832 501.243 472.261 501.243 474.096C501.243 475.963 500.944 477.413 500.347 478.448C499.75 479.483 498.71 480 497.227 480C495.734 480 494.688 479.483 494.091 478.448C493.494 477.413 493.195 475.963 493.195 474.096ZM499.803 474.096C499.803 473.168 499.739 472.384 499.611 471.744C499.494 471.093 499.243 470.571 498.859 470.176C498.486 469.781 497.942 469.584 497.227 469.584C496.502 469.584 495.947 469.781 495.563 470.176C495.19 470.571 494.939 471.093 494.811 471.744C494.694 472.384 494.635 473.168 494.635 474.096C494.635 475.056 494.694 475.861 494.811 476.512C494.939 477.163 495.19 477.685 495.563 478.08C495.947 478.475 496.502 478.672 497.227 478.672C497.942 478.672 498.486 478.475 498.859 478.08C499.243 477.685 499.494 477.163 499.611 476.512C499.739 475.861 499.803 475.056 499.803 474.096ZM503.066 478.832C504.421 477.744 505.482 476.853 506.25 476.16C507.018 475.456 507.663 474.725 508.186 473.968C508.719 473.2 508.986 472.448 508.986 471.712C508.986 471.019 508.815 470.475 508.474 470.08C508.143 469.675 507.605 469.472 506.858 469.472C506.133 469.472 505.567 469.701 505.162 470.16C504.767 470.608 504.554 471.211 504.522 471.968H503.114C503.157 470.773 503.519 469.851 504.202 469.2C504.885 468.549 505.765 468.224 506.842 468.224C507.941 468.224 508.81 468.528 509.45 469.136C510.101 469.744 510.426 470.581 510.426 471.648C510.426 472.533 510.159 473.397 509.626 474.24C509.103 475.072 508.506 475.808 507.834 476.448C507.162 477.077 506.303 477.813 505.258 478.656H510.762V479.872H503.066V478.832ZM512.413 471.344C512.488 470.363 512.866 469.595 513.549 469.04C514.232 468.485 515.117 468.208 516.205 468.208C516.93 468.208 517.554 468.341 518.077 468.608C518.61 468.864 519.01 469.216 519.277 469.664C519.554 470.112 519.693 470.619 519.693 471.184C519.693 471.845 519.501 472.416 519.117 472.896C518.744 473.376 518.253 473.685 517.645 473.824V473.904C518.338 474.075 518.888 474.411 519.293 474.912C519.698 475.413 519.901 476.069 519.901 476.88C519.901 477.488 519.762 478.037 519.485 478.528C519.208 479.008 518.792 479.387 518.237 479.664C517.682 479.941 517.016 480.08 516.237 480.08C515.106 480.08 514.178 479.787 513.453 479.2C512.728 478.603 512.322 477.76 512.237 476.672H513.645C513.72 477.312 513.981 477.835 514.429 478.24C514.877 478.645 515.474 478.848 516.221 478.848C516.968 478.848 517.533 478.656 517.917 478.272C518.312 477.877 518.509 477.371 518.509 476.752C518.509 475.952 518.242 475.376 517.709 475.024C517.176 474.672 516.37 474.496 515.293 474.496H514.925V473.28H515.309C516.29 473.269 517.032 473.109 517.533 472.8C518.034 472.48 518.285 471.989 518.285 471.328C518.285 470.763 518.098 470.309 517.725 469.968C517.362 469.627 516.84 469.456 516.157 469.456C515.496 469.456 514.962 469.627 514.557 469.968C514.152 470.309 513.912 470.768 513.837 471.344H512.413Z" fill="black"/>
<path d="M845.254 440.1C845.254 441.117 845.021 442.05 844.554 442.9C844.087 443.733 843.371 444.408 842.404 444.925C841.437 445.442 840.237 445.7 838.804 445.7H836.154V452H831.879V434.45H838.804C840.204 434.45 841.387 434.692 842.354 435.175C843.321 435.658 844.046 436.325 844.529 437.175C845.012 438.025 845.254 439 845.254 440.1ZM838.479 442.3C839.296 442.3 839.904 442.108 840.304 441.725C840.704 441.342 840.904 440.8 840.904 440.1C840.904 439.4 840.704 438.858 840.304 438.475C839.904 438.092 839.296 437.9 838.479 437.9H836.154V442.3H838.479ZM846.63 445C846.63 443.567 846.896 442.308 847.43 441.225C847.98 440.142 848.721 439.308 849.655 438.725C850.588 438.142 851.63 437.85 852.78 437.85C853.763 437.85 854.621 438.05 855.355 438.45C856.105 438.85 856.68 439.375 857.08 440.025V438.05H861.355V452H857.08V450.025C856.663 450.675 856.08 451.2 855.33 451.6C854.596 452 853.738 452.2 852.755 452.2C851.621 452.2 850.588 451.908 849.655 451.325C848.721 450.725 847.98 449.883 847.43 448.8C846.896 447.7 846.63 446.433 846.63 445ZM857.08 445.025C857.08 443.958 856.78 443.117 856.18 442.5C855.596 441.883 854.88 441.575 854.03 441.575C853.18 441.575 852.455 441.883 851.855 442.5C851.271 443.1 850.98 443.933 850.98 445C850.98 446.067 851.271 446.917 851.855 447.55C852.455 448.167 853.18 448.475 854.03 448.475C854.88 448.475 855.596 448.167 856.18 447.55C856.78 446.933 857.08 446.092 857.08 445.025ZM870.122 452.2C868.906 452.2 867.822 451.992 866.872 451.575C865.922 451.158 865.172 450.592 864.622 449.875C864.072 449.142 863.764 448.325 863.697 447.425H867.922C867.972 447.908 868.197 448.3 868.597 448.6C868.997 448.9 869.489 449.05 870.072 449.05C870.606 449.05 871.014 448.95 871.297 448.75C871.597 448.533 871.747 448.258 871.747 447.925C871.747 447.525 871.539 447.233 871.122 447.05C870.706 446.85 870.031 446.633 869.097 446.4C868.097 446.167 867.264 445.925 866.597 445.675C865.931 445.408 865.356 445 864.872 444.45C864.389 443.883 864.147 443.125 864.147 442.175C864.147 441.375 864.364 440.65 864.797 440C865.247 439.333 865.897 438.808 866.747 438.425C867.614 438.042 868.639 437.85 869.822 437.85C871.572 437.85 872.947 438.283 873.947 439.15C874.964 440.017 875.547 441.167 875.697 442.6H871.747C871.681 442.117 871.464 441.733 871.097 441.45C870.747 441.167 870.281 441.025 869.697 441.025C869.197 441.025 868.814 441.125 868.547 441.325C868.281 441.508 868.147 441.767 868.147 442.1C868.147 442.5 868.356 442.8 868.772 443C869.206 443.2 869.872 443.4 870.772 443.6C871.806 443.867 872.647 444.133 873.297 444.4C873.947 444.65 874.514 445.067 874.997 445.65C875.497 446.217 875.756 446.983 875.772 447.95C875.772 448.767 875.539 449.5 875.072 450.15C874.622 450.783 873.964 451.283 873.097 451.65C872.247 452.017 871.256 452.2 870.122 452.2ZM877.538 445.025C877.538 443.575 877.83 442.308 878.413 441.225C879.013 440.142 879.838 439.308 880.888 438.725C881.955 438.142 883.171 437.85 884.538 437.85C886.288 437.85 887.746 438.308 888.913 439.225C890.096 440.142 890.871 441.433 891.238 443.1H886.688C886.305 442.033 885.563 441.5 884.463 441.5C883.68 441.5 883.055 441.808 882.588 442.425C882.121 443.025 881.888 443.892 881.888 445.025C881.888 446.158 882.121 447.033 882.588 447.65C883.055 448.25 883.68 448.55 884.463 448.55C885.563 448.55 886.305 448.017 886.688 446.95H891.238C890.871 448.583 890.096 449.867 888.913 450.8C887.73 451.733 886.271 452.2 884.538 452.2C883.171 452.2 881.955 451.908 880.888 451.325C879.838 450.742 879.013 449.908 878.413 448.825C877.83 447.742 877.538 446.475 877.538 445.025ZM892.675 445C892.675 443.567 892.941 442.308 893.475 441.225C894.025 440.142 894.766 439.308 895.7 438.725C896.633 438.142 897.675 437.85 898.825 437.85C899.808 437.85 900.666 438.05 901.4 438.45C902.15 438.85 902.725 439.375 903.125 440.025V438.05H907.4V452H903.125V450.025C902.708 450.675 902.125 451.2 901.375 451.6C900.641 452 899.783 452.2 898.8 452.2C897.666 452.2 896.633 451.908 895.7 451.325C894.766 450.725 894.025 449.883 893.475 448.8C892.941 447.7 892.675 446.433 892.675 445ZM903.125 445.025C903.125 443.958 902.825 443.117 902.225 442.5C901.641 441.883 900.925 441.575 900.075 441.575C899.225 441.575 898.5 441.883 897.9 442.5C897.316 443.1 897.025 443.933 897.025 445C897.025 446.067 897.316 446.917 897.9 447.55C898.5 448.167 899.225 448.475 900.075 448.475C900.925 448.475 901.641 448.167 902.225 447.55C902.825 446.933 903.125 446.092 903.125 445.025ZM926.415 443C927.432 443.217 928.249 443.725 928.865 444.525C929.482 445.308 929.79 446.208 929.79 447.225C929.79 448.692 929.274 449.858 928.24 450.725C927.224 451.575 925.799 452 923.965 452H915.79V434.45H923.69C925.474 434.45 926.865 434.858 927.865 435.675C928.882 436.492 929.39 437.6 929.39 439C929.39 440.033 929.115 440.892 928.565 441.575C928.032 442.258 927.315 442.733 926.415 443ZM920.065 441.55H922.865C923.565 441.55 924.099 441.4 924.465 441.1C924.849 440.783 925.04 440.325 925.04 439.725C925.04 439.125 924.849 438.667 924.465 438.35C924.099 438.033 923.565 437.875 922.865 437.875H920.065V441.55ZM923.215 448.55C923.932 448.55 924.482 448.392 924.865 448.075C925.265 447.742 925.465 447.267 925.465 446.65C925.465 446.033 925.257 445.55 924.84 445.2C924.44 444.85 923.882 444.675 923.165 444.675H920.065V448.55H923.215ZM931.42 445C931.42 443.567 931.686 442.308 932.22 441.225C932.77 440.142 933.511 439.308 934.445 438.725C935.378 438.142 936.42 437.85 937.57 437.85C938.553 437.85 939.411 438.05 940.145 438.45C940.895 438.85 941.47 439.375 941.87 440.025V438.05H946.145V452H941.87V450.025C941.453 450.675 940.87 451.2 940.12 451.6C939.386 452 938.528 452.2 937.545 452.2C936.411 452.2 935.378 451.908 934.445 451.325C933.511 450.725 932.77 449.883 932.22 448.8C931.686 447.7 931.42 446.433 931.42 445ZM941.87 445.025C941.87 443.958 941.57 443.117 940.97 442.5C940.386 441.883 939.67 441.575 938.82 441.575C937.97 441.575 937.245 441.883 936.645 442.5C936.061 443.1 935.77 443.933 935.77 445C935.77 446.067 936.061 446.917 936.645 447.55C937.245 448.167 937.97 448.475 938.82 448.475C939.67 448.475 940.386 448.167 940.97 447.55C941.57 446.933 941.87 446.092 941.87 445.025ZM957.763 452L953.513 446.15V452H949.238V433.5H953.513V443.725L957.738 438.05H963.013L957.213 445.05L963.063 452H957.763ZM972.467 448.375V452H970.292C968.742 452 967.533 451.625 966.667 450.875C965.8 450.108 965.367 448.867 965.367 447.15V441.6H963.667V438.05H965.367V434.65H969.642V438.05H972.442V441.6H969.642V447.2C969.642 447.617 969.742 447.917 969.942 448.1C970.142 448.283 970.475 448.375 970.942 448.375H972.467ZM976.998 436.6C976.248 436.6 975.631 436.383 975.148 435.95C974.681 435.5 974.448 434.95 974.448 434.3C974.448 433.633 974.681 433.083 975.148 432.65C975.631 432.2 976.248 431.975 976.998 431.975C977.731 431.975 978.331 432.2 978.798 432.65C979.281 433.083 979.523 433.633 979.523 434.3C979.523 434.95 979.281 435.5 978.798 435.95C978.331 436.383 977.731 436.6 976.998 436.6ZM979.123 438.05V452H974.848V438.05H979.123Z" fill="black"/>
<path d="M875.733 469.76V468.432H878.741V480H877.269V469.76H875.733ZM887.562 473.52V474.752H881.178V473.52H887.562ZM894.288 471.344C894.363 470.363 894.741 469.595 895.424 469.04C896.107 468.485 896.992 468.208 898.08 468.208C898.805 468.208 899.429 468.341 899.952 468.608C900.485 468.864 900.885 469.216 901.152 469.664C901.429 470.112 901.568 470.619 901.568 471.184C901.568 471.845 901.376 472.416 900.992 472.896C900.619 473.376 900.128 473.685 899.52 473.824V473.904C900.213 474.075 900.763 474.411 901.168 474.912C901.573 475.413 901.776 476.069 901.776 476.88C901.776 477.488 901.637 478.037 901.36 478.528C901.083 479.008 900.667 479.387 900.112 479.664C899.557 479.941 898.891 480.08 898.112 480.08C896.981 480.08 896.053 479.787 895.328 479.2C894.603 478.603 894.197 477.76 894.112 476.672H895.52C895.595 477.312 895.856 477.835 896.304 478.24C896.752 478.645 897.349 478.848 898.096 478.848C898.843 478.848 899.408 478.656 899.792 478.272C900.187 477.877 900.384 477.371 900.384 476.752C900.384 475.952 900.117 475.376 899.584 475.024C899.051 474.672 898.245 474.496 897.168 474.496H896.8V473.28H897.184C898.165 473.269 898.907 473.109 899.408 472.8C899.909 472.48 900.16 471.989 900.16 471.328C900.16 470.763 899.973 470.309 899.6 469.968C899.237 469.627 898.715 469.456 898.032 469.456C897.371 469.456 896.837 469.627 896.432 469.968C896.027 470.309 895.787 470.768 895.712 471.344H894.288ZM903.358 469.76V468.432H906.366V480H904.894V469.76H903.358ZM918.989 468.848V477.088C918.989 478.005 918.706 478.741 918.141 479.296C917.575 479.84 916.829 480.112 915.901 480.112C914.962 480.112 914.21 479.835 913.645 479.28C913.079 478.715 912.797 477.947 912.797 476.976H914.253C914.263 477.52 914.402 477.963 914.669 478.304C914.946 478.645 915.357 478.816 915.901 478.816C916.445 478.816 916.85 478.656 917.117 478.336C917.383 478.005 917.517 477.589 917.517 477.088V468.848H918.989ZM929.633 471.232V480H928.177V478.704C927.9 479.152 927.51 479.504 927.009 479.76C926.518 480.005 925.974 480.128 925.377 480.128C924.694 480.128 924.081 479.989 923.537 479.712C922.993 479.424 922.561 478.997 922.241 478.432C921.932 477.867 921.777 477.179 921.777 476.368V471.232H923.217V476.176C923.217 477.04 923.436 477.707 923.873 478.176C924.31 478.635 924.908 478.864 925.665 478.864C926.444 478.864 927.057 478.624 927.505 478.144C927.953 477.664 928.177 476.965 928.177 476.048V471.232H929.633ZM933.547 468.16V480H932.091V468.16H933.547ZM936.781 469.808C936.504 469.808 936.269 469.712 936.077 469.52C935.885 469.328 935.789 469.093 935.789 468.816C935.789 468.539 935.885 468.304 936.077 468.112C936.269 467.92 936.504 467.824 936.781 467.824C937.048 467.824 937.272 467.92 937.453 468.112C937.645 468.304 937.741 468.539 937.741 468.816C937.741 469.093 937.645 469.328 937.453 469.52C937.272 469.712 937.048 469.808 936.781 469.808ZM937.485 471.232V480H936.029V471.232H937.485ZM943.816 478.832C945.171 477.744 946.232 476.853 947 476.16C947.768 475.456 948.413 474.725 948.936 473.968C949.469 473.2 949.736 472.448 949.736 471.712C949.736 471.019 949.565 470.475 949.224 470.08C948.893 469.675 948.355 469.472 947.608 469.472C946.883 469.472 946.317 469.701 945.912 470.16C945.517 470.608 945.304 471.211 945.272 471.968H943.864C943.907 470.773 944.269 469.851 944.952 469.2C945.635 468.549 946.515 468.224 947.592 468.224C948.691 468.224 949.56 468.528 950.2 469.136C950.851 469.744 951.176 470.581 951.176 471.648C951.176 472.533 950.909 473.397 950.376 474.24C949.853 475.072 949.256 475.808 948.584 476.448C947.912 477.077 947.053 477.813 946.008 478.656H951.512V479.872H943.816V478.832ZM953.195 474.096C953.195 472.261 953.494 470.832 954.091 469.808C954.688 468.773 955.734 468.256 957.227 468.256C958.71 468.256 959.75 468.773 960.347 469.808C960.944 470.832 961.243 472.261 961.243 474.096C961.243 475.963 960.944 477.413 960.347 478.448C959.75 479.483 958.71 480 957.227 480C955.734 480 954.688 479.483 954.091 478.448C953.494 477.413 953.195 475.963 953.195 474.096ZM959.803 474.096C959.803 473.168 959.739 472.384 959.611 471.744C959.494 471.093 959.243 470.571 958.859 470.176C958.486 469.781 957.942 469.584 957.227 469.584C956.502 469.584 955.947 469.781 955.563 470.176C955.19 470.571 954.939 471.093 954.811 471.744C954.694 472.384 954.635 473.168 954.635 474.096C954.635 475.056 954.694 475.861 954.811 476.512C954.939 477.163 955.19 477.685 955.563 478.08C955.947 478.475 956.502 478.672 957.227 478.672C957.942 478.672 958.486 478.475 958.859 478.08C959.243 477.685 959.494 477.163 959.611 476.512C959.739 475.861 959.803 475.056 959.803 474.096ZM963.066 478.832C964.421 477.744 965.482 476.853 966.25 476.16C967.018 475.456 967.663 474.725 968.186 473.968C968.719 473.2 968.986 472.448 968.986 471.712C968.986 471.019 968.815 470.475 968.474 470.08C968.143 469.675 967.605 469.472 966.858 469.472C966.133 469.472 965.567 469.701 965.162 470.16C964.767 470.608 964.554 471.211 964.522 471.968H963.114C963.157 470.773 963.519 469.851 964.202 469.2C964.885 468.549 965.765 468.224 966.842 468.224C967.941 468.224 968.81 468.528 969.45 469.136C970.101 469.744 970.426 470.581 970.426 471.648C970.426 472.533 970.159 473.397 969.626 474.24C969.103 475.072 968.506 475.808 967.834 476.448C967.162 477.077 966.303 477.813 965.258 478.656H970.762V479.872H963.066V478.832ZM972.413 471.344C972.488 470.363 972.866 469.595 973.549 469.04C974.232 468.485 975.117 468.208 976.205 468.208C976.93 468.208 977.554 468.341 978.077 468.608C978.61 468.864 979.01 469.216 979.277 469.664C979.554 470.112 979.693 470.619 979.693 471.184C979.693 471.845 979.501 472.416 979.117 472.896C978.744 473.376 978.253 473.685 977.645 473.824V473.904C978.338 474.075 978.888 474.411 979.293 474.912C979.698 475.413 979.901 476.069 979.901 476.88C979.901 477.488 979.762 478.037 979.485 478.528C979.208 479.008 978.792 479.387 978.237 479.664C977.682 479.941 977.016 480.08 976.237 480.08C975.106 480.08 974.178 479.787 973.453 479.2C972.728 478.603 972.322 477.76 972.237 476.672H973.645C973.72 477.312 973.981 477.835 974.429 478.24C974.877 478.645 975.474 478.848 976.221 478.848C976.968 478.848 977.533 478.656 977.917 478.272C978.312 477.877 978.509 477.371 978.509 476.752C978.509 475.952 978.242 475.376 977.709 475.024C977.176 474.672 976.37 474.496 975.293 474.496H974.925V473.28H975.309C976.29 473.269 977.032 473.109 977.533 472.8C978.034 472.48 978.285 471.989 978.285 471.328C978.285 470.763 978.098 470.309 977.725 469.968C977.362 469.627 976.84 469.456 976.157 469.456C975.496 469.456 974.962 469.627 974.557 469.968C974.152 470.309 973.912 470.768 973.837 471.344H972.413Z" fill="black"/>
<rect x="280" y="70" width="10" height="137" fill="#A65895"/>
<rect x="741" y="70" width="10" height="137" fill="#A65895"/>
<rect x="1202" y="70" width="10" height="137" fill="#A65895"/>
<rect x="511" y="279" width="10" height="137" fill="#A65895"/>
<rect x="971" y="279" width="10" height="137" fill="#A65895"/>
</svg>
