<svg width="24" height="24" viewBox="0 0 24 24" fill="none" xmlns="http://www.w3.org/2000/svg">
<path d="M14.5521 12L23.4842 3.06781C23.817 2.72822 24.0024 2.27102 24 1.79555C23.9976 1.32009 23.8076 0.864783 23.4714 0.528575C23.1352 0.192367 22.6799 0.00242444 22.2044 2.30484e-05C21.729 -0.00237835 21.2718 0.182955 20.9322 0.51575L12 9.44794L3.06781 0.51575C2.72822 0.182955 2.27102 -0.00237835 1.79555 2.30484e-05C1.32009 0.00242444 0.864783 0.192367 0.528575 0.528575C0.192367 0.864783 0.00242444 1.32009 2.30484e-05 1.79555C-0.00237835 2.27102 0.182955 2.72822 0.51575 3.06781L9.44794 12L0.51575 20.9322C0.182955 21.2718 -0.00237835 21.729 2.30484e-05 22.2044C0.00242444 22.6799 0.192367 23.1352 0.528575 23.4714C0.864783 23.8076 1.32009 23.9976 1.79555 24C2.27102 24.0024 2.72822 23.817 3.06781 23.4842L12 14.5521L20.9322 23.4842C21.2718 23.817 21.729 24.0024 22.2044 24C22.6799 23.9976 23.1352 23.8076 23.4714 23.4714C23.8076 23.1352 23.9976 22.6799 24 22.2044C24.0024 21.729 23.817 21.2718 23.4842 20.9322L14.5521 12Z" fill="#6C2863" fill-opacity="0.5"/>
</svg>
