<svg width="26" height="18" viewBox="0 0 26 18" fill="none" xmlns="http://www.w3.org/2000/svg">
<path d="M24.6026 16.9213L24.6026 16.9213L24.6004 16.923C24.0905 17.3446 23.4346 17.5476 22.7756 17.4877C22.1167 17.4279 21.5081 17.11 21.0824 16.6035L21.0811 16.6019L13.0001 6.90605L4.91896 16.6018L4.91874 16.602C4.49395 17.111 3.88437 17.4304 3.2241 17.4899C2.56382 17.5494 1.90695 17.3442 1.39798 16.9194C0.889005 16.4946 0.569626 15.8851 0.510102 15.2248C0.450588 14.5646 0.655706 13.9079 1.08034 13.3989C1.08042 13.3988 1.0805 13.3988 1.08057 13.3987L11.0808 1.39856L11.0809 1.39844C11.3154 1.11719 11.6089 0.890932 11.9405 0.735661C12.2722 0.580389 12.6339 0.499907 13.0001 0.499907C13.3663 0.499907 13.728 0.580389 14.0597 0.735661C14.3913 0.890932 14.6848 1.11719 14.9193 1.39844L14.9194 1.39857L24.9198 13.3991C25.3444 13.9084 25.5494 14.5654 25.4899 15.2258C25.4304 15.8862 25.1113 16.496 24.6026 16.9213Z" fill="#6C2863" stroke="#6C2863"/>
</svg>
