<svg width="59" height="57" viewBox="0 0 59 57" fill="none" xmlns="http://www.w3.org/2000/svg">
<path fill-rule="evenodd" clip-rule="evenodd" d="M46.8135 13.9781C48.7088 14.4711 50.2033 15.9148 50.7136 17.746C51.6613 21.0913 51.6248 28.0637 51.6248 28.0637C51.6248 28.0637 51.6248 35.0008 50.7136 38.3462C50.2033 40.1773 48.7088 41.6211 46.8135 42.1141C43.3508 42.9944 29.4999 42.9944 29.4999 42.9944C29.4999 42.9944 15.6855 42.9944 12.1863 42.0789C10.291 41.5859 8.79653 40.1421 8.28624 38.311C7.375 35.0008 7.375 28.0285 7.375 28.0285C7.375 28.0285 7.375 21.0913 8.28624 17.746C8.79653 15.9148 10.3274 14.4358 12.1863 13.9429C15.6491 13.0625 29.4999 13.0625 29.4999 13.0625C29.4999 13.0625 43.3508 13.0625 46.8135 13.9781ZM36.6075 27.784L25.0895 34.1929V21.375L36.6075 27.784Z" fill="#6C2863"/>
</svg>
